<?xml version="1.0" encoding="utf-8"?>
<!-- Generator: Adobe Illustrator 19.1.0, SVG Export Plug-In . SVG Version: 6.00 Build 0)  -->
<!DOCTYPE svg PUBLIC "-//W3C//DTD SVG 1.1//EN" "http://www.w3.org/Graphics/SVG/1.1/DTD/svg11.dtd">
<svg version="1.1" xmlns="http://www.w3.org/2000/svg" xmlns:xlink="http://www.w3.org/1999/xlink" x="0px" y="0px" width="95.8px"
	 height="74px" viewBox="0 0 95.8 74" enable-background="new 0 0 95.8 74" xml:space="preserve">
<g id="Layer_2">
	<path fill="#414042" d="M83.1,23.9c-1.8-4.2-4.5-8-7.8-11.1c-1.1-1.2-2.4-2.2-3.7-3.1c-0.6-0.4-1.2-0.8-1.8-1.2
		c-5.3-3.4-11.6-5.7-18-6.7c-0.2-0.1-0.4-0.1-0.6-0.2c-3.7-1-7.4-1.1-11.1,0c-3.5,1-6.6,3-9.4,5.3c-0.2,0.2-0.4,0.4-0.7,0.6
		c-2.3,1.3-4.1,3.2-5.2,5.6c-0.1,0.3-0.2,0.5-0.4,0.8c-0.3,0.5-0.7,1-1,1.5c-0.3,0.3-0.6,0.6-0.9,0.9c-7.7,7.5-12.1,19.6-7.2,29.8
		c0.7,1.4,1.5,2.6,2.4,3.7c0.3,5.2,1.6,10.3,4.7,14.4c0.7,1.7,1.7,3.4,3.3,4.3c0.7,0.4,1.5,0.6,2.4,0.7c4.2,2.5,9.1,3.5,14,3.2
		c10.5,1.1,21.5-3.2,29.6-9.9c5.4-4.5,9.7-10.3,12-17C85.9,38.4,86,30.6,83.1,23.9z M81.7,34.4c-0.3,1.6-0.7,3-1.3,4.5
		c0.2-2.2,0.2-4.4-0.1-6.6c0-0.2,0-0.3-0.1-0.5c0.4-2.3,0.5-4.5,0.3-6.9c-0.1-1.1-0.3-2.2-0.5-3.3c0.2,0.2,0.4,0.4,0.6,0.5
		c1,1.1,1.2,2.5,1.4,4C82.3,28.9,82.2,31.7,81.7,34.4z M81.5,22.1c-0.5-0.7-1.2-1.2-1.8-1.7c-0.3-1.1-0.7-2.1-1.2-3.1
		C79.6,18.8,80.6,20.4,81.5,22.1z M78.7,39.1c0-0.3,0-0.7-0.1-1c0-0.2,0.1-0.4,0.1-0.6c0.2-0.7,0.5-1.4,0.7-2.1
		c0.1,1.2,0.2,2.5,0.1,3.7c-0.1,1-0.3,2-0.5,3.1c0,0.1-0.1,0.1-0.1,0.2c-0.1,0.3-0.2,0.5-0.3,0.8C78.8,41.7,78.8,40.4,78.7,39.1z
		 M79.1,33.5v-0.7c0,0.1,0,0.3,0.1,0.4C79.2,33.4,79.1,33.5,79.1,33.5z M75.2,19.2c-0.3-0.6-0.7-1.1-1.1-1.7
		c1.1,0.7,2.1,1.4,3.2,2.1c0.5,0.4,1.1,0.8,1.7,1.2c0.8,2.7,1,5.6,0.8,8.4C78.9,25.7,77.3,22.3,75.2,19.2z M72.3,57.9
		c-0.8,0.4-1.6,0.7-2.5,0.9c0.7-0.6,1.4-1.1,2.1-1.8c2-2,3.6-4.4,4.8-7c0,0.4,0,0.9,0,1.3C75.5,53.7,74.1,56,72.3,57.9z M76.4,53.5
		c-0.3,1.3-1,2.3-2,3.1C75.2,55.6,75.8,54.6,76.4,53.5z M23.6,52.1c0.3,0.4,0.6,0.7,1,1c0,0.3,0,0.7,0,1
		C24.2,53.5,23.9,52.8,23.6,52.1z M23.8,54.8c-0.1-0.1-0.1-0.2-0.2-0.2c0,0,0.1,0,0.1,0.1C23.7,54.7,23.7,54.8,23.8,54.8z M23,50
		c-0.1-0.2-0.1-0.4-0.1-0.6c0.5,0.8,1.2,1.6,1.9,2.4c0,0.1,0,0.2,0,0.3C24.1,51.5,23.5,50.8,23,50z M42.3,7c0.7,0,1.5,0,2.2,0.1
		c-1.1,0-2.3,0.1-3.4,0.2C41.5,7.2,41.9,7.1,42.3,7z M41.3,6.3c0.3-0.1,0.5-0.1,0.8-0.2c-0.2,0-0.4,0.1-0.5,0.1
		C41.4,6.3,41.4,6.3,41.3,6.3z M76.4,26.1c0-0.1-0.1-0.2-0.1-0.3c-0.1-0.5-0.2-1.1-0.4-1.6c-0.9-3.4-2.9-6.3-5.6-8.5
		c-0.5-0.4-1.1-0.9-1.7-1.3c0.9,0.5,1.8,0.9,2.6,1.4c0.2,0.2,0.4,0.4,0.6,0.6c2.4,3.1,4.4,6.6,5.7,10.3c0.6,2.3,0.9,4.8,0.8,7.2
		c0,0.5-0.1,1-0.1,1.5c-0.2-0.8-0.4-1.5-0.6-2.3C77.7,30.8,77.4,28.4,76.4,26.1z M63.8,58.7c-0.3-0.1-0.7-0.1-1-0.1
		c2.4-1.3,4.6-3,6.5-5c1-1,1.8-2.1,2.6-3.2c-0.7,1.3-1.5,2.6-2.3,3.9C67.8,56,65.9,57.5,63.8,58.7z M67.3,58.5
		c2.3-1.3,4.5-2.8,6.3-4.7c-1.6,2.1-3.5,3.9-5.7,5.3c-0.4,0-0.8,0-1.1,0C67,58.9,67.2,58.7,67.3,58.5z M66.6,59.9
		c-0.3,0.1-0.6,0.3-0.9,0.4c0.2-0.2,0.3-0.3,0.4-0.5C66.3,59.8,66.5,59.9,66.6,59.9z M47.3,62.1c-1.9-0.3-3.8-0.8-5.6-1.3
		c0.8,0.1,1.5,0.1,2.3,0.2c2.3,0.3,4.7,0.2,7-0.6c0.3-0.1,0.7-0.2,1-0.4c1.6,0.1,3.2,0,4.9-0.2c-0.3,0.2-0.6,0.5-1,0.7
		C53.1,61.3,50.2,61.9,47.3,62.1z M52.7,62.4C52.7,62.4,52.7,62.4,52.7,62.4L52.7,62.4C52.6,62.4,52.7,62.4,52.7,62.4z M48.4,64.4
		c-2.3,0.1-4.6,0-6.9-0.5c2.8,0.1,5.6,0,8.3-0.3c0.2,0,0.5-0.1,0.8-0.1C49.9,63.8,49.1,64.1,48.4,64.4z M49,65.2
		c-0.7,0.2-1.4,0.4-2.1,0.6c0,0-0.1,0-0.1,0c0.6-0.2,1.2-0.4,1.7-0.6C48.6,65.2,48.8,65.2,49,65.2z M36.7,51
		c-0.5-0.4-0.9-0.9-1.3-1.4c1.3,0.6,2.6,1.2,3.8,1.6c0.3,0.1,0.7,0.2,1.1,0.4c0.1,0.1,0.2,0.2,0.4,0.2c3.2,2,7,2.5,10.8,2
		c-1.1,0.5-2.3,0.8-3.4,1.2c-1.4,0.1-2.9,0.1-4.3,0C41.2,54.1,38.8,52.7,36.7,51z M43.8,57.4c-0.5-0.1-1.1-0.2-1.6-0.2
		c-0.8-0.3-1.6-0.6-2.4-0.9c0.2,0,0.4,0.1,0.5,0.1C41.5,56.7,42.6,57.1,43.8,57.4z M29.4,54.8c-0.1-0.5-0.3-0.9-0.4-1.4
		c0.2,0.2,0.5,0.3,0.8,0.5c0.5,0.8,1.1,1.6,1.8,2.2C30.9,55.7,30.1,55.3,29.4,54.8z M33.2,57.8c-1.1-0.5-2.2-1-3.2-1.6
		c0,0,0-0.1-0.1-0.2C30.9,56.7,32,57.3,33.2,57.8z M28,45.9c-0.2-0.6-0.4-1.3-0.6-1.9c0-0.2,0-0.3,0-0.5c0.1,0.2,0.3,0.3,0.4,0.5
		c0.3,0.6,0.6,1.2,0.9,1.8c0.1,0.5,0.2,1.1,0.4,1.6C28.7,46.9,28.4,46.4,28,45.9z M28.2,53.3c-0.1-0.3-0.2-0.5-0.3-0.8
		c0,0,0.1,0.1,0.2,0.1C28,52.9,28.1,53.1,28.2,53.3z M22.6,42.9c0.1-0.6,0.1-1.2,0.2-1.8c0.4,1,1,2.1,1.6,3c0.1,0.5,0.2,1.1,0.3,1.6
		C24,44.9,23.3,43.9,22.6,42.9z M24.4,46.5c-0.3-0.2-0.5-0.5-0.8-0.7c-0.1-0.2-0.1-0.3-0.2-0.5C23.7,45.7,24,46.1,24.4,46.5z
		 M21.8,47.6c0,0.2,0,0.4,0.1,0.7c-0.1-0.1-0.1-0.2-0.1-0.2c-0.2-0.4-0.4-0.7-0.6-1.1c0-0.2,0-0.4,0-0.6
		C21.4,46.8,21.6,47.2,21.8,47.6z M21.3,44.5c0-0.2,0-0.4,0-0.6c0.1,0.2,0.2,0.5,0.4,0.7c0,0.4,0,0.7,0,1.1
		C21.5,45.3,21.4,44.9,21.3,44.5z M21.8,39.7c0-0.3,0.1-0.7,0.2-1c0.1,0.3,0.2,0.7,0.3,1c-0.1,0.4-0.2,0.9-0.2,1.3
		C22,40.6,21.9,40.1,21.8,39.7z M22.1,34.3c0-0.9,0-1.7,0.1-2.6c0.2-0.7,0.3-1.4,0.6-2.1c-0.1,0.9-0.1,1.7-0.1,2.6
		C22.5,32.9,22.3,33.6,22.1,34.3z M22.9,34.7c0.1,0.6,0.2,1.2,0.3,1.8C23,37,22.8,37.5,22.7,38c-0.1-0.5-0.2-0.9-0.3-1.4
		C22.5,36,22.7,35.3,22.9,34.7z M23.2,39.6c0.1-0.5,0.2-1,0.3-1.5c0.1,0.3,0.1,0.6,0.2,0.9c0.1,0.2,0.1,0.5,0.2,0.7
		c0,0.7,0.1,1.5,0.2,2.2c-0.1-0.2-0.2-0.5-0.4-0.8C23.5,40.6,23.3,40.1,23.2,39.6z M24.7,39.5c0-0.2,0-0.5,0-0.7
		c0.3,0.6,0.6,1.2,0.8,1.9c0,0.2,0,0.5,0,0.7C25.2,40.8,25,40.1,24.7,39.5z M25.3,33.1c0.2-0.9,0.5-1.7,0.8-2.6
		c-0.3,1.7-0.4,3.5-0.3,5.3c-0.1,0.8-0.2,1.6-0.2,2.4C25.1,36.5,25.1,34.8,25.3,33.1z M25.7,50.5c0.1,0.2,0.3,0.3,0.4,0.5
		c0.1,0.5,0.2,1,0.4,1.5c-0.3-0.3-0.7-0.6-1-0.9C25.6,51.2,25.7,50.9,25.7,50.5z M26.7,45.4c0,0.2,0,0.3,0,0.5
		c-0.1-0.1-0.2-0.2-0.2-0.3c0-0.1,0-0.3,0-0.4C26.6,45.2,26.7,45.3,26.7,45.4z M26.6,35.9c0-0.2,0-0.4,0.1-0.5c0,0.1,0,0.2,0,0.4
		c0,0.2-0.1,0.3-0.1,0.5C26.6,36.1,26.6,36,26.6,35.9z M26.9,47.3c0,0.2,0.1,0.5,0.1,0.8c-0.2-0.2-0.4-0.4-0.6-0.6
		c0-0.3,0-0.5-0.1-0.8C26.6,46.9,26.7,47.1,26.9,47.3z M26.8,53.8c0.1,0.1,0.2,0.1,0.3,0.2c0,0,0,0.1,0,0.1c0,0.1,0.1,0.2,0.1,0.3
		c-0.6-0.5-1.2-1-1.8-1.6c0-0.1,0-0.2,0-0.3C25.9,53,26.3,53.4,26.8,53.8z M27.2,50.9c-0.2-0.5-0.4-1-0.5-1.5c0-0.1,0-0.2,0-0.3
		c0.2,0.2,0.4,0.3,0.6,0.4c0.1,0.6,0.2,1.2,0.4,1.8c-0.1-0.1-0.2-0.2-0.3-0.2C27.3,51,27.3,51,27.2,50.9z M49.3,12.9
		c-1.4-0.1-2.8,0-4.2,0.1c0.3-0.2,0.6-0.4,0.9-0.5H46C47.1,12.5,48.2,12.7,49.3,12.9z M46.8,11c0.1,0,0.2-0.1,0.3-0.1
		C47,10.9,47,10.9,46.8,11C46.9,11,46.8,11,46.8,11z M73.4,27.3c1,1.3,1.8,2.8,2.4,4.3c0,0.6-0.1,1.3-0.2,1.9
		C75.2,31.3,74.4,29.2,73.4,27.3z M75.2,36.3c0,0.1,0,0.2-0.1,0.4c0-0.1,0-0.2,0-0.2c0-0.1,0.1-0.2,0.1-0.4
		C75.2,36.2,75.2,36.2,75.2,36.3z M71.3,23.8c-0.1-0.2-0.2-0.4-0.3-0.6c0.7,0.8,1.4,1.6,2,2.4C72.4,24.9,71.8,24.3,71.3,23.8z
		 M72,40.4c0,0.1,0,0.2,0,0.3c0,0,0,0-0.1,0.1C71.9,40.6,71.9,40.5,72,40.4z M62.6,55.6c0.2-0.2,0.4-0.5,0.7-0.7
		c3-2.1,5.3-5.1,6.9-8.6c0.5-1.3,1-2.7,1.4-4.1c0.1-0.1,0.2-0.2,0.3-0.4c-0.1,1.9-0.4,3.8-1,5.7C68.9,51,66.1,53.8,62.6,55.6z
		 M69.2,51.3c-0.7,1.1-1.6,2.1-2.7,3c-0.9,0.7-2,1.3-3.1,1.8c1.9-1,3.6-2.4,5.1-4C68.8,51.8,69,51.6,69.2,51.3z M52,57.8
		c-0.5,0-1,0-1.5-0.1c0.6-0.3,1.1-0.5,1.6-0.8c1.3-0.1,2.6-0.3,3.8-0.6c-0.4,0.4-0.9,0.8-1.4,1.2C53.8,57.6,52.9,57.7,52,57.8z
		 M52.6,58.8c-0.1,0-0.2,0.1-0.3,0.1c-0.2,0.1-0.5,0.2-0.7,0.2c-1.2-0.1-2.4-0.2-3.6-0.4c0.1,0,0.2-0.1,0.3-0.1c0.7,0,1.4,0,2.1,0
		C51.1,58.7,51.9,58.8,52.6,58.8z M29.6,45.7c0.3,0.2,0.5,0.5,0.8,0.7c0.4,0.8,0.8,1.6,1.2,2.3C30.9,47.8,30.2,46.8,29.6,45.7z
		 M31.3,49.6c-0.2-0.2-0.5-0.5-0.8-0.7c-0.1-0.2-0.2-0.5-0.3-0.7C30.6,48.7,30.9,49.1,31.3,49.6z M29.1,41.5v-0.1
		c0,0.2,0.1,0.3,0.2,0.5c0.6,1.5,1.4,3,2.3,4.4c-0.2-0.1-0.4-0.3-0.6-0.4c-0.2-0.5-0.5-1.1-0.7-1.6C29.9,43.3,29.5,42.4,29.1,41.5z
		 M29.6,44.6c-0.1-0.1-0.2-0.2-0.3-0.3c0-0.2,0-0.3,0-0.5C29.3,44.1,29.5,44.3,29.6,44.6z M28.9,36c-0.1-0.6-0.1-1.1-0.2-1.6v-0.3
		c0-0.5,0-0.9,0.1-1.4c0.2-0.5,0.3-1,0.5-1.5c0.6-1.1,1.4-2,2.2-2.9c0,0.1,0,0.2-0.1,0.3C30.2,31,29.4,33.5,28.9,36z M29.4,38
		c0.3-2.4,1-4.8,1.9-7c0,2,0.6,4,1.7,5.7c0,0.5,0.1,0.9,0.1,1.4c0.5,4.3,2.3,8.9,5.5,12c-1.5-0.6-3-1.3-4.4-2.2
		c-0.8-1.1-1.5-2.3-2.1-3.5C31,42.4,30,40.3,29.4,38z M36.7,22.3c0.6-0.4,1.2-0.7,1.8-0.9c-0.3,0.2-0.6,0.5-0.9,0.8
		c-0.8,0.5-1.5,1-2.2,1.6c-0.7,0.6-1.3,1.3-1.9,2C34.2,24.4,35.3,23.2,36.7,22.3z M35.6,21c0.8-0.9,1.8-1.8,2.7-2.7
		c0.7-0.2,1.3-0.4,2-0.5c0,0.1,0.1,0.1,0.1,0.2c0.1,0.2,0.2,0.3,0.4,0.5C39,19,37.2,19.9,35.6,21z M48.2,15.6
		c1.3,0.6,2.5,1.2,3.8,1.8c0.1,0,0.1,0.1,0.2,0.1c-0.7-0.1-1.5-0.1-2.2-0.1c-2.6-0.7-5.3-1-8-0.7c0-0.1,0-0.2,0-0.3
		C44,15.8,46.1,15.5,48.2,15.6z M46.6,14.1c0.4,0.1,0.8,0.2,1.3,0.3c-0.3,0-0.5-0.1-0.8-0.1C46.9,14.2,46.8,14.1,46.6,14.1z
		 M68.4,25.3c0.1,0.3,0.2,0.5,0.4,0.8c-0.3-0.4-0.7-0.8-1-1.2C67.9,25.1,68.1,25.2,68.4,25.3z M67.7,20.7c0,0,0.1,0.1,0.1,0.1
		c0,0,0,0,0,0C67.8,20.7,67.7,20.7,67.7,20.7z M69.7,35.8c-0.2-1.6-0.6-3.2-1.3-4.7c-0.6-1.5-1.5-2.9-2.5-4.1
		c-0.1-0.5-0.2-1.1-0.3-1.6c-0.2-0.7-0.6-1.3-1-1.8C67.9,26.8,70.1,31.1,69.7,35.8z M71.4,33.3c0-0.1,0-0.2,0-0.3
		c-0.2-2-0.7-4-1.4-5.9c0-0.2-0.1-0.3-0.1-0.5c0.6,1.6,1.1,3.2,1.5,4.9c0.1,0.4,0.1,0.8,0.2,1.2C71.5,32.9,71.4,33.1,71.4,33.3z
		 M71.5,38.6c-0.1,1.1-0.4,2.1-0.6,3.2c0,0,0,0-0.1,0.1c0.2-0.9,0.4-1.8,0.5-2.7c0,0,0-0.1,0-0.1C71.4,38.9,71.4,38.7,71.5,38.6z
		 M60.6,50.8c0.1-0.2,0.1-0.3,0.2-0.5c1.5-1,2.9-2.3,4-3.8c0.2-0.1,0.4-0.2,0.6-0.3C64,48,62.4,49.5,60.6,50.8z M63.5,49.4
		c-0.6,0.6-1.2,1.2-1.9,1.7c-0.3,0.2-0.5,0.3-0.8,0.5c0.8-0.6,1.6-1.2,2.3-1.8C63.3,49.6,63.4,49.5,63.5,49.4z M48.3,50.3
		c0.4,0,0.9,0,1.3-0.1c-0.6,0.2-1.3,0.3-1.9,0.5C47.9,50.6,48.1,50.4,48.3,50.3z M47.9,48.9c0.4,0,0.8-0.1,1.1-0.2
		c0,0-0.1,0.1-0.1,0.1c-0.1,0.1-0.1,0.1-0.2,0.2C48.4,49,48.2,49,47.9,48.9z M45.1,48.2c-1.8-0.6-3.5-1.6-5-2.8
		c-0.5-0.7-1-1.4-1.3-2.2c0.5,0.2,0.9,0.4,1.4,0.6c2.8,1.6,6.1,2.1,9.3,1.6c0.8,0.1,1.6,0.2,2.4,0.2c-0.5,0.7-1.1,1.4-1.8,2.1
		C48.5,48.1,46.8,48.4,45.1,48.2z M34.3,30.6c-0.1,0.1-0.2,0.2-0.2,0.3c0.3-1.8,0.9-3.5,1.8-5.1c0.2-0.1,0.4-0.1,0.7-0.2
		c-0.9,1.5-1.6,3-2.1,4.7C34.4,30.3,34.3,30.4,34.3,30.6z M34.3,40.4c-0.1-0.3-0.1-0.6-0.2-0.9c0,0,0.1,0.1,0.1,0.1
		C34.2,39.8,34.3,40.1,34.3,40.4z M35,25.1c0.2-0.2,0.3-0.3,0.5-0.5c-0.1,0.1-0.2,0.2-0.2,0.4c0,0,0,0-0.1,0
		C35.1,25.1,35.1,25.1,35,25.1z M36.4,34.4c0,1,0.1,2,0.4,2.9c0,0.8,0.1,1.7,0.2,2.5c-0.4-0.5-0.7-1.1-0.9-1.7
		c-0.1-0.2-0.1-0.3-0.2-0.5c0-0.3-0.1-0.7-0.1-1c0-0.5,0-0.9,0-1.4C36.1,35,36.2,34.7,36.4,34.4z M36.2,33.4
		c0.1-0.4,0.2-0.8,0.4-1.2c-0.1,0.3-0.1,0.6-0.1,0.9C36.4,33.2,36.3,33.3,36.2,33.4z M35.3,34c0-0.3,0-0.7,0-1
		c0.1-0.9,0.3-1.9,0.5-2.8c0.4-0.3,0.8-0.5,1.2-0.7C36.2,30.9,35.6,32.4,35.3,34z M35.7,41.2c0.6,1.2,1.3,2.2,2.2,3.2
		c0.1,0.2,0.3,0.4,0.4,0.6c0.3,1.3,0.8,2.5,1.6,3.6c-0.8-0.7-1.5-1.5-2.2-2.4c-1.1-1.5-2.1-3.5-2.6-5.5C35.3,40.9,35.5,41,35.7,41.2
		z M45,20.9c0.1,0,0.2,0,0.3,0c0.2,0,0.3,0.1,0.5,0.1c-1,0.4-1.9,0.9-2.6,1.5c-0.1,0-0.2,0-0.3,0C43.5,21.9,44.2,21.3,45,20.9z
		 M42.9,18.6c0.8-0.2,1.5-0.3,2.3-0.4c-0.5,0.2-1.1,0.4-1.6,0.7c-0.1,0-0.2,0.1-0.3,0.2C43.2,18.9,43.1,18.8,42.9,18.6z M51.2,15
		c-0.1-0.1-0.3-0.2-0.4-0.3c1.1,0.2,2.1,0.4,3.2,0.7c0,0,0,0,0,0.1c-0.2-0.1-0.4-0.1-0.6-0.1C52.7,15.2,52,15.1,51.2,15z M51.6,16.3
		C51.6,16.3,51.6,16.3,51.6,16.3c-0.5-0.2-0.9-0.4-1.3-0.6c0.2,0,0.4,0,0.6,0.1C51.2,15.9,51.4,16.1,51.6,16.3z M59.4,24
		c0.2,0.2,0.4,0.4,0.6,0.5c-0.6-0.3-1.1-0.6-1.7-0.8c-0.5-0.2-1.1-0.4-1.7-0.5c-0.3-0.2-0.5-0.4-0.8-0.6C57,22.8,58.3,23.2,59.4,24z
		 M56.9,21.3C57,21.3,57,21.3,56.9,21.3c0.2,0.1,0.3,0.1,0.4,0.2C57.2,21.4,57.1,21.3,56.9,21.3z M59.5,17.1
		c0.2,0.1,0.4,0.3,0.5,0.4c-1.7-0.8-3.4-1.4-5.2-1.9c0,0,0,0,0,0C56.4,16.1,57.9,16.6,59.5,17.1z M54.9,14.9c0-0.1,0-0.3,0-0.4
		c0.3,0.1,0.5,0.2,0.8,0.3c0.4,0.2,0.9,0.4,1.3,0.7c-0.2-0.1-0.5-0.1-0.7-0.2C55.9,15.2,55.4,15,54.9,14.9z M62.3,19.6
		c0.3,0.3,0.7,0.7,1,1c0.6,0.6,1.1,1.2,1.6,1.9c-0.1,0-0.1-0.1-0.2-0.1c-1.5-1.4-3.2-2.6-4.9-3.6c-1.1-0.7-2.4-1.3-3.6-1.9
		C58.3,17.6,60.4,18.5,62.3,19.6z M64.4,27.4c0.2,0.6,0.4,1.2,0.6,1.8c-0.2-0.3-0.5-0.6-0.7-1c-0.8-1-1.6-2-2.5-3
		c-0.3-0.5-0.6-1-1-1.5c-0.7-0.9-1.5-1.6-2.3-2.3c0,0,0,0,0.1,0C60.9,23,62.9,25,64.4,27.4z M61.2,22c1.7,0.6,3.1,1.8,3.7,3.6
		c-0.5-0.5-1-1-1.5-1.5C62.7,23.3,62,22.6,61.2,22z M64.2,29.3c0.3,0.3,0.5,0.7,0.8,1.1c-0.1,0.5-0.3,1-0.5,1.5
		C64.5,31,64.4,30.1,64.2,29.3z M62.9,28.4c0.5,0.9,0.8,2,0.8,3.1c-0.2-0.3-0.5-0.7-0.7-1C63.1,29.8,63,29.1,62.9,28.4z M63.5,33.5
		c-0.2,0.8-0.5,1.5-0.8,2.2c0,0.1-0.1,0.1-0.1,0.2c0-0.6-0.1-1.1-0.2-1.7c0.2-0.5,0.3-1,0.4-1.5C63,32.9,63.3,33.2,63.5,33.5z
		 M62.6,37.2c0.1-0.2,0.2-0.4,0.3-0.5c0.4-0.6,0.9-1.3,1.2-2c0.2,0.5,0.3,1.1,0.3,1.6c0,0.2,0,0.3,0,0.5c-0.5,1.2-1.2,2.3-2.1,3.3
		C62.5,39.1,62.6,38.1,62.6,37.2z M65.4,31.7c0,0.8-0.1,1.7-0.2,2.5c-0.1-0.3-0.3-0.6-0.4-0.9C65,32.8,65.2,32.3,65.4,31.7z
		 M62.3,46.8c-0.1,0-0.3,0.1-0.4,0.2c0.1-0.4,0.2-0.7,0.2-1c0.9-0.6,1.8-1.2,2.6-1.9C64,45.1,63.1,46,62.3,46.8z M64.8,45.2
		c-0.2,0.2-0.3,0.5-0.5,0.7c-0.1,0-0.1,0.1-0.2,0.1C64.3,45.8,64.6,45.5,64.8,45.2z M38.8,41.1c0.3,0.3,0.6,0.6,0.9,0.9
		c-0.2,0-0.5-0.1-0.8-0.2c-0.1,0-0.1-0.1-0.2-0.1C38.7,41.5,38.7,41.3,38.8,41.1z M38.7,37c0-0.2,0-0.5,0-0.7c0-0.2,0-0.4,0-0.6
		c0-0.4,0.1-0.8,0.2-1.2c0-0.1,0-0.1,0-0.1c0.1,0.4,0.2,0.8,0.4,1.1C39,36,38.8,36.5,38.7,37z M38.9,39.8
		C38.9,39.8,38.9,39.7,38.9,39.8c0-0.1,0-0.1,0-0.2c0.6,0.8,1.4,1.6,2.2,2.2C40.2,41.4,39.3,40.8,38.9,39.8z M40.7,42.8
		c0.2,0.2,0.5,0.3,0.8,0.5c-0.3-0.1-0.6-0.2-0.9-0.2c-0.1-0.1-0.2-0.2-0.4-0.2C40.4,42.8,40.5,42.8,40.7,42.8z M40.1,39.7
		c-0.4-0.4-0.7-0.8-1-1.3c0.2-0.7,0.4-1.3,0.6-2c0.6,0.9,1.4,1.6,2.4,2.1c-0.1,0.9,0,1.9,0.5,2.8c0.1,0.2,0.2,0.4,0.3,0.5
		c0,0-0.1,0-0.1,0C41.8,41.3,40.9,40.6,40.1,39.7z M39.7,34.5c0,0,0,0.1,0.1,0.1c0,0,0,0,0,0C39.7,34.6,39.7,34.6,39.7,34.5z
		 M40.9,36.1c0.3,0.2,0.7,0.4,1.1,0.4c0.1,0.2,0.2,0.4,0.4,0.5c-0.1,0.2-0.1,0.5-0.2,0.7c-0.9-0.5-1.6-1.2-2.1-2.1
		c0-0.1,0.1-0.2,0.1-0.2C40.4,35.7,40.7,35.9,40.9,36.1z M40.7,34.7c0.1-0.2,0.2-0.3,0.3-0.5c0,0,0,0,0,0l0.2,0.5
		c0.1,0.2,0.2,0.5,0.3,0.7c0,0-0.1,0-0.1,0C41.1,35.2,40.8,35,40.7,34.7z M47.9,23.7c0.5,0.1,0.9,0.2,1.4,0.4
		c-0.6,0.1-1.2,0.3-1.8,0.6c-0.4-0.1-0.7-0.1-1.1-0.2C47,24.2,47.4,24,47.9,23.7z M47.5,22.3c0,0,0.1,0,0.1,0
		c0.2-0.1,0.5-0.1,0.7-0.2c0,0,0.1,0.1,0.2,0.1C48.2,22.1,47.8,22.2,47.5,22.3z M50.9,28.6c-0.6,0.1-1.2,0.3-1.8,0.6
		c-0.2-0.1-0.5-0.3-0.7-0.4c0.1-0.2,0.3-0.4,0.4-0.6c0.1-0.1,0.2-0.3,0.4-0.4c0.1,0,0.2,0,0.4,0C50.1,27.9,50.6,28.2,50.9,28.6z
		 M50.2,24.9c0.1,0,0.3,0,0.4,0c0,0,0,0.1,0,0.1C50.6,24.9,50.4,24.9,50.2,24.9z M51.3,29.3c0.1,0.2,0.1,0.3,0.1,0.5
		c0,0.1,0,0.2,0,0.3c-0.4-0.1-0.9-0.1-1.3-0.1c-0.1-0.1-0.2-0.2-0.3-0.3C50.3,29.6,50.8,29.4,51.3,29.3z M51,26.9c0.1,0,0.2,0,0.3,0
		c0,0,0,0.1,0,0.1C51.2,27,51.1,27,51,26.9z M53.6,31.5c0.1,0,0.3,0.1,0.4,0.1c0.2,0.1,0.5,0.2,0.7,0.3c0,0.2-0.1,0.3-0.1,0.5
		c-0.2,0.4-0.5,0.8-0.8,1.1c-0.2-0.4-0.5-0.7-0.8-1.1C53.3,32.2,53.5,31.8,53.6,31.5z M53.6,27.7c0,0,0.1,0.1,0.1,0.1
		c0,0.1,0,0.1,0,0.2v0C53.6,28,53.6,27.8,53.6,27.7z M53.8,30.7C53.9,30.7,53.9,30.7,53.8,30.7C53.9,30.7,53.9,30.7,53.8,30.7
		C53.9,30.7,53.9,30.7,53.8,30.7z M55,30.2c0,0.2,0,0.4-0.1,0.6c-0.3-0.4-0.6-0.7-0.9-1.1c0-0.1,0.1-0.2,0.1-0.2
		C54.4,29.7,54.7,29.9,55,30.2z M54.4,28.4C54.4,28.3,54.4,28.3,54.4,28.4c0.1-0.1,0.1,0,0.2,0C54.5,28.4,54.5,28.4,54.4,28.4z
		 M60.4,35.5c0.1,0.2,0.2,0.5,0.3,0.7c-0.1,0.3-0.3,0.5-0.5,0.8c-0.1-0.3-0.2-0.6-0.2-0.9C60.1,35.9,60.2,35.7,60.4,35.5z
		 M59.9,34.8c0-0.1,0-0.3,0-0.4c0,0.1,0.1,0.2,0.1,0.2C60,34.7,59.9,34.7,59.9,34.8z M61,37.2c0,0.2,0.1,0.3,0.1,0.5
		c-0.2,0.2-0.4,0.5-0.6,0.7c0-0.1,0-0.2-0.1-0.3C60.6,37.8,60.8,37.5,61,37.2z M61.5,33.6c0,0.2,0.1,0.3,0.1,0.5
		c-0.1,0.4-0.3,0.7-0.4,1.1c-0.1-0.2-0.1-0.4-0.2-0.5C61.1,34.3,61.3,34,61.5,33.6z M61.5,30.5c-0.1-0.3-0.2-0.6-0.4-0.9
		c0.1,0.1,0.2,0.1,0.2,0.2c0.2,0.2,0.3,0.3,0.5,0.5c0,0.1,0,0.3-0.1,0.4C61.6,30.7,61.5,30.6,61.5,30.5z M61.3,38.8
		c0.1,0.5,0.1,0.9,0.2,1.4c-0.1,0.3-0.1,0.6-0.2,0.9c-0.2,0.2-0.4,0.3-0.6,0.5c0-0.7,0-1.4-0.1-2C60.9,39.3,61.1,39.1,61.3,38.8z
		 M61.5,36.2c0.1-0.2,0.2-0.4,0.3-0.6c0,0.4,0,0.8,0,1.1c0,0-0.1,0.1-0.1,0.1C61.6,36.7,61.6,36.5,61.5,36.2z M61.6,29
		c-0.4-0.4-0.8-0.7-1.3-1c-0.7-1.3-1.6-2.6-2.6-3.7c0.9,0.3,1.7,0.7,2.5,1.2c0.4,0.3,0.9,0.6,1.2,1c0.3,0.9,0.5,1.8,0.4,2.7
		C61.8,29.2,61.7,29.1,61.6,29z M56.8,30.8c0.1-0.2,0.1-0.3,0.2-0.5c0.7,0.7,1.3,1.4,1.8,2.1c0.2,0.6,0.3,1.1,0.3,1.7
		C58.5,33,57.7,31.8,56.8,30.8z M59.4,37.6c0,0.1,0.1,0.2,0.1,0.4c-0.2,0.2-0.3,0.4-0.5,0.6C59.2,38.2,59.3,37.9,59.4,37.6z
		 M55.1,33.5c0-0.1,0-0.1,0-0.2c0.1-0.1,0.1-0.1,0.2-0.2c0.5,1.3,0.6,2.7-0.3,3.9c-0.1-0.6-0.3-1.2-0.5-1.8
		C54.8,34.6,55,34,55.1,33.5z M55,27.1C55.1,27.1,55.1,27.1,55,27.1C55.1,27.1,55.1,27.1,55,27.1C55.1,27.1,55.1,27.1,55,27.1z
		 M55,40.5c1.1-0.6,2.2-1.4,3.1-2.3c0.1-0.1,0.3-0.3,0.4-0.4c-0.1,0.3-0.2,0.6-0.4,0.8c-0.5,0.9-1.1,1.6-1.9,2.3
		c-0.5,0.3-1,0.5-1.5,0.7C54.9,41.1,55,40.8,55,40.5z M56,38.9c-0.2,0.2-0.5,0.4-0.8,0.5c0-0.1,0-0.1,0-0.2c0-0.4,0-0.9,0-1.3
		c0.4-0.4,0.7-0.8,0.9-1.4c0.6-1.4,0.5-2.8-0.1-4.1c1.1,0.7,2,1.6,2.7,2.7c0.1,0.3,0.2,0.5,0.3,0.8C58.1,37.1,57.1,38.1,56,38.9z
		 M56.4,31.6c0.2,0.2,0.3,0.4,0.5,0.6c-0.2-0.1-0.4-0.3-0.6-0.4C56.3,31.7,56.4,31.6,56.4,31.6z M56.2,30.2l-0.2-0.2
		c0-0.2,0-0.4,0-0.6c0.1,0.1,0.2,0.2,0.3,0.3C56.3,29.9,56.3,30.1,56.2,30.2z M56.7,28.6C56.7,28.6,56.7,28.7,56.7,28.6
		c-0.1,0-0.3,0-0.4,0c-0.1-0.1-0.2-0.1-0.3-0.2v-0.5C56.2,28.1,56.5,28.4,56.7,28.6z M56.4,27.2c0.1,0,0.2,0,0.3,0.1
		c0,0.1,0,0.2,0,0.2C56.6,27.4,56.5,27.3,56.4,27.2z M57.5,28.4c0-0.3,0-0.6,0-0.8c0.8,0.3,1.5,0.6,2.2,1.1c0.2,0.4,0.4,0.9,0.6,1.3
		c-0.8-0.4-1.6-0.7-2.4-0.9C57.8,28.8,57.6,28.6,57.5,28.4z M59,27.3c-0.5-0.2-1-0.4-1.6-0.6c-0.1-0.6-0.3-1.3-0.7-1.9
		c-0.2-0.3-0.4-0.6-0.7-0.9c0,0,0.1,0,0.1,0C57.3,24.9,58.2,26.1,59,27.3z M56.5,26.4c-0.2,0-0.5-0.1-0.7-0.1
		c-0.2-0.8-0.5-1.6-1-2.2c-0.1-0.2-0.3-0.3-0.4-0.5c0.1,0,0.2,0,0.2,0C55.6,24.4,56.2,25.4,56.5,26.4z M45.9,25.9
		c-0.4,0-0.9-0.1-1.3-0.1c0.3-0.2,0.6-0.5,0.9-0.7c0.3,0,0.7,0.1,1,0.2c0,0,0,0,0,0C46.3,25.5,46,25.7,45.9,25.9z M46.2,32.3
		c0,0,0,0.1,0,0.1C46.1,32.4,46.1,32.4,46.2,32.3C46.1,32.4,46.2,32.3,46.2,32.3z M45.6,36.9L45.6,36.9
		C45.6,36.9,45.6,36.9,45.6,36.9C45.6,36.9,45.6,36.9,45.6,36.9z M45.6,36.1C45.6,36.1,45.6,36.1,45.6,36.1
		C45.6,36.1,45.6,36.1,45.6,36.1C45.6,36.1,45.6,36.1,45.6,36.1z M45.3,35.3C45.3,35.3,45.2,35.3,45.3,35.3c-0.1-0.3-0.1-0.7-0.1-1
		c0.1-0.3,0.2-0.6,0.3-0.9c0.1,0.2,0.2,0.4,0.3,0.6c-0.1,0.4-0.1,0.9-0.2,1.3C45.5,35.3,45.4,35.3,45.3,35.3z M45.1,30.4
		C45,30,45,29.6,45,29.2c0.1,0,0.3,0,0.4,0.1C45.3,29.6,45.1,30,45.1,30.4z M45.8,31.2c0,0,0-0.1,0-0.1c0.1,0,0.1,0,0.2,0
		C46,31,45.9,31.1,45.8,31.2z M46,30.2c0,0,0-0.1,0-0.2C46,30.1,46,30.1,46,30.2C46,30.2,46,30.2,46,30.2z M46.6,34.9
		c0,0-0.1,0-0.1,0c0-0.1,0-0.1,0-0.2C46.5,34.8,46.6,34.8,46.6,34.9z M46.4,35.8c0.3-0.1,0.6-0.2,0.9-0.3c0.3,0.2,0.6,0.4,0.9,0.5
		c0.2,0.1,0.4,0.2,0.6,0.2c-0.8,0.1-1.6,0.2-2.4,0.1C46.4,36.1,46.4,35.9,46.4,35.8z M50.3,35.5c-0.6,0.1-1.2,0-1.8-0.2
		c-0.1,0-0.2-0.1-0.3-0.2c0.4-0.2,0.8-0.4,1.1-0.6c0.5,0,1-0.1,1.4-0.3c0,0,0,0.1,0,0.1C50.6,34.7,50.5,35.1,50.3,35.5z M50.7,36.6
		c-0.2,1.2-0.7,2.3-1.7,2.6C49.6,38.4,50.2,37.5,50.7,36.6z M47.6,28.4c-0.1,0-0.2-0.1-0.4-0.1c0.2-0.2,0.5-0.3,0.7-0.4
		C47.9,28.1,47.8,28.3,47.6,28.4z M49.6,31.7c0.2,0.2,0.3,0.4,0.5,0.6c-1,0.3-2-0.2-2.6-1C48.2,31.1,49,31.1,49.6,31.7z M47.9,32.8
		c0.7,0.4,1.4,0.5,2,0.3c-0.3,0.2-0.6,0.4-0.9,0.6c-0.8,0-1.6-0.2-2.2-0.7c0.1-0.3,0.1-0.6,0.2-0.9C47.3,32.4,47.6,32.6,47.9,32.8z
		 M47.9,34.3c-0.2,0.1-0.3,0.1-0.4,0.2c-0.2-0.2-0.4-0.4-0.6-0.6C47.1,34.1,47.5,34.2,47.9,34.3z M46.8,30.1L46.8,30.1
		c0-0.1-0.1-0.3-0.1-0.4c0.1,0,0.2,0,0.2,0.1C46.9,29.8,46.9,30,46.8,30.1z M49.2,36.9c-0.7,0.6-1.6,1-2.5,1.3
		c-0.1-0.4-0.2-0.7-0.3-1.1C47.4,37.1,48.3,37.1,49.2,36.9z M48.7,38.2c-0.2,0.3-0.5,0.6-0.8,0.9c-0.1,0-0.1,0-0.2-0.1
		c-0.2-0.1-0.3-0.1-0.5-0.2C47.7,38.7,48.2,38.5,48.7,38.2z M48.1,40.1c0,0,0.1,0,0.1,0c0.8,0.1,1.8,0,2.7-0.1
		c-0.2,0.2-0.3,0.4-0.5,0.6c-0.2,0.1-0.3,0.2-0.5,0.3c-0.1,0-0.1,0-0.2,0C49.1,40.7,48.5,40.5,48.1,40.1
		C48.1,40.1,48.1,40.1,48.1,40.1z M50.5,41.7c0.4,0,0.9,0,1.3-0.1c0.8-0.1,1.5-0.4,2.3-0.7c-0.1,0.3-0.1,0.5-0.2,0.8
		c-1.2,0.3-2.4,0.3-3.5,0.1C50.4,41.8,50.5,41.8,50.5,41.7z M51.5,40.9c0.6-0.4,1.1-0.9,1.6-1.5c0.5-0.2,0.9-0.4,1.3-0.7
		c0,0.4,0,0.8-0.1,1.3C53.4,40.4,52.5,40.7,51.5,40.9z M54.1,36.3c0.1,0.5,0.2,1,0.2,1.4c-0.2,0.1-0.3,0.3-0.5,0.4
		C54.1,37.5,54.2,36.9,54.1,36.3z M52.8,30.4c-0.2,0-0.3-0.1-0.5-0.1c0-0.4,0-0.8,0-1.1c0.3,0.2,0.5,0.4,0.8,0.7
		C53,30.1,52.9,30.2,52.8,30.4z M52.2,27.4c0-0.1,0-0.2-0.1-0.4c0.1,0,0.1,0.1,0.2,0.1c0.1,0.2,0.2,0.3,0.3,0.5
		C52.4,27.5,52.3,27.4,52.2,27.4z M52.2,31.1C52.2,31.1,52.2,31.1,52.2,31.1C52.2,31.1,52.2,31.1,52.2,31.1
		C52.2,31.1,52.2,31.1,52.2,31.1C52.2,31.1,52.2,31.1,52.2,31.1z M52,25.7C52,25.7,52,25.7,52,25.7c-0.1-0.1-0.2-0.2-0.3-0.2
		c-0.1-0.1-0.1-0.3-0.1-0.4c0.5,0.2,0.9,0.4,1.3,0.7C52.6,25.7,52.3,25.7,52,25.7z M51.8,33.6c0.1-0.1,0.2-0.1,0.3-0.2
		c0.2,0.4,0.5,0.7,0.6,1.1c-0.1,0.1-0.3,0.2-0.4,0.3c0,0,0,0,0,0c-0.2,0.1-0.4,0.2-0.6,0.3c0-0.2,0-0.5-0.1-0.7c0,0,0-0.1,0-0.2
		C51.7,34,51.7,33.8,51.8,33.6z M51.6,36.1c0.2-0.1,0.4-0.2,0.5-0.3c0.3-0.2,0.6-0.3,0.9-0.5c0.1,0.3,0.2,0.6,0.2,0.8
		c-0.3,0.6-0.6,1.3-1,1.9c-0.2,0.3-0.4,0.7-0.7,1.1c-0.5,0.1-0.9,0.2-1.4,0.2c0.1-0.1,0.2-0.2,0.3-0.4
		C51.2,38.2,51.5,37.1,51.6,36.1z M49.9,26.3c-0.3,0-0.7,0.1-1,0.2c-0.1,0-0.1,0-0.2,0c-0.3-0.1-0.6-0.2-1-0.3
		c0.2-0.2,0.5-0.4,0.7-0.5c0.5,0.1,1.1,0.3,1.6,0.5C50,26.2,49.9,26.3,49.9,26.3z M49.2,23.3c0.2,0,0.4,0,0.6,0
		c0.1,0.1,0.1,0.2,0.2,0.2C49.7,23.4,49.4,23.3,49.2,23.3z M45.3,24.3c-0.3,0-0.6-0.1-0.8-0.1c0.7-0.3,1.3-0.5,2.1-0.6
		C46.1,23.8,45.7,24.1,45.3,24.3z M45.2,26.6c0,0-0.1,0.1-0.1,0.1c-1,0.2-1.9,0.6-2.7,1.1c0.3-0.3,0.6-0.6,0.9-0.9
		c0.1-0.1,0.2-0.2,0.3-0.3C44.1,26.6,44.7,26.6,45.2,26.6z M44.6,27.7C44.6,27.7,44.6,27.7,44.6,27.7c-0.2,0.1-0.3,0.2-0.5,0.2
		c-0.1,0-0.1,0-0.2,0C44.1,27.9,44.4,27.8,44.6,27.7z M44.6,31.4c0.1,0.3,0.3,0.5,0.4,0.8c-0.1,0.1-0.1,0.2-0.2,0.3
		c-0.6,0.8-1.2,1.6-1.7,2.5c-0.3-0.2-0.7-0.5-1-0.8c-0.2-0.1-0.3-0.3-0.5-0.5c-0.1-0.2-0.1-0.3-0.1-0.5
		C42.4,32.5,43.4,31.8,44.6,31.4z M43.3,36.9c0-0.1,0.1-0.3,0.1-0.4c0.2,0,0.4-0.1,0.6-0.1c0.1,0,0.2,0.1,0.3,0.1
		c0.1,0.6,0.2,1.1,0.4,1.6C44.2,37.8,43.7,37.4,43.3,36.9z M43.6,38.3c-0.2,0-0.4-0.1-0.6-0.2c0-0.1,0-0.2,0.1-0.3
		C43.2,37.9,43.4,38.1,43.6,38.3z M43.9,35.5c0.1-0.3,0.3-0.5,0.4-0.8c0,0.3-0.1,0.6-0.1,0.9c0,0,0,0-0.1,0
		C44.1,35.6,44,35.5,43.9,35.5z M42.9,35.8c-0.1,0-0.2,0-0.3,0c-0.1-0.1-0.1-0.2-0.2-0.3C42.6,35.6,42.7,35.7,42.9,35.8z M40.4,33.6
		c-0.1,0.1-0.1,0.1-0.1,0.2c-0.1-0.3-0.2-0.7-0.2-1c0.1,0.2,0.3,0.5,0.4,0.7C40.4,33.5,40.4,33.6,40.4,33.6z M43.1,43.1
		c0.2,0.1,0.3,0.2,0.5,0.2c-0.3-0.1-0.5-0.2-0.8-0.3C42.8,43,43,43.1,43.1,43.1z M42.9,38.9c0.2,0.1,0.4,0.1,0.6,0.2
		c0.5,0.1,1,0.1,1.5,0.1c0.1,0,0.2,0.1,0.3,0.1c0.2,0.4,0.5,0.8,0.9,1.2c-0.8,0.5-1.6,0.9-2.6,1.2C43.1,40.9,42.9,39.9,42.9,38.9z
		 M46.8,41.1c0.1,0.1,0.3,0.2,0.4,0.3c0.2,0.1,0.4,0.3,0.6,0.4c-1.2,0.4-2.4,0.5-3.6,0.5c0,0,0,0,0,0C45.1,42,46,41.6,46.8,41.1z
		 M45.3,44.6c0.2,0,0.5,0,0.8,0c0.2,0,0.4,0,0.6,0c0.1,0,0.2,0.1,0.3,0.1c-0.7,0-1.3-0.1-2-0.2C45,44.6,45.2,44.6,45.3,44.6z
		 M45.4,43.1c0.6-0.1,1.2-0.2,1.8-0.3c0.5-0.1,0.9-0.2,1.4-0.4C47.6,43.1,46.5,43.5,45.4,43.1z M49.6,42.5c1.2,0.3,2.4,0.4,3.6,0.2
		c-0.2,0.1-0.4,0.2-0.6,0.2c-1.8,0.6-3.6,0.9-5.5,0.9C48.1,43.7,48.9,43.1,49.6,42.5z M52.6,44.6c0,0-0.1,0.1-0.1,0.1
		c-0.1,0-0.2,0-0.4,0C52.3,44.7,52.4,44.7,52.6,44.6z M52.9,45.5c1.7-0.1,3.3-0.5,4.9-1.2c0,0,0,0,0,0.1c-1.2,0.7-2.4,1.2-3.6,1.8
		c-0.8,0.3-1.6,0.7-2.5,1C52.2,46.6,52.6,46.1,52.9,45.5z M53.9,44.6c-0.2,0-0.3,0-0.5,0.1c0.1-0.2,0.2-0.3,0.3-0.5
		c2-0.8,4-2,5.7-3.5c-0.2,0.8-0.5,1.6-0.8,2.3C57.1,43.8,55.5,44.4,53.9,44.6z M59.3,39.4c0.1-0.1,0.2-0.2,0.3-0.4v0.1
		C59.5,39.3,59.4,39.4,59.3,39.4z M59.5,32c0-0.1-0.1-0.2-0.1-0.3c-0.2-0.6-0.5-1.1-0.8-1.7c0.8,0.3,1.5,0.6,2.2,1
		c0.1,0.4,0.3,0.8,0.4,1.3c-0.1,0.3-0.2,0.6-0.4,0.8c-0.1,0.2-0.2,0.4-0.3,0.6C60.2,33.2,59.8,32.6,59.5,32z M59.9,41.8
		c0,0.1,0,0.2,0,0.4c-0.1,0-0.1,0.1-0.2,0.1C59.8,42.2,59.9,42,59.9,41.8z M59.9,47.2c0.4-0.2,0.8-0.4,1.2-0.7
		c0,0.3-0.1,0.6-0.2,0.8c-0.4,0.2-0.8,0.3-1.2,0.4C59.8,47.6,59.8,47.4,59.9,47.2z M60.2,46.1c0-0.1,0.1-0.3,0.1-0.4
		c0.5-0.9,0.9-1.8,1.3-2.7c0,0.8-0.1,1.7-0.2,2.5C60.9,45.7,60.6,45.9,60.2,46.1z M61.4,48.7c0.4-0.4,0.9-0.8,1.3-1.2
		c0.1-0.1,0.3-0.1,0.5-0.2c-0.6,0.6-1.2,1.2-1.9,1.7C61.3,48.9,61.3,48.8,61.4,48.7z M62,32.4C62,32.4,62,32.4,62,32.4
		c0-0.1,0-0.1,0-0.1L62,32.4z M55.4,21.7c-0.4,0-0.8-0.1-1.2-0.1c-0.2-0.1-0.5-0.3-0.8-0.4c0.4,0,0.9,0,1.3,0
		c0.5,0.2,1.1,0.4,1.6,0.7C56.1,21.8,55.8,21.8,55.4,21.7z M54.8,20.4c-0.5-0.2-1-0.3-1.4-0.4c0.7,0.1,1.4,0.2,2.1,0.4
		c0,0,0.1,0,0.1,0C55.4,20.4,55.1,20.4,54.8,20.4z M53.2,17.2c-0.1,0-0.2-0.1-0.2-0.1c-0.1-0.3-0.3-0.6-0.4-0.8
		c0.3,0.1,0.7,0.2,1,0.4C53.5,16.8,53.4,17,53.2,17.2z M53.4,22.6c-0.1,0-0.3,0-0.4,0c-0.1,0-0.2-0.1-0.3-0.2c0.1,0,0.3,0,0.4,0
		C53.1,22.5,53.2,22.6,53.4,22.6z M52.8,23.4c0.3,0.2,0.7,0.4,0.9,0.6c0.6,0.5,0.9,1.2,1.1,1.9c-0.7-0.5-1.4-0.9-2.1-1.3
		c-0.1-0.1-0.2-0.1-0.2-0.1c-0.1-0.1-0.2-0.1-0.3-0.1c-0.4-0.2-0.8-0.3-1.1-0.5c-0.1-0.2-0.2-0.5-0.4-0.7c0.5,0,1.1,0,1.6,0.1
		C52.5,23.4,52.6,23.4,52.8,23.4z M51.7,21.8c-0.4,0.1-0.9,0.2-1.3,0.3c-0.3,0-0.5,0-0.8,0c0,0,0,0-0.1-0.1
		c-0.1-0.1-0.2-0.1-0.2-0.2c0.5-0.1,1.1-0.2,1.6-0.3C51.2,21.6,51.5,21.7,51.7,21.8z M51.2,20.5c0,0,0.1,0,0.1,0
		c0.2,0,0.4,0,0.6,0.1c-0.1,0-0.2,0-0.4,0C51.5,20.6,51.3,20.5,51.2,20.5z M48.9,18.6c-0.8,0-1.5,0-2.3,0.1c0.9-0.2,1.8-0.4,2.7-0.4
		c0.2,0,0.5,0,0.7,0.1c0.2,0,0.3,0.1,0.5,0.1C50,18.4,49.5,18.5,48.9,18.6z M47.2,21.4c0.1,0,0.1,0.1,0.2,0.1
		c-0.8,0.3-1.7,0.6-2.5,1c-0.1,0-0.2,0-0.4,0c0.1,0,0.1-0.1,0.2-0.1C45.5,21.9,46.3,21.6,47.2,21.4z M43.2,24.9
		c0.4,0,0.8,0.1,1.1,0.1c-0.4,0.3-0.7,0.6-1.1,0.9c-0.5,0.1-1.1,0.2-1.6,0.3C42.1,25.7,42.6,25.3,43.2,24.9z M41.8,24h-0.4
		c0.2-0.2,0.4-0.5,0.6-0.7c0.1,0,0.2,0,0.3-0.1C42.1,23.5,41.9,23.8,41.8,24z M42.2,26.9c-0.3,0.3-0.6,0.7-0.9,1.1
		c0-0.2,0.1-0.5,0.1-0.7C41.6,27.1,41.9,27,42.2,26.9z M42.4,29.6c0.4-0.2,0.8-0.4,1.2-0.6c0.2,0,0.4,0.1,0.6,0.1c0,0.5,0,1,0.1,1.6
		c-1.1,0.4-2.1,1-2.9,1.8c-0.1-0.5-0.2-1.1-0.2-1.6c0-0.2,0-0.3,0-0.5C41.6,30.1,42,29.8,42.4,29.6z M40.3,25.5
		c0.2-0.2,0.3-0.5,0.5-0.7c0.1,0,0.2,0,0.4,0C40.9,25.1,40.6,25.3,40.3,25.5z M40.4,31.6c-0.1-0.2-0.2-0.4-0.2-0.6
		c0,0,0-0.1,0.1-0.1c0,0,0,0,0,0C40.4,31.1,40.4,31.4,40.4,31.6z M40.3,29.3c-0.1,0.1-0.1,0.2-0.2,0.3c0.1-0.3,0.1-0.5,0.2-0.8h0
		C40.3,29,40.3,29.1,40.3,29.3z M40,27.3c-0.1,0.1-0.2,0.2-0.3,0.4c-0.1,0.1-0.1,0.3-0.2,0.4c-0.1,0-0.2,0-0.4,0
		c0.3-0.4,0.7-0.9,1.1-1.3C40.2,27,40.1,27.2,40,27.3z M39.3,28.9c-0.1,0.3-0.1,0.6-0.1,1c0,0.3-0.1,0.6-0.1,0.8
		c-0.4,0.3-0.8,0.6-1.1,0.9c0.2-0.9,0.4-1.7,0.7-2.6C38.9,29,39.1,28.9,39.3,28.9z M38.8,32c-0.3,0.7-0.5,1.4-0.7,2.2
		c-0.2,0.7-0.3,1.4-0.3,2.1c0,0.5-0.1,0.9,0,1.4c-0.1-0.2-0.1-0.4-0.2-0.6c0-1.4,0-2.8,0.2-4.2C38.1,32.5,38.5,32.2,38.8,32z
		 M38,40.1c0,0.1,0,0.3,0,0.4c0-0.2-0.1-0.5-0.1-0.7C37.9,39.9,38,40,38,40.1z M37.7,42.5c0,0.1,0.1,0.3,0.2,0.4
		c-0.1-0.2-0.2-0.3-0.3-0.5C37.6,42.5,37.7,42.5,37.7,42.5z M39.7,46.8c0.9,1,1.8,1.8,3,2.5c1.2,0.7,2.5,1,3.8,1.1
		c-0.6,0.2-1.3,0.3-2,0.1c-1.5-0.2-2.8-1-3.8-2.1C40.3,47.8,40,47.3,39.7,46.8z M44.2,49.1c-0.5-0.2-1-0.4-1.4-0.7
		c0.7,0.3,1.4,0.5,2.1,0.6c0.7,0.2,1.4,0.4,2.1,0.6C46.1,49.5,45.1,49.4,44.2,49.1z M50.6,48.4c2-0.6,4-1.5,5.9-2.5
		c-0.4,0.4-0.8,0.8-1.2,1.2c-0.8,0.7-1.7,1.3-2.7,1.9c-0.4,0.1-0.9,0.2-1.3,0.2c-0.5,0-0.9,0-1.4,0C50.1,48.9,50.3,48.6,50.6,48.4z
		 M58.4,44.9c0.5-0.3,0.9-0.5,1.4-0.8c-0.1,0.5-0.2,1-0.3,1.4c-0.4,0.5-0.7,1.1-1.1,1.5c-1.1,0.5-2.3,0.9-3.4,1.3
		C56.2,47.4,57.4,46.2,58.4,44.9z M58.8,47.7c0,0.1-0.1,0.2-0.1,0.3c0,0-0.1,0-0.1,0c0,0-0.1,0-0.1,0C58.6,48,58.7,47.9,58.8,47.7
		C58.8,47.8,58.8,47.7,58.8,47.7z M59.6,51.1c-0.1,0.2-0.2,0.4-0.3,0.6c-0.9,0.6-1.8,1.1-2.8,1.6c0.3-0.3,0.5-0.7,0.8-1
		C58.1,51.9,58.9,51.5,59.6,51.1z M59.2,50.4c0.3-0.2,0.7-0.5,1-0.8c0,0.1,0,0.1-0.1,0.2C59.8,50.1,59.5,50.2,59.2,50.4z M59.9,48.9
		c-0.3,0.3-0.7,0.5-1,0.8c0.2-0.3,0.3-0.6,0.4-1c0.2-0.1,0.5-0.1,0.7-0.2c0.2-0.1,0.4-0.2,0.7-0.2C60.4,48.5,60.2,48.7,59.9,48.9z
		 M62.2,44.9c0.1-0.5,0.1-0.9,0.1-1.4c0-0.5,0-1,0-1.5c0.8-0.8,1.5-1.6,2-2.5c0.4-0.8,0.7-1.6,0.8-2.4c0-0.1,0.1-0.2,0.1-0.3
		c0.2,0.7,0.4,1.4,0.6,2.1c0.2,0.8,0.3,1.5,0.4,2.3c-0.1,0.3-0.2,0.5-0.4,0.8C64.8,43,63.5,44,62.2,44.9z M67.7,40.1
		c0.2-0.8,0.2-1.6,0.2-2.5c0.2-1.9-0.1-3.9-0.6-5.7c-0.3-1.2-0.8-2.3-1.4-3.4v-0.1c1.9,2.9,3,6.2,3.1,9.8
		C68.7,38.9,68.2,39.5,67.7,40.1z M68.7,40c-0.4,1.1-0.9,2.2-1.3,3.3c-0.1,0.2-0.1,0.3-0.2,0.5c0,0.1-0.1,0.2-0.1,0.2
		c0.1-0.6,0.1-1.2,0.1-1.8c0.1-0.2,0.1-0.4,0.2-0.6C67.8,41.1,68.3,40.6,68.7,40z M66.3,31.1c0-0.1-0.1-0.2-0.1-0.2
		c0-0.1,0-0.1,0-0.2C66.2,30.8,66.2,30.9,66.3,31.1z M66.2,32.6c0.6,1.4,1,3,1,4.5c0,0.8-0.2,1.5-0.3,2.3c-0.1-0.4-0.2-0.7-0.3-1.1
		c-0.2-0.9-0.5-1.9-0.9-2.8C66,34.6,66.1,33.6,66.2,32.6z M66.3,44.3c0,0.1,0,0.2-0.1,0.3c0,0.2-0.1,0.3-0.1,0.5
		c-0.1,0.1-0.2,0.1-0.3,0.2C65.9,44.9,66.1,44.6,66.3,44.3z M67.5,48.6c1.2-1.6,2.1-3.4,2.8-5.4c0,0,0.1-0.1,0.1-0.1
		c-0.3,1.1-0.8,2.2-1.2,3.3c-0.9,2-2.1,3.8-3.5,5.3C66.4,50.8,67,49.7,67.5,48.6z M70.3,38.8c-0.1,0.7-0.3,1.3-0.5,2
		c0,0.1-0.1,0.2-0.1,0.2c0-0.3,0.1-0.5,0.1-0.8C70,39.8,70.2,39.3,70.3,38.8z M69.7,24.2c-0.2-0.4-0.5-0.9-0.7-1.3
		c0.1,0.1,0.2,0.2,0.3,0.3C69.4,23.5,69.6,23.9,69.7,24.2L69.7,24.2z M66.9,22.8c0.2,0.4,0.5,0.8,0.7,1.2c-0.3-0.2-0.6-0.3-0.9-0.5
		c-0.1,0-0.2-0.1-0.3-0.2c-0.5-0.7-1.1-1.4-1.7-2.1C65.5,21.7,66.2,22.3,66.9,22.8z M66.8,21.2c0.3,0.4,0.6,0.8,0.8,1.2c0,0,0,0,0,0
		C67.4,22,67.1,21.6,66.8,21.2z M65.4,18.5C65.4,18.5,65.4,18.5,65.4,18.5C65.5,18.6,65.5,18.6,65.4,18.5c0.1,0.1,0.1,0.1,0.2,0.2
		C65.5,18.6,65.4,18.6,65.4,18.5z M64.6,16c0.1,0.1,0.2,0.1,0.3,0.2c0.2,0.2,0.3,0.3,0.5,0.5c0.1,0.1,0.2,0.2,0.3,0.3
		C65.3,16.7,65,16.4,64.6,16z M65.3,20.6c-0.8-0.6-1.7-1.1-2.5-1.6c-0.3-0.3-0.6-0.6-0.8-0.8c0.7,0.4,1.5,0.7,2.2,1.1
		C64.5,19.7,64.9,20.2,65.3,20.6z M61.2,15.5c-1.3-0.8-2.7-1.4-4.1-2c-0.8-0.3-1.5-0.6-2.3-0.8c-0.1-0.3-0.2-0.7-0.4-1
		c0.3,0.1,0.5,0.2,0.8,0.2c1.1,0.4,2.3,0.8,3.4,1.3c1.8,0.9,3.6,2,5.1,3.3c0.1,0.2,0.3,0.3,0.4,0.5C63.2,16.3,62.2,15.9,61.2,15.5z
		 M61,20.5c0.2,0.2,0.5,0.3,0.7,0.5c-1.1-0.5-2.3-0.9-3.5-1.3c-0.1,0-0.2-0.1-0.2-0.1c-0.9-0.6-1.9-1.1-3-1.5
		c-0.4-0.2-0.8-0.4-1.1-0.6c0.1-0.2,0.2-0.4,0.4-0.7C56.7,17.9,59,19.2,61,20.5z M54.2,14.7c-1.6-0.4-3.1-0.8-4.7-1
		c1.5,0,3,0.2,4.5,0.5c0.1,0,0.2,0,0.2,0.1C54.2,14.4,54.2,14.5,54.2,14.7z M44.9,17.4c-0.3,0-0.7,0.1-1,0.2c-0.5,0.1-1,0.2-1.5,0.3
		c-0.1-0.1-0.1-0.3-0.2-0.4C43.1,17.4,44,17.4,44.9,17.4z M42.9,21.4c-0.5,0.4-0.9,0.8-1.3,1.2c-0.4,0.1-0.8,0.2-1.2,0.3
		c-0.2,0-0.3,0.1-0.5,0.2C40.7,22.4,41.8,21.8,42.9,21.4z M40.7,23.7c-0.1,0.1-0.2,0.3-0.3,0.4c-0.3,0-0.6,0-0.8,0.1c0,0,0,0,0.1,0
		C40,23.9,40.3,23.8,40.7,23.7z M39.8,24.9C39.8,24.9,39.8,24.9,39.8,24.9c-0.6,0.9-1,1.8-1.4,2.7c-0.2,0.3-0.5,0.6-0.7,0.9
		c-0.6,0.2-1.1,0.4-1.6,0.7c0.2-0.6,0.4-1.1,0.6-1.7c0.3-0.7,0.7-1.4,1.1-2.1c0.1-0.1,0.1-0.1,0.2-0.2C38.7,25,39.2,24.9,39.8,24.9z
		 M37.2,24.5c-0.2,0.1-0.5,0.1-0.7,0.2c0.5-0.8,1.1-1.4,1.8-2c0.3-0.2,0.5-0.3,0.8-0.4c0,0,0,0,0.1,0C38.4,22.9,37.8,23.7,37.2,24.5
		z M33.7,26.7c0.3-0.2,0.6-0.4,1-0.5c-1,2.2-1.6,4.6-1.7,7.1c-0.1,0.5-0.2,0.9-0.2,1.4c-0.7-1.8-0.9-3.7-0.6-5.6
		c0.3-0.6,0.7-1.2,1.1-1.8C33.4,27.1,33.6,26.9,33.7,26.7z M34.1,36.9c-0.1-0.2-0.2-0.3-0.3-0.5c-0.1-1-0.1-2,0-3
		c0-0.2,0.1-0.3,0.1-0.5C33.7,34.3,33.8,35.6,34.1,36.9z M35.3,43.5c0.3,0.8,0.7,1.5,1.1,2.2c1.7,2.7,4.1,5,7.3,5.7
		c2.9,0.7,5.9,0,8.6-1.4c1,0,2-0.2,2.9-0.3c-3.4,2-7.7,2.6-11.7,1.9c-0.9-0.2-1.8-0.4-2.7-0.7C38.3,49.1,36.5,46.5,35.3,43.5z
		 M57.3,49.3c0.3-0.1,0.7-0.2,1-0.3c-0.3,0.6-0.6,1.2-0.9,1.7c-0.9,0.6-1.9,1.2-2.9,1.7c-3.4,1-7.1,1.1-10.4,0.1
		c-0.2,0-0.3-0.1-0.5-0.2C48.4,53.1,53.5,52.4,57.3,49.3z M55,53.1c0.3-0.1,0.6-0.2,0.9-0.3c-0.3,0.3-0.6,0.7-0.9,1
		C54,54,53,54.3,52,54.5C53,54,54,53.6,55,53.1z M54.8,58.8c1.3-0.1,2.5-0.2,3.8-0.4c-0.2,0.1-0.3,0.3-0.5,0.4
		c-1.2,0.2-2.4,0.4-3.6,0.4c-0.2,0-0.5,0-0.7,0C54.2,59.1,54.5,58.9,54.8,58.8z M56.4,57.1c-0.1,0-0.2,0-0.3,0.1
		c0.2-0.2,0.4-0.4,0.6-0.6c0.2-0.2,0.5-0.5,0.7-0.7c0.7-0.2,1.4-0.5,2.1-0.8C58.5,55.8,57.5,56.5,56.4,57.1z M62.5,53.4
		c0.9-0.6,1.7-1.2,2.4-1.9c-0.4,0.5-0.7,1-1.1,1.5c-0.3,0.4-0.6,0.8-1,1.2c-1.1,0.7-2.3,1.4-3.5,1.9C60.4,55.4,61.5,54.4,62.5,53.4z
		 M60.9,56.3c-0.1,0-0.1,0.1-0.2,0.2c-0.2,0.1-0.5,0.2-0.8,0.3C60.2,56.6,60.5,56.5,60.9,56.3z M60.2,58c0.2-0.1,0.5-0.1,0.7-0.2
		c0.8-0.2,1.6-0.5,2.4-0.8c0,0,0,0,0,0c-1.1,0.6-2.3,1-3.5,1.3C59.9,58.3,60,58.1,60.2,58z M72.4,28.4c0.9,2.5,1.6,5.2,1.9,7.9
		c-0.3,1.2-0.8,2.2-1.5,3.2c0-1.4-0.1-2.8-0.2-4.2c0-0.2,0-0.4,0-0.6c0-1.2,0-2.4-0.1-3.5c0-1-0.1-1.9-0.4-2.8
		c0-0.2-0.1-0.4-0.1-0.6C72.2,28,72.3,28.2,72.4,28.4z M72.8,40.9c0.7-0.8,1.2-1.7,1.7-2.6c0,0.4,0,0.7,0,1.1
		c-0.6,1.9-1.2,3.7-2,5.4C72.6,43.5,72.7,42.2,72.8,40.9z M70,21.1c-0.1-0.1-0.3-0.3-0.5-0.4c-0.6-0.9-1.1-1.8-1.8-2.7
		c0.4,0.3,0.9,0.6,1.3,0.9c2.5,1.8,4.8,4,6.2,6.8c0.1,0.1,0.1,0.3,0.2,0.4c0.1,0.5,0.2,1,0.2,1.5c0,0.4,0.1,0.8,0.1,1.1
		C74.3,25.8,72.4,23.2,70,21.1z M66.4,16.1c-1.1-1.4-2.3-2.7-3.5-3.9c0,0,0,0-0.1,0c0.4,0.2,0.8,0.3,1.2,0.5c3,1.4,5.9,3.2,8.1,5.8
		c1.2,1.4,2.1,3.1,2.7,4.8C72.7,20.3,69.7,18,66.4,16.1z M63.2,13.6c-1-0.8-2.1-1.6-3.3-2.3c0,0,0.1-0.1,0.1-0.2
		c0.3,0.1,0.6,0.2,1,0.3C61.8,12.2,62.5,12.9,63.2,13.6z M60.1,12.9c-0.3-0.2-0.7-0.3-1-0.5c-1.2-0.6-2.5-1.1-3.8-1.5
		c-0.5-0.2-1-0.3-1.5-0.5c-0.1-0.2-0.3-0.4-0.4-0.5c1,0,2,0.2,3,0.4c0.2,0.1,0.5,0.2,0.7,0.3C58.1,11.4,59.1,12.1,60.1,12.9z
		 M55.6,8.7l-0.4,0c-2-1.1-4.1-2-6.2-2.7c0.1,0,0.1,0,0.2,0c3.3,0.1,6.3,1.3,9,3.2C57.3,9,56.4,8.8,55.6,8.7z M52.8,8.3
		C52.2,8.1,51.6,8,51,7.8c-0.5-0.1-1-0.2-1.6-0.3c-0.9-0.3-1.9-0.6-2.8-0.8c-0.5-0.1-1-0.2-1.5-0.3c0.6-0.1,1.2-0.2,1.8-0.3
		C49,6.7,50.9,7.4,52.8,8.3z M52.3,10.1c-0.2,0-0.3-0.1-0.4-0.1c0.1,0,0.2,0,0.3,0C52.2,10,52.3,10.1,52.3,10.1z M53.4,11.3
		c0.2,0.3,0.4,0.6,0.5,1c-1.8-0.6-3.7-1-5.6-1.2c0.3-0.1,0.5-0.3,0.8-0.4C50.6,10.8,52,11,53.4,11.3z M45,10.9c-0.7,0-1.3,0-2,0.1
		c0.8-0.1,1.6-0.2,2.4-0.3L45,10.9z M43.6,13.1c-0.1,0-0.2,0-0.2,0c0,0,0,0,0,0c0.2-0.2,0.4-0.4,0.6-0.5c0.2,0,0.4,0,0.5,0
		C44.1,12.7,43.9,12.9,43.6,13.1z M44.4,14.2c-0.4,0-0.7,0-1.1,0.1c0.1-0.1,0.2-0.1,0.3-0.2c0.1,0,0.2,0,0.3,0
		C44,14,44.2,14.1,44.4,14.2z M45.6,14.9c-1.2,0.1-2.4,0.3-3.6,0.6c0-0.1,0-0.2,0.1-0.2c0,0,0-0.1,0-0.1
		C43.3,15,44.4,14.9,45.6,14.9z M42.4,12.9c-0.2,0-0.3-0.1-0.5-0.1c0.2,0,0.5-0.1,0.7-0.1C42.6,12.7,42.5,12.8,42.4,12.9z M42,19.4
		c-0.6,0.1-1.2,0.2-1.8,0.4c-0.6,0.1-1.2,0.3-1.8,0.5c1-0.5,2.1-0.9,3.2-1.2C41.7,19.2,41.8,19.3,42,19.4z M41.1,17.6
		c0.1,0,0.2,0,0.2,0c0.1,0.2,0.1,0.4,0.2,0.5C41.5,18,41.3,17.8,41.1,17.6z M40.7,16.8C40.7,16.8,40.7,16.8,40.7,16.8
		c0.1-0.1,0.3-0.2,0.5-0.2c0,0,0,0.1,0,0.1C41,16.8,40.9,16.8,40.7,16.8z M40.6,13.5c-1.4,0.4-2.6,1.1-3.7,2c-1,0.5-2,1.2-2.9,1.9
		c0.7-0.8,1.4-1.6,2.3-2.2c0.2-0.2,0.4-0.3,0.7-0.5c0.9-0.5,1.8-0.9,2.7-1.2c0.4,0,0.8,0,1.2,0.1C40.8,13.5,40.7,13.5,40.6,13.5z
		 M35.2,18.1c1.4-1,2.9-1.7,4.5-2.3c0,0.1,0,0.1,0,0.2c-0.2,0.2-0.5,0.4-0.7,0.6c-1,0.5-2,1-2.9,1.7c-0.9,0.4-1.7,1-2.5,1.6
		C34.2,19.2,34.7,18.6,35.2,18.1z M35.8,19.5c0.1-0.1,0.3-0.2,0.4-0.3c-0.6,0.6-1.2,1.3-1.8,1.9c-0.5,0.6-1,1.2-1.5,1.9
		c-0.2,0.2-0.5,0.4-0.7,0.6C33.2,22,34.4,20.6,35.8,19.5z M33.3,23.9c0.2-0.2,0.4-0.4,0.7-0.6c0.3-0.3,0.7-0.5,1.1-0.7
		c-0.3,0.2-0.5,0.5-0.7,0.7c-1,1.1-1.8,2.3-2.3,3.7c-0.5,0.4-0.9,0.8-1.3,1.2C31.4,26.6,32.3,25.2,33.3,23.9z M28.6,29.1
		c-0.5,1.2-0.9,2.4-1.2,3.7c0.1-1,0.2-2,0.5-3c0.9-2.8,2.3-5.3,4.2-7.5C30.6,24.4,29.5,26.8,28.6,29.1z M27.8,37.2
		c0.1-0.4,0.1-0.8,0.2-1.2c0.1,1,0.2,2.1,0.5,3.1c0,0.2,0,0.3,0,0.5C28.2,38.7,27.9,38,27.8,37.2z M28.4,43.3
		c-0.4-0.9-0.7-1.8-1-2.7c0-0.4,0-0.8,0.1-1.3c0.2,0.8,0.5,1.6,0.8,2.3C28.3,42.2,28.4,42.7,28.4,43.3z M29.6,24.3
		c-0.8,1.4-1.6,2.8-2.1,4.3c-0.1,0.3-0.2,0.6-0.3,0.9c0.3-1.3,0.8-2.6,1.4-3.8c0.9-1.8,2.1-3.5,3.5-5C31.2,21.9,30.3,23.1,29.6,24.3
		z M28.7,49.6C28.7,49.6,28.7,49.6,28.7,49.6c-0.1-0.2-0.2-0.4-0.2-0.6c0.4,0.4,0.9,0.8,1.3,1.2c0.2,0.2,0.3,0.3,0.5,0.5
		C29.8,50.3,29.3,49.9,28.7,49.6z M29,52.4c-0.1-0.1-0.2-0.1-0.3-0.2c-0.1-0.4-0.2-0.8-0.3-1.2C28.6,51.5,28.8,52,29,52.4z
		 M29.4,51.3c0-0.1-0.1-0.2-0.1-0.3c2.7,2.1,5.8,3.9,8.9,5.3c-2.7-0.6-5.4-1.6-7.7-3C30,52.8,29.7,52.1,29.4,51.3z M35.6,52.5
		c-1.7-1.3-2.9-3.2-3.8-5.1c0.4,0.3,0.8,0.6,1.2,0.8c0.9,1.1,1.8,2.1,2.9,3c0.9,0.9,1.9,1.7,2.9,2.4c0.3,0.2,0.6,0.4,1,0.6
		C38.3,53.8,36.9,53.2,35.6,52.5z M45.9,56.8c0.5,0,1-0.1,1.4-0.1c1,0.2,2,0.2,3.1,0.2c-0.5,0.2-1,0.4-1.5,0.6
		c-1.3-0.2-2.7-0.4-4-0.7C45.3,56.8,45.6,56.8,45.9,56.8z M46.3,59.2c1,0.2,2,0.4,3,0.5c-1.8,0.3-3.7,0.5-5.6,0.4
		c-1-0.1-1.9-0.3-2.9-0.6C42.6,59.7,44.5,59.5,46.3,59.2z M40.6,62.2c0-0.3,0-0.6,0-0.9c1.2,0.4,2.4,0.7,3.6,1h-1.4
		C42.1,62.3,41.4,62.2,40.6,62.2z M56.6,62.4c-0.2,0.1-0.5,0.2-0.7,0.3c-0.3,0-0.6,0-0.8,0C55.6,62.7,56.1,62.5,56.6,62.4z M56,61.8
		c0.2-0.2,0.3-0.3,0.5-0.5c1.7-0.6,3.4-1.2,5-2.1c0.4,0,0.8,0.1,1.2,0.1c-0.7,0.4-1.5,0.8-2.2,1.2C59.1,61.1,57.5,61.5,56,61.8z
		 M63.6,60.3c0.5-0.2,0.9-0.4,1.4-0.6c0.1,0,0.1,0,0.2,0c0,0,0,0,0.1,0c-0.5,0.5-0.9,0.9-1.4,1.4c-1.1,0.4-2.3,0.8-3.6,1
		C61.4,61.6,62.5,61,63.6,60.3z M70.7,50.4c0.2-0.4,0.4-0.8,0.5-1.2c0.2-0.4,0.3-0.9,0.5-1.3c0.9-1.5,1.7-3.1,2.4-4.8
		c-0.1,0.5-0.2,0.9-0.4,1.4C73,46.6,72,48.6,70.7,50.4z M74.6,46.7c0.2-0.5,0.4-1,0.6-1.5c0.5-0.9,1-1.8,1.5-2.7
		c0,0.2-0.1,0.4-0.1,0.6c-0.8,2.1-1.7,4-2.9,5.9c-0.1,0.2-0.2,0.3-0.3,0.5C73.8,48.6,74.2,47.7,74.6,46.7z M76,36.1
		c0.1-0.6,0.2-1.2,0.3-1.9c0-0.3,0.1-0.6,0.1-0.9c0.1,0.5,0.3,1,0.4,1.5c0,0.5-0.1,1-0.2,1.6c-0.2,1.3-0.5,2.6-0.8,3.9
		C76,38.9,76.1,37.5,76,36.1z M76.6,30.3c0-0.3,0-0.5,0-0.8c0.1,0.4,0.1,0.8,0.2,1.2C76.7,30.6,76.7,30.5,76.6,30.3z M76.4,41.2
		c0.3-1,0.5-2.1,0.7-3.1c0,0.6,0,1.1-0.1,1.7C76.9,40.3,76.6,40.7,76.4,41.2z M63.8,11.3c-1.1-0.5-2.3-1-3.5-1.4
		c-1.2-1-2.5-2-3.9-2.7c4.4,1.3,8.7,3.5,12.3,6.4C67.1,12.7,65.5,12,63.8,11.3z M55.6,6.1C55.3,6,55,5.9,54.7,5.9
		c0.5,0,0.9,0,1.4,0.1C57,6,57.8,6.1,58.7,6.2c2,0.8,3.9,1.8,5.7,2.9c1,0.8,1.9,1.5,2.9,2.4C63.7,9,59.7,7.2,55.6,6.1z M50.4,5.1
		c-1.9-0.2-3.9-0.3-5.8-0.1c0,0-0.1,0-0.2,0c0.9-0.2,1.8-0.4,2.7-0.5c2.7-0.2,5.3,0,7.9,0.6C53.5,5,52,5,50.4,5.1z M49.2,8.3
		c0.6,0.2,1.1,0.5,1.7,0.8h-0.3c-0.8,0-1.6,0.1-2.4,0.1c-2.3-0.4-4.7-0.5-7.1-0.4c-1.3-0.3-2.6-0.2-3.9,0.2c0.1,0,0.1-0.1,0.2-0.2
		c0.2,0,0.3-0.1,0.5-0.1C41.6,7.8,45.5,7.7,49.2,8.3z M41,9.5c0.3,0.1,0.6,0.2,1,0.3c0.3,0.1,0.4-0.1,0.5-0.3c0.9,0,1.8,0,2.7,0.1
		c-1.2,0.2-2.3,0.5-3.5,0.9c-3,0.7-5.9,1.8-8.5,3.4c-0.3,0.2-0.6,0.3-0.9,0.5c0.7-0.9,1.4-1.8,2.2-2.7c0.4-0.5,0.9-1,1.3-1.4
		c0,0,0,0,0,0C37.5,9.9,39.3,9.6,41,9.5z M30.2,16c-0.5,0.4-1.1,0.9-1.6,1.4c0-0.1,0.1-0.2,0.2-0.2c1.1-1.7,2.6-3.5,4.3-5
		C32,13.4,31.1,14.6,30.2,16z M28.8,19.7c1.5-1.5,3.1-2.8,4.9-3.9c0.3-0.2,0.6-0.3,0.9-0.5c-2,1.8-3.6,4-5,6.3
		c-1.4,1.8-2.6,3.8-3.5,5.9c-0.5,1.3-1,2.6-1.3,4c-0.3,0.8-0.6,1.6-0.9,2.5c-0.1-0.8-0.1-1.6-0.1-2.4c0-0.2,0-0.4,0.1-0.7
		c0.7-2.3,1.6-4.5,2.6-6.7C27.2,22.8,27.9,21.3,28.8,19.7z M23.8,27.7c0.1-0.4,0.1-0.8,0.2-1.2c0.2-0.4,0.4-0.8,0.6-1.2
		C24.3,26.1,24,26.9,23.8,27.7z M25.7,19.5c-0.5,1-1,2.1-1.4,3.2c-0.2,0.3-0.4,0.7-0.6,1c-0.8,1.1-1.5,2.3-2.1,3.5
		c0.1-0.7,0.2-1.3,0.3-2c0.4-0.8,0.9-1.6,1.3-2.4c0.9-1.6,1.9-3.1,3-4.6C26.1,18.7,25.9,19.1,25.7,19.5z M22,28.3
		c-0.1,0.2-0.1,0.5-0.2,0.7c-0.3,0.7-0.5,1.4-0.8,2.1c0-0.3,0.1-0.6,0.1-0.9C21.4,29.5,21.7,28.9,22,28.3z M22,51.2
		c0.4,0.7,0.7,1.5,1.1,2.2c-0.3-0.2-0.6-0.4-0.8-0.6c-0.4-0.6-0.8-1.2-1.1-1.8c0-0.6,0-1.1,0-1.7C21.4,49.9,21.7,50.5,22,51.2z
		 M22.6,47.6c0-0.6-0.1-1.2-0.1-1.9c0.1,0.1,0.2,0.3,0.3,0.4c0.6,1.3,1.3,2.5,2.2,3.7c0,0.1-0.1,0.3-0.1,0.4c0,0.2-0.1,0.5-0.1,0.7
		C24,49.8,23.2,48.7,22.6,47.6z M24.6,47.7c0.2,0.1,0.3,0.2,0.5,0.3c0.1,0.1,0.2,0.1,0.3,0.2c0,0.1,0,0.3-0.1,0.4
		C25,48.3,24.8,48,24.6,47.7z M25.2,43.7c-0.1-0.5-0.2-1-0.2-1.5c0.2,0.4,0.3,0.7,0.5,1.1c0,0.3,0,0.6,0,0.9
		C25.4,44,25.3,43.8,25.2,43.7z M25.4,53.9c0.8,0.7,1.7,1.4,2.6,2c0,0,0,0,0,0.1c-0.9-0.4-1.8-0.8-2.7-1.3
		C25.4,54.4,25.4,54.2,25.4,53.9z M27.3,56.5c0.5,0.2,1,0.4,1.5,0.7c0.4,0.5,0.7,1,1.1,1.4c0,0,0,0.1,0.1,0.1
		c0.1,0.2,0.2,0.3,0.3,0.5c0.1,0.3,0.2,0.5,0.4,0.8c-2.1-1-3.9-2.5-5.3-4.4C26.1,56,26.7,56.3,27.3,56.5z M29,61.1
		c-0.3,0-0.5,0-0.8-0.1c-0.6-0.2-1.1-0.7-1.5-1.3c0-0.1-0.1-0.2-0.1-0.3C27.4,60,28.2,60.6,29,61.1z M29.3,61.9
		c0.2,0,0.5-0.1,0.7-0.2c0.4,0.3,0.9,0.5,1.3,0.7c0.2,0.1,0.4,0.2,0.6,0.3c0,0.2,0.1,0.4,0.1,0.6c0,0.6-0.2,1.3-0.7,1.6
		c-0.7,0.5-1.7,0.1-2.2-0.5c-0.8-0.8-1.2-2-1.6-3.1C28,61.8,28.6,62,29.3,61.9z M30.7,58.2c0-0.1-0.1-0.2-0.1-0.3
		c1.2,0.5,2.4,0.9,3.6,1.3c-0.6,0.2-1.2,0.3-1.8,0.5C31.8,59.3,31.3,58.7,30.7,58.2z M33.2,60.3c0.8-0.3,1.7-0.5,2.5-0.6
		c1.4,0.5,2.8,1,4.1,1.4c0,0.4,0,0.7,0,1.1c-1.7-0.1-3.5-0.4-5.2-0.8C34.1,61,33.6,60.7,33.2,60.3C33.2,60.3,33.2,60.3,33.2,60.3z
		 M37,63.4c0.9,0.4,1.8,0.7,2.7,0.9c0,0.1,0,0.2,0,0.3c-2.1-0.5-4.2-1.1-6.2-2c0,0,0,0,0-0.1C34.7,62.9,35.8,63.2,37,63.4z M40,65.5
		c0,0.1,0.1,0.3,0.1,0.4c-1.2-0.1-2.3-0.3-3.5-0.7c-0.7-0.3-1.3-0.7-1.9-1.2C36.5,64.6,38.2,65.1,40,65.5z M34.5,57.2
		c-1.2-0.6-2.2-1.3-3-2.2c3,1.5,6.3,2.3,9.5,2.9c0.3,0.1,0.7,0.1,1,0.2c0.8,0.3,1.5,0.5,2.3,0.7c-1,0.1-2,0.2-2.9,0.1
		C39.1,58.7,36.7,58.2,34.5,57.2z M43.7,65.1c0.7,0.1,1.4,0.1,2,0.1c-0.4,0.1-0.7,0.2-1.1,0.3c-1.4-0.2-2.7-0.4-4.1-0.7
		c0-0.1,0-0.1,0-0.1s0-0.1,0-0.1C41.6,64.8,42.7,65,43.7,65.1z M42,65.9c-0.3,0-0.7,0-1,0c0-0.1-0.1-0.2-0.1-0.2
		C41.2,65.7,41.6,65.8,42,65.9z M43.1,66.5c0.5-0.1,1-0.1,1.5-0.2c0.1,0,0.2,0,0.3,0c-1,0.2-2,0.5-3.1,0.7c-0.1-0.1-0.2-0.2-0.3-0.4
		C42,66.6,42.5,66.6,43.1,66.5z M43.3,67.5c1.2-0.3,2.4-0.5,3.6-0.9c1.1,0.1,2.3,0.2,3.4,0.3c-0.5,0.5-1,0.9-1.6,1.2
		c-2.1,1.2-4.5,1.2-6.3-0.4C42.7,67.6,43,67.6,43.3,67.5z M49,66c1.1-0.3,2.1-0.7,3.2-1c-0.3,0.4-0.7,0.8-1,1.2
		C50.4,66.1,49.7,66.1,49,66z M51.1,64.2c0.4-0.2,0.9-0.4,1.3-0.7c0.3,0,0.7,0,1,0c-0.1,0.1-0.1,0.1-0.2,0.2
		C52.5,63.9,51.8,64,51.1,64.2z M53.6,64.5c1.2-0.3,2.5-0.7,3.7-1.1c1.7-0.2,3.4-0.5,5-1c-1.4,1.2-2.9,2.4-4.5,3.4
		c-1.9,0.3-3.8,0.4-5.7,0.3C52.7,65.6,53.1,65.1,53.6,64.5z M63.2,62.7c0.3-0.3,0.7-0.6,1-0.9c1.5-0.5,2.9-1.2,4.2-2
		c0.9-0.1,1.8-0.3,2.7-0.5c-1.5,1.5-3.3,2.8-5.2,3.9c-1.9,1.1-4,1.8-6.1,2.3C61,64.6,62.1,63.7,63.2,62.7z M76.3,48.9
		c-1.9,3.1-4.5,5.8-7.6,7.8c0.5-0.6,0.9-1.2,1.4-1.9c0.1-0.1,0.2-0.3,0.4-0.4c1-1,2-2.1,2.9-3.3c1.7-2.3,3-4.9,3.8-7.7
		c0.3-0.8,0.5-1.6,0.8-2.4C77.9,43.8,77.3,46.4,76.3,48.9z M77.7,48.3c0,0,0-0.1,0-0.2c0.3-0.6,0.6-1.3,0.9-2
		c-0.3,1.1-0.6,2.2-1.1,3.2C77.6,49,77.6,48.7,77.7,48.3z M70.5,9.9c1.6,1.1,3.1,2.3,4.4,3.5c0,0,0.1,0.1,0.1,0.1
		c1.6,1.8,2.7,3.8,3.5,6.1c-1.8-1.3-3.7-2.6-5.7-3.7c-2.2-2.8-4.8-5.2-7.7-7.2c-0.8-0.6-1.6-1.2-2.4-1.8C65.5,7.6,68.1,8.5,70.5,9.9
		z M65.2,6.8c-1.4-0.4-2.8-0.8-4.2-1c-1.2-0.8-2.5-1.4-3.8-2C60,4.6,62.7,5.6,65.2,6.8z M39.9,3c3.7-1.2,7.6-1.1,11.3-0.5
		c0.2,0,0.4,0.1,0.7,0.1c0.4,0.1,0.8,0.2,1.2,0.4c1.9,0.7,3.7,1.5,5.5,2.4c-3.1-1.1-6.3-1.7-9.7-1.8c-2.2,0-4.4,0.3-6.4,1.1
		c-2.4-0.2-4.9,0-7.3,0.6C36.7,4.3,38.2,3.5,39.9,3z M33.3,6.8c1.7-0.6,3.5-1,5.2-1.2c0.8-0.1,1.5-0.1,2.3-0.1l-0.6,0.3
		c-2.3,0.7-4.4,1.7-6.5,2.9c-0.6,0.3-1.1,0.7-1.6,1c-1.2,0.5-2.4,1.1-3.5,1.8c0.9-1.1,1.9-2.2,2.9-3.3C32.1,7.8,32.7,7.2,33.3,6.8z
		 M30.5,8c0.1-0.1,0.2-0.1,0.3-0.2c-0.6,0.6-1.2,1.3-1.8,2c-0.8,0.9-1.6,1.9-2.3,3c-0.4,0.3-0.8,0.6-1.2,0.9
		C27,11.6,28.7,9.7,30.5,8z M23.9,17.6C23.9,17.6,23.9,17.6,23.9,17.6c0,0,0,0.1-0.1,0.2C23.9,17.7,23.9,17.7,23.9,17.6z M24.2,18.8
		c1.7-2.4,3.7-4.7,6-6.6c0.1,0,0.2-0.1,0.2-0.1c0.3-0.1,0.6-0.3,0.9-0.4c-0.1,0.1-0.2,0.2-0.4,0.4c-2.1,1.8-3.9,3.8-5.6,6.1
		c-0.9,1.2-1.7,2.5-2.5,3.8C23.3,20.9,23.7,19.8,24.2,18.8z M21.6,21.1c0.1-0.4,0.3-0.8,0.5-1.1c0.2-0.3,0.4-0.6,0.7-0.9
		c-0.1,0.4-0.2,0.7-0.3,1.1c-0.5,0.8-0.9,1.6-1.4,2.4C21.2,22.1,21.4,21.6,21.6,21.1z M21.6,23.1c-0.3,0.8-0.6,1.7-0.8,2.5
		c-0.4,0.8-0.8,1.7-1.2,2.6c0-0.2,0.1-0.3,0.1-0.5c0.1-0.4,0.3-0.8,0.4-1.2C20.6,25.4,21.1,24.2,21.6,23.1z M19.7,40.5
		c0.1,1.4,0.4,2.7,0.8,4c0,0.3,0,0.6-0.1,0.9c-0.4-1.2-0.7-2.4-0.9-3.7C19.6,41.3,19.7,40.9,19.7,40.5z M19.7,35.5
		c0-0.3,0.1-0.7,0.2-1c0,0.4-0.1,0.9-0.1,1.3C19.7,35.7,19.7,35.6,19.7,35.5z M19.4,31.8v-0.4c0.1-0.2,0.1-0.4,0.2-0.6
		C19.5,31.1,19.4,31.4,19.4,31.8z M19.7,45.7c0.2,0.6,0.4,1.2,0.6,1.7c0,0.6,0,1.2,0,1.8c-0.4-1-0.8-2-1.1-3c0-0.5,0-1,0.1-1.5
		C19.4,45,19.6,45.4,19.7,45.7z M19.8,50.7c-0.1-0.1-0.2-0.2-0.4-0.4c0-0.2,0-0.3,0-0.5C19.5,50.1,19.6,50.4,19.8,50.7z M20.4,52.4
		c0.1,1.1,0.1,2.1,0.3,3.2c0,0.2,0,0.4,0.1,0.6c-0.6-1.5-1-3-1.2-4.6C19.8,51.9,20.1,52.1,20.4,52.4z M17.7,48.4
		c-1.4-1.9-2.5-4.1-3.1-6.6c-1.3-5.3-0.4-10.9,1.9-15.7c0.9-1.9,2-3.8,3.3-5.5c-1.6,2.5-2.9,5.2-3.4,8.2c-0.3,2-0.3,4,0,5.9
		c0,2.4,0.3,4.8,0.8,7.2c0,0,0,0.1,0,0.1c0.1,1.1,0.3,2.2,0.6,3.3C17.7,46.3,17.7,47.4,17.7,48.4z M20.1,21.5
		c-0.9,1.5-1.6,3-2.2,4.6C18.5,24.5,19.2,22.9,20.1,21.5z M17.3,35.6c-0.1-0.4-0.1-0.7-0.2-1.1c0-1.1,0.1-2.2,0.3-3.3
		c0.4-2.7,1.3-5.2,2.5-7.6c-0.4,1.4-0.8,2.7-1,4.1C18.1,30.2,17.5,32.9,17.3,35.6z M18.2,39.3c0-0.2-0.1-0.3-0.2-0.5
		c0-0.7,0-1.4,0-2.1c0.1-0.9,0.3-1.8,0.5-2.7c0,0.3,0,0.5,0.1,0.8c0,0.2,0.1,0.3,0.1,0.5c-0.1,0.8-0.2,1.7-0.3,2.5
		C18.4,38.3,18.3,38.8,18.2,39.3z M18.6,50.9c0.2,1.6,0.6,3.3,1.1,4.9c0.4,1.1,0.9,2.1,1.4,3.1c0.2,0.9,0.3,1.8,0.6,2.8
		C19.8,58.3,18.9,54.6,18.6,50.9z M21.3,53.7c1,1.7,2.3,3.1,3.8,4.3c0.2,0.7,0.5,1.4,1,2c0.4,1,0.8,2.1,1.2,3.1
		c0.4,0.9,0.8,1.8,1.6,2.4c1.7,1.2,3.6,0.1,3.8-1.9c0-0.2,0-0.4,0-0.5c0.1,0.1,0.3,0.1,0.4,0.2c0.5,0.7,1.1,1.4,1.9,1.9
		c1.5,1,3.5,1.4,5.5,1.4c0.1,0.2,0.2,0.4,0.3,0.5c-2.7,0.5-5.4,0.8-8.1,1c-0.3,0-0.6,0-0.9,0.1c-4.1-2.2-7.6-5.5-9.9-9.6
		C21.7,57,21.4,55.3,21.3,53.7z M25.2,67c0,0-0.1-0.1-0.1-0.1c0.2,0.2,0.5,0.4,0.7,0.6C25.5,67.3,25.3,67.2,25.2,67z M28.4,68.3
		c-2-1.2-3.8-2.8-5.3-4.6c-0.3-0.9-0.5-1.8-0.7-2.7c0-0.1,0-0.1,0-0.2c2.1,3,4.9,5.6,8.1,7.5C29.8,68.4,29.1,68.4,28.4,68.3z
		 M37.3,71.4c-2.5-0.3-5.1-1-7.4-2.2c0.6,0,1.2,0,1.7-0.1c0.1,0,0.2,0.1,0.3,0.2C33.7,70.2,35.5,70.9,37.3,71.4
		C37.4,71.4,37.3,71.4,37.3,71.4z M42.1,71.5c-2.5-0.3-4.9-0.9-7.3-1.8c-0.5-0.2-1-0.4-1.6-0.7c0.3,0,0.7,0,1-0.1
		c2.4-0.2,4.8-0.6,7.2-1c1,1,2.2,1.7,3.6,1.9c2.4,0.3,4.6-1,6.3-2.6c0,0,0.1-0.1,0.1-0.1c1.6,0.1,3.2,0,4.8-0.1
		C51.9,69.4,47,71.1,42.1,71.5z M82.9,44.8c-2,6.3-5.9,11.8-10.9,16.1C65.1,67,55.7,71.4,46.3,71.6c4.2-0.9,8.2-2.7,11.8-5
		c2.3-0.4,4.5-1,6.6-2c3.1-1.4,5.8-3.5,8-6c2.4-1.1,4.3-3.1,4.6-5.9c0-0.4,0.1-0.8,0.1-1.2c0.1-0.1,0.1-0.2,0.2-0.3
		c1.5-3.2,2.3-6.5,2.6-9.9c0.8-1.8,1.5-3.7,2-5.6c0.7-2.9,0.9-5.9,0.6-8.8c-0.1-0.9-0.2-1.8-0.4-2.7c0.1,0.2,0.2,0.4,0.2,0.6
		C85.1,31.2,85.1,38.3,82.9,44.8z"/>
	<g>
		<g>
			<path fill="#FFFFFF" d="M49.6,38.7c-0.7-2.1-2.1-3.5-4.6-3.7c0.5-0.2,0.7-0.3,1-0.4c1.2-0.5,2-1.2,2.5-2.3c1.1-2.3,0.9-7-2.4-9.2
				c-1.5-1-3.1-1.4-4.8-1.4c-5,0-10,0-15,0c-0.2,0-0.4,0-0.6,0.1v29.2h0.9c4.7,0,9.4,0,14.1,0c0.8,0,1.5-0.1,2.3-0.2
				c3.7-0.6,6.2-2.8,7-6.1C50.3,42.6,50.3,40.6,49.6,38.7z M32.3,26.9c0.2,0,0.5-0.1,0.7-0.1c2.5,0,4.9,0,7.4,0
				c1.3,0,2.2,0.6,2.3,1.8c0.1,1,0.1,2.1-0.1,3.2c-0.1,0.9-0.8,1.5-1.7,1.5c-2.8,0-5.7,0-8.6,0V26.9z M43.6,43.7
				c-0.3,1.1-1.1,1.8-2.2,1.9c-3,0.1-6,0-9.1,0v-7.7c0.3,0,0.5,0,0.8,0c2.3,0,4.7,0,7,0c2.3,0,3.4,0.9,3.7,3.1
				C44,41.9,43.8,42.8,43.6,43.7z M56.4,23.4v3.5h11.9v-3.5H56.4z M65.4,46.5c-1.6,0.6-3.2,0.6-4.8,0.1c-2-0.7-3.3-2.9-2.9-4.8h15.2
				c-0.1-1.6-0.1-3.1-0.4-4.5C72,34,70.5,31.3,67.3,30c-1.1-0.5-2.3-0.7-3.5-0.8c-4.4-0.3-8.2,0.7-10.6,4.7
				c-2.1,3.5-2.5,7.2-1.1,11.1c1,2.9,3,4.9,5.9,5.8c2.1,0.7,4.2,0.8,6.4,0.6c1.8-0.2,3.6-0.6,5.2-1.7c2.1-1.4,3-3.5,3.1-6h-5.1
				C67.3,45.1,66.6,46,65.4,46.5z M63.1,33.4c2.4,0.1,4.1,2.1,4,4.5h-9.5C57.8,35.2,60.2,33.2,63.1,33.4z"/>
			<g>
				<g>
					<path fill="#414042" d="M49.6,38.7c-0.3-1-0.9-1.9-1.7-2.6c-0.8-0.6-1.9-1-2.9-1c-0.1,0-0.1-0.1-0.1-0.1c0,0,0-0.1,0.1-0.1l0,0
						c0.7-0.3,1.4-0.5,2-1c0.6-0.4,1-1,1.3-1.6c0.3-0.7,0.5-1.3,0.5-2c0.1-0.7,0-1.4-0.1-2.1c-0.2-1.4-0.8-2.7-1.7-3.8
						c-0.5-0.5-1-0.9-1.6-1.3c-0.6-0.3-1.3-0.6-2-0.8c-0.7-0.2-1.4-0.3-2.1-0.3L39,22l-4.4-0.1c-1.5,0-3-0.1-4.4-0.1l-2.2,0
						c-0.7,0-1.5-0.1-2.2,0l0.1-0.2c0,2.4,0,4.9,0.1,7.3l0.1,7.3c0.1,4.9,0.1,9.7,0.2,14.6l-0.5-0.5c2.8,0,5.5,0,8.3,0l4.1,0l2.1,0
						c0.6,0,1.4-0.1,2-0.1l0.5,0l0.1,0c0,0,0.1,0,0,0l0.1,0l0.3,0c0.4-0.1,0.7-0.1,1-0.2c0.6-0.2,1.3-0.4,1.9-0.7
						c1.2-0.6,2.2-1.5,2.9-2.7c0.7-1.2,1.1-2.5,1.2-3.9C50.2,41.4,50,40.1,49.6,38.7z M49.7,38.7c0.5,1.3,0.6,2.7,0.6,4.1
						c-0.1,1.4-0.4,2.8-1,4c-0.7,1.2-1.7,2.3-2.9,3.1c-0.6,0.4-1.3,0.7-2,0.9c-0.3,0.1-0.7,0.2-1,0.3l-0.3,0.1l-0.1,0l-0.1,0l-0.1,0
						l-0.5,0c-0.7,0-1.3,0.2-2.1,0.2l-2.1,0l-4.1,0c-2.8,0-5.5,0-8.3,0l0,0c-0.3,0-0.5-0.2-0.5-0.5c0-4.9,0.1-9.7,0.2-14.6l0.1-7.3
						c0.1-2.4,0-4.9,0.1-7.3c0-0.1,0.1-0.1,0.1-0.1l0,0c0.7-0.1,1.5,0,2.2-0.1l2.2,0c1.5,0,3,0,4.4-0.1l4.4-0.1l2.2,0
						c0.8,0,1.5,0.1,2.3,0.3c1.5,0.4,3,1.1,4,2.3c1,1.2,1.7,2.7,1.8,4.2c0.1,0.8,0.1,1.5,0,2.3c-0.1,0.8-0.3,1.5-0.7,2.2
						c-0.4,0.7-0.9,1.3-1.6,1.7c-0.6,0.4-1.4,0.6-2.1,0.9l0-0.2c1.1,0.1,2.1,0.5,3,1.2C48.8,36.7,49.4,37.7,49.7,38.7z"/>
					<path fill="#414042" d="M32.3,26.8c0.5-0.1,1.1-0.2,1.6-0.2c0.5,0,1.1-0.1,1.6-0.1c1.1-0.1,2.1-0.1,3.2-0.1c0.5,0,1.1,0,1.6,0
						c0.6,0,1.2,0.2,1.7,0.5c0.5,0.4,0.8,1,0.9,1.5C43,29,43,29.5,43,30.1c0,0.5-0.1,1.1-0.1,1.6c0,0.5-0.3,1.2-0.8,1.5
						c-0.5,0.4-1.2,0.4-1.7,0.4l-1.6,0.1l-3.2,0.1c-1.1,0-2.1,0-3.2,0l0,0c-0.3,0-0.5-0.2-0.5-0.5l0,0c0.1-1.1,0.1-2.1,0.2-3.2
						C32.1,29,32.1,28,32.3,26.8C32.3,26.9,32.3,26.8,32.3,26.8L32.3,26.8z M32.4,26.9c0.1,1.1,0.2,2.1,0.3,3.2
						c0.1,1.1,0.1,2.1,0.2,3.2l-0.5-0.5c1.1,0,2.1,0,3.2,0l3.2,0.1l1.6,0.1c0.6,0,1,0.1,1.4-0.1c0.4-0.2,0.7-0.6,0.7-1.1
						c0.1-0.5,0.2-1,0.2-1.6c0-0.5,0-1.1-0.1-1.6c-0.1-0.5-0.4-0.9-0.8-1.1c-0.4-0.2-0.9-0.2-1.4-0.2c-0.5,0-1.1,0-1.6,0
						c-1.1,0-2.1,0-3.2-0.1c-0.5,0-1.1-0.1-1.6-0.1C33.4,27,32.9,27,32.4,26.9z"/>
					<path fill="#414042" d="M43.7,43.7c-0.2,1-1.1,1.9-2.2,2.1L40,45.9C39.5,46,39,46,38.5,46c-1,0-2,0-3.1,0l-3.1-0.2l0,0
						c-0.1,0-0.2-0.1-0.2-0.2l0,0c0.1-1.3,0.1-2.6,0-3.9c0-1.3-0.1-2.6-0.2-3.9c0-0.2,0.1-0.4,0.3-0.4l0,0c1.4-0.1,2.7-0.1,4-0.2
						c0.7,0,1.3,0,2,0l1,0l1,0c0.3,0,0.7,0.1,1.1,0.1c0.4,0.1,0.7,0.2,1.1,0.4c0.7,0.4,1.2,1.1,1.3,1.8C44.2,41,44,42.4,43.7,43.7z
						 M43.6,43.7c0.1-0.6,0.2-1.3,0.2-2c-0.1-0.6-0.2-1.3-0.5-1.9c-0.3-0.6-0.7-1-1.2-1.2c-0.3-0.1-0.5-0.2-0.8-0.2
						c-0.3,0-0.6-0.1-0.9-0.1l-1,0l-1,0c-0.7,0-1.3,0-2,0l-2,0c-0.7,0-1.3-0.1-2,0l0.4-0.4c-0.1,1.3-0.2,2.6-0.2,3.9
						c0,1.3-0.1,2.6,0,3.9l-0.2-0.2l3-0.2c1-0.1,2-0.1,3.1,0c0.5,0,1,0,1.5,0.1l1.5,0.1c0.5,0,1-0.1,1.3-0.4
						C43.2,44.6,43.5,44.2,43.6,43.7z"/>
				</g>
				<path fill="#414042" d="M56.4,23.5c0.2,1.1,0.3,2.3,0.3,3.4l-0.4-0.4c1,0,2-0.1,3-0.1c1,0,2,0.1,3,0.2c1,0.1,2,0.1,3,0.1
					c1,0,2-0.1,3-0.1L68,26.9c-0.1-1.2-0.2-2.3-0.2-3.5l0.5,0.5c-1,0-2,0.1-3,0.1c-1,0-2,0-3,0c-1-0.1-2-0.1-3-0.2
					C58.4,23.7,57.4,23.6,56.4,23.5z M56.4,23.4c1-0.1,2-0.2,3-0.3c1-0.1,2-0.1,3-0.2c1,0,2-0.1,3,0c1,0,2,0,3,0.1l0,0
					c0.2,0,0.4,0.2,0.4,0.5l0,0c0,1.2-0.1,2.3-0.2,3.5l0,0c0,0.1-0.1,0.2-0.3,0.2c-1-0.1-2-0.1-3-0.1c-1,0-2,0.1-3,0.1
					c-1,0.1-2,0.2-3,0.2c-1,0-2,0-3-0.1l0,0c-0.2,0-0.3-0.2-0.3-0.4l0,0C56,25.7,56.2,24.6,56.4,23.4C56.3,23.4,56.3,23.4,56.4,23.4
					z"/>
				<g>
					<path fill="#414042" d="M65.4,46.5c-0.9,0.3-1.8,0.5-2.7,0.5c-0.5,0-0.9-0.1-1.4-0.2c-0.5-0.1-0.9-0.2-1.3-0.4
						c-0.8-0.4-1.6-1.1-2-1.9c-0.5-0.8-0.7-1.8-0.5-2.8c0-0.1,0.1-0.2,0.2-0.2l0,0l3.8-0.1l3.8-0.1c2.5-0.1,5.1,0,7.6,0l-0.4,0.4
						c-0.1-1.5-0.1-2.9-0.3-4.3c-0.2-1.4-0.6-2.8-1.2-4c-0.7-1.2-1.7-2.3-2.9-2.9c-1.2-0.7-2.6-1.1-4-1.2c-1.4-0.1-2.9-0.1-4.2,0.2
						c-1.4,0.3-2.7,0.8-3.8,1.7c-1.1,0.9-2,2-2.6,3.2c-0.7,1.2-1.2,2.5-1.4,3.9c-0.2,1.4-0.3,2.8,0,4.1c0.2,1.4,0.7,2.7,1.3,3.9
						c0.7,1.2,1.6,2.2,2.7,2.9c1.1,0.7,2.5,1.2,3.8,1.5c1.4,0.3,2.8,0.3,4.2,0.2c1.4-0.1,2.8-0.3,4-0.8c1.3-0.5,2.4-1.3,3.2-2.4
						c0.8-1.1,1.1-2.5,1.2-3.9l0.2,0.2c-1.7,0-3.4-0.1-5.1-0.1l0.1-0.1c-0.1,0.6-0.3,1.2-0.7,1.7C66.5,46,66,46.3,65.4,46.5z
						 M65.4,46.4c0.6-0.2,1.1-0.5,1.4-1c0.4-0.5,0.6-1,0.6-1.6c0,0,0-0.1,0.1-0.1c1.7,0,3.4-0.1,5.1-0.1c0.1,0,0.2,0.1,0.2,0.2l0,0
						l0,0c0,1.5-0.2,3-1.1,4.3c-0.4,0.6-0.9,1.2-1.5,1.7c-0.6,0.5-1.2,0.9-1.9,1.2c-1.4,0.6-2.9,0.9-4.3,1c-1.5,0.1-3,0.1-4.4-0.2
						c-1.5-0.3-2.9-0.8-4.2-1.6c-1.3-0.8-2.3-2-3-3.3c-0.2-0.3-0.3-0.7-0.5-1c-0.1-0.3-0.3-0.7-0.4-1c-0.2-0.7-0.4-1.4-0.5-2.2
						c-0.2-1.5-0.2-3,0.1-4.4c0.3-1.5,0.9-2.9,1.6-4.1c0.7-1.3,1.7-2.4,3-3.3c1.2-0.8,2.6-1.4,4.1-1.6c1.4-0.2,2.9-0.3,4.3-0.1
						c1.4,0.2,2.9,0.6,4.2,1.3c1.3,0.7,2.4,1.8,3.2,3c0.8,1.3,1.2,2.7,1.5,4.1c0.3,1.5,0.3,2.9,0.4,4.3c0,0.2-0.1,0.4-0.4,0.4l0,0h0
						c-2.5,0-5.1,0.1-7.6,0l-3.8-0.1L57.7,42l0.2-0.2c-0.4,1.7,0.6,3.6,2.1,4.4c0.4,0.2,0.8,0.3,1.3,0.5c0.4,0.1,0.9,0.2,1.3,0.2
						C63.6,46.9,64.5,46.7,65.4,46.4z"/>
					<path fill="#414042" d="M63.1,33.3c0.3,0,0.6,0.1,0.8,0.1c0.3,0.1,0.6,0.1,0.8,0.2c0.3,0.1,0.5,0.2,0.8,0.4
						c0.3,0.2,0.5,0.3,0.7,0.5c0.5,0.4,0.8,1,1,1.5c0.2,0.6,0.2,1.2,0.2,1.8l0,0.1c0,0.2-0.2,0.3-0.3,0.3c-0.8-0.1-1.6-0.2-2.4-0.2
						c-0.8,0-1.6,0-2.4,0.1c-0.8,0.1-1.6,0.1-2.4,0.2l-2.4,0.1c-0.3,0-0.5-0.2-0.5-0.5l0,0l0,0c0-0.4,0.1-0.7,0.2-1.1
						c0.1-0.4,0.2-0.7,0.4-1c0.4-0.6,0.9-1.2,1.5-1.6c0.6-0.4,1.3-0.6,2-0.7C61.8,33.3,62.5,33.3,63.1,33.3z M63.1,33.4
						c-0.3,0-0.7,0-1,0.1c-0.3,0.1-0.6,0.2-0.9,0.3c-0.6,0.3-1.1,0.6-1.5,1.1c-0.4,0.4-0.8,0.9-1.1,1.4c-0.1,0.3-0.2,0.5-0.3,0.8
						c-0.1,0.3-0.1,0.6-0.2,0.9l-0.5-0.5l2.4,0.1c0.8,0,1.6,0.1,2.4,0.2c0.8,0.1,1.6,0.1,2.4,0.1c0.8,0,1.6-0.1,2.4-0.2l-0.4,0.3
						c0-0.5-0.1-1-0.3-1.5c-0.1-0.2-0.2-0.5-0.3-0.7c-0.1-0.2-0.2-0.4-0.4-0.7c-0.3-0.4-0.7-0.8-1.1-1.1c-0.2-0.1-0.5-0.3-0.7-0.3
						C63.7,33.5,63.4,33.4,63.1,33.4z"/>
				</g>
			</g>
		</g>
		<g>
			<path fill="#FFFFFF" d="M49.6,38.7c-0.7-2.1-2.1-3.5-4.6-3.7c0.5-0.2,0.7-0.3,1-0.4c1.2-0.5,2-1.2,2.5-2.3c1.1-2.3,0.9-7-2.4-9.2
				c-1.5-1-3.1-1.4-4.8-1.4c-5,0-10,0-15,0c-0.2,0-0.4,0-0.6,0.1v29.2h0.9c4.7,0,9.4,0,14.1,0c0.8,0,1.5-0.1,2.3-0.2
				c3.7-0.6,6.2-2.8,7-6.1C50.3,42.6,50.3,40.6,49.6,38.7z M32.3,26.9c0.2,0,0.5-0.1,0.7-0.1c2.5,0,4.9,0,7.4,0
				c1.3,0,2.2,0.6,2.3,1.8c0.1,1,0.1,2.1-0.1,3.2c-0.1,0.9-0.8,1.5-1.7,1.5c-2.8,0-5.7,0-8.6,0V26.9z M43.6,43.7
				c-0.3,1.1-1.1,1.8-2.2,1.9c-3,0.1-6,0-9.1,0v-7.7c0.3,0,0.5,0,0.8,0c2.3,0,4.7,0,7,0c2.3,0,3.4,0.9,3.7,3.1
				C44,41.9,43.8,42.8,43.6,43.7z"/>
			<g>
				<g>
					<path fill="#414042" d="M49.6,38.7c-0.3-1-0.9-1.9-1.7-2.6c-0.8-0.6-1.9-1-2.9-1c-0.1,0-0.1-0.1-0.1-0.1c0,0,0-0.1,0.1-0.1l0,0
						c0.7-0.3,1.4-0.5,2-1c0.6-0.4,1-1,1.3-1.6c0.3-0.7,0.5-1.3,0.5-2c0.1-0.7,0-1.4-0.1-2.1c-0.2-1.4-0.8-2.7-1.7-3.8
						c-0.5-0.5-1-0.9-1.6-1.3c-0.6-0.3-1.3-0.6-2-0.8c-0.7-0.2-1.4-0.3-2.1-0.3L39,22l-4.4-0.1c-1.5,0-3-0.1-4.4-0.1l-2.2,0
						c-0.7,0-1.5-0.1-2.2,0l0.1-0.2c0,2.4,0,4.9,0.1,7.3l0.1,7.3c0.1,4.9,0.1,9.7,0.2,14.6l-0.5-0.5c2.8,0,5.5,0,8.3,0l4.1,0l2.1,0
						c0.6,0,1.4-0.1,2-0.1l0.5,0l0.1,0c0,0,0.1,0,0,0l0.1,0l0.3,0c0.4-0.1,0.7-0.1,1-0.2c0.6-0.2,1.3-0.4,1.9-0.7
						c1.2-0.6,2.2-1.5,2.9-2.7c0.7-1.2,1.1-2.5,1.2-3.9C50.2,41.4,50,40.1,49.6,38.7z M49.7,38.7c0.5,1.3,0.6,2.7,0.6,4.1
						c-0.1,1.4-0.4,2.8-1,4c-0.7,1.2-1.7,2.3-2.9,3.1c-0.6,0.4-1.3,0.7-2,0.9c-0.3,0.1-0.7,0.2-1,0.3l-0.3,0.1l-0.1,0l-0.1,0l-0.1,0
						l-0.5,0c-0.7,0-1.3,0.2-2.1,0.2l-2.1,0l-4.1,0c-2.8,0-5.5,0-8.3,0l0,0c-0.3,0-0.5-0.2-0.5-0.5c0-4.9,0.1-9.7,0.2-14.6l0.1-7.3
						c0.1-2.4,0-4.9,0.1-7.3c0-0.1,0.1-0.1,0.1-0.1l0,0c0.7-0.1,1.5,0,2.2-0.1l2.2,0c1.5,0,3,0,4.4-0.1l4.4-0.1l2.2,0
						c0.8,0,1.5,0.1,2.3,0.3c1.5,0.4,3,1.1,4,2.3c1,1.2,1.7,2.7,1.8,4.2c0.1,0.8,0.1,1.5,0,2.3c-0.1,0.8-0.3,1.5-0.7,2.2
						c-0.4,0.7-0.9,1.3-1.6,1.7c-0.6,0.4-1.4,0.6-2.1,0.9l0-0.2c1.1,0.1,2.1,0.5,3,1.2C48.8,36.7,49.4,37.7,49.7,38.7z"/>
					<path fill="#414042" d="M32.3,26.8c0.5-0.1,1.1-0.2,1.6-0.2c0.5,0,1.1-0.1,1.6-0.1c1.1-0.1,2.1-0.1,3.2-0.1c0.5,0,1.1,0,1.6,0
						c0.6,0,1.2,0.2,1.7,0.5c0.5,0.4,0.8,1,0.9,1.5C43,29,43,29.5,43,30.1c0,0.5-0.1,1.1-0.1,1.6c0,0.5-0.3,1.2-0.8,1.5
						c-0.5,0.4-1.2,0.4-1.7,0.4l-1.6,0.1l-3.2,0.1c-1.1,0-2.1,0-3.2,0l0,0c-0.3,0-0.5-0.2-0.5-0.5l0,0c0.1-1.1,0.1-2.1,0.2-3.2
						C32.1,29,32.1,28,32.3,26.8C32.3,26.9,32.3,26.8,32.3,26.8L32.3,26.8z M32.4,26.9c0.1,1.1,0.2,2.1,0.3,3.2
						c0.1,1.1,0.1,2.1,0.2,3.2l-0.5-0.5c1.1,0,2.1,0,3.2,0l3.2,0.1l1.6,0.1c0.6,0,1,0.1,1.4-0.1c0.4-0.2,0.7-0.6,0.7-1.1
						c0.1-0.5,0.2-1,0.2-1.6c0-0.5,0-1.1-0.1-1.6c-0.1-0.5-0.4-0.9-0.8-1.1c-0.4-0.2-0.9-0.2-1.4-0.2c-0.5,0-1.1,0-1.6,0
						c-1.1,0-2.1,0-3.2-0.1c-0.5,0-1.1-0.1-1.6-0.1C33.4,27,32.9,27,32.4,26.9z"/>
					<path fill="#414042" d="M43.7,43.7c-0.2,1-1.1,1.9-2.2,2.1L40,45.9C39.5,46,39,46,38.5,46c-1,0-2,0-3.1,0l-3.1-0.2l0,0
						c-0.1,0-0.2-0.1-0.2-0.2l0,0c0.1-1.3,0.1-2.6,0-3.9c0-1.3-0.1-2.6-0.2-3.9c0-0.2,0.1-0.4,0.3-0.4l0,0c1.4-0.1,2.7-0.1,4-0.2
						c0.7,0,1.3,0,2,0l1,0l1,0c0.3,0,0.7,0.1,1.1,0.1c0.4,0.1,0.7,0.2,1.1,0.4c0.7,0.4,1.2,1.1,1.3,1.8C44.2,41,44,42.4,43.7,43.7z
						 M43.6,43.7c0.1-0.6,0.2-1.3,0.2-2c-0.1-0.6-0.2-1.3-0.5-1.9c-0.3-0.6-0.7-1-1.2-1.2c-0.3-0.1-0.5-0.2-0.8-0.2
						c-0.3,0-0.6-0.1-0.9-0.1l-1,0l-1,0c-0.7,0-1.3,0-2,0l-2,0c-0.7,0-1.3-0.1-2,0l0.4-0.4c-0.1,1.3-0.2,2.6-0.2,3.9
						c0,1.3-0.1,2.6,0,3.9l-0.2-0.2l3-0.2c1-0.1,2-0.1,3.1,0c0.5,0,1,0,1.5,0.1l1.5,0.1c0.5,0,1-0.1,1.3-0.4
						C43.2,44.6,43.5,44.2,43.6,43.7z"/>
				</g>
			</g>
		</g>
		<g>
			<path fill="#FFFFFF" d="M65.4,46.5c-1.6,0.6-3.2,0.6-4.8,0.1c-2-0.7-3.3-2.9-2.9-4.8h15.2c-0.1-1.6-0.1-3.1-0.4-4.5
				C72,34,70.5,31.3,67.3,30c-1.1-0.5-2.3-0.7-3.5-0.8c-4.4-0.3-8.2,0.7-10.6,4.7c-2.1,3.5-2.5,7.2-1.1,11.1c1,2.9,3,4.9,5.9,5.8
				c2.1,0.7,4.2,0.8,6.4,0.6c1.8-0.2,3.6-0.6,5.2-1.7c2.1-1.4,3-3.5,3.1-6h-5.1C67.3,45.1,66.6,46,65.4,46.5z M63.1,33.4
				c2.4,0.1,4.1,2.1,4,4.5h-9.5C57.8,35.2,60.2,33.2,63.1,33.4z"/>
			<g>
				<g>
					<path fill="#414042" d="M65.4,46.5c-0.9,0.3-1.8,0.5-2.7,0.5c-0.5,0-0.9-0.1-1.4-0.2c-0.5-0.1-0.9-0.2-1.3-0.4
						c-0.8-0.4-1.6-1.1-2-1.9c-0.5-0.8-0.7-1.8-0.5-2.8c0-0.1,0.1-0.2,0.2-0.2l0,0l3.8-0.1l3.8-0.1c2.5-0.1,5.1,0,7.6,0l-0.4,0.4
						c-0.1-1.5-0.1-2.9-0.3-4.3c-0.2-1.4-0.6-2.8-1.2-4c-0.7-1.2-1.7-2.3-2.9-2.9c-1.2-0.7-2.6-1.1-4-1.2c-1.4-0.1-2.9-0.1-4.2,0.2
						c-1.4,0.3-2.7,0.8-3.8,1.7c-1.1,0.9-2,2-2.6,3.2c-0.7,1.2-1.2,2.5-1.4,3.9c-0.2,1.4-0.3,2.8,0,4.1c0.2,1.4,0.7,2.7,1.3,3.9
						c0.7,1.2,1.6,2.2,2.7,2.9c1.1,0.7,2.5,1.2,3.8,1.5c1.4,0.3,2.8,0.3,4.2,0.2c1.4-0.1,2.8-0.3,4-0.8c1.3-0.5,2.4-1.3,3.2-2.4
						c0.8-1.1,1.1-2.5,1.2-3.9l0.2,0.2c-1.7,0-3.4-0.1-5.1-0.1l0.1-0.1c-0.1,0.6-0.3,1.2-0.7,1.7C66.5,46,66,46.3,65.4,46.5z
						 M65.4,46.4c0.6-0.2,1.1-0.5,1.4-1c0.4-0.5,0.6-1,0.6-1.6c0,0,0-0.1,0.1-0.1c1.7,0,3.4-0.1,5.1-0.1c0.1,0,0.2,0.1,0.2,0.2l0,0
						l0,0c0,1.5-0.2,3-1.1,4.3c-0.4,0.6-0.9,1.2-1.5,1.7c-0.6,0.5-1.2,0.9-1.9,1.2c-1.4,0.6-2.9,0.9-4.3,1c-1.5,0.1-3,0.1-4.4-0.2
						c-1.5-0.3-2.9-0.8-4.2-1.6c-1.3-0.8-2.3-2-3-3.3c-0.2-0.3-0.3-0.7-0.5-1c-0.1-0.3-0.3-0.7-0.4-1c-0.2-0.7-0.4-1.4-0.5-2.2
						c-0.2-1.5-0.2-3,0.1-4.4c0.3-1.5,0.9-2.9,1.6-4.1c0.7-1.3,1.7-2.4,3-3.3c1.2-0.8,2.6-1.4,4.1-1.6c1.4-0.2,2.9-0.3,4.3-0.1
						c1.4,0.2,2.9,0.6,4.2,1.3c1.3,0.7,2.4,1.8,3.2,3c0.8,1.3,1.2,2.7,1.5,4.1c0.3,1.5,0.3,2.9,0.4,4.3c0,0.2-0.1,0.4-0.4,0.4l0,0h0
						c-2.5,0-5.1,0.1-7.6,0l-3.8-0.1L57.7,42l0.2-0.2c-0.4,1.7,0.6,3.6,2.1,4.4c0.4,0.2,0.8,0.3,1.3,0.5c0.4,0.1,0.9,0.2,1.3,0.2
						C63.6,46.9,64.5,46.7,65.4,46.4z"/>
					<path fill="#414042" d="M63.1,33.3c0.3,0,0.6,0.1,0.8,0.1c0.3,0.1,0.6,0.1,0.8,0.2c0.3,0.1,0.5,0.2,0.8,0.4
						c0.3,0.2,0.5,0.3,0.7,0.5c0.5,0.4,0.8,1,1,1.5c0.2,0.6,0.2,1.2,0.2,1.8l0,0.1c0,0.2-0.2,0.3-0.3,0.3c-0.8-0.1-1.6-0.2-2.4-0.2
						c-0.8,0-1.6,0-2.4,0.1c-0.8,0.1-1.6,0.1-2.4,0.2l-2.4,0.1c-0.3,0-0.5-0.2-0.5-0.5l0,0l0,0c0-0.4,0.1-0.7,0.2-1.1
						c0.1-0.4,0.2-0.7,0.4-1c0.4-0.6,0.9-1.2,1.5-1.6c0.6-0.4,1.3-0.6,2-0.7C61.8,33.3,62.5,33.3,63.1,33.3z M63.1,33.4
						c-0.3,0-0.7,0-1,0.1c-0.3,0.1-0.6,0.2-0.9,0.3c-0.6,0.3-1.1,0.6-1.5,1.1c-0.4,0.4-0.8,0.9-1.1,1.4c-0.1,0.3-0.2,0.5-0.3,0.8
						c-0.1,0.3-0.1,0.6-0.2,0.9l-0.5-0.5l2.4,0.1c0.8,0,1.6,0.1,2.4,0.2c0.8,0.1,1.6,0.1,2.4,0.1c0.8,0,1.6-0.1,2.4-0.2l-0.4,0.3
						c0-0.5-0.1-1-0.3-1.5c-0.1-0.2-0.2-0.5-0.3-0.7c-0.1-0.2-0.2-0.4-0.4-0.7c-0.3-0.4-0.7-0.8-1.1-1.1c-0.2-0.1-0.5-0.3-0.7-0.3
						C63.7,33.5,63.4,33.4,63.1,33.4z"/>
				</g>
			</g>
		</g>
		<g>
			<rect x="56.4" y="23.4" fill="#FFFFFF" width="11.9" height="3.5"/>
			<path fill="#414042" d="M68.3,23.4c0.2,1.2,0.3,2.3,0.3,3.5c0,0.2-0.1,0.4-0.3,0.4l0,0l0,0c-1,0-2,0.1-3,0.1c-1,0-2-0.1-3-0.2
				c-1-0.1-2-0.1-3-0.1c-1,0-2,0.1-3,0.1c-0.1,0-0.3-0.1-0.3-0.2l0,0c-0.1-1.2-0.2-2.3-0.2-3.5c0-0.2,0.2-0.5,0.4-0.5l0,0l0,0
				c1,0,2-0.1,3-0.1c1,0,2,0,3,0c1,0.1,2,0.1,3,0.2C66.3,23.1,67.3,23.2,68.3,23.4C68.3,23.4,68.3,23.4,68.3,23.4z M68.2,23.5
				c-1,0.1-2,0.2-2.9,0.3c-1,0.1-2,0.1-3,0.2c-1,0-2,0.1-3,0c-1,0-2,0-3-0.1l0.5-0.5c0,1.2-0.1,2.3-0.2,3.5l-0.3-0.3
				c1,0.1,2,0.1,3,0.1c1,0,2-0.1,3-0.1c1-0.1,2-0.2,3-0.2c1,0,2,0,3,0.1l-0.4,0.4C68,25.7,68.1,24.6,68.2,23.5z"/>
		</g>
	</g>
</g>
<g id="Layer_3">
</g>
</svg>
