<?xml version="1.0" encoding="utf-8"?>
<!-- Generator: Adobe Illustrator 19.1.0, SVG Export Plug-In . SVG Version: 6.00 Build 0)  -->
<!DOCTYPE svg PUBLIC "-//W3C//DTD SVG 1.1//EN" "http://www.w3.org/Graphics/SVG/1.1/DTD/svg11.dtd">
<svg version="1.1" xmlns="http://www.w3.org/2000/svg" xmlns:xlink="http://www.w3.org/1999/xlink" x="0px" y="0px" width="95.8px"
	 height="74px" viewBox="0 0 95.8 74" enable-background="new 0 0 95.8 74" xml:space="preserve">
<g id="Layer_2">
	<path fill="#414042" d="M83.5,24.4c-1.8-4.2-4.5-8-7.8-11.1c-1.1-1.2-2.4-2.2-3.7-3.1c-0.6-0.4-1.2-0.8-1.8-1.2
		c-5.3-3.4-11.6-5.7-18-6.7c-0.2-0.1-0.4-0.1-0.6-0.2c-3.7-1-7.4-1.1-11.1,0c-3.5,1-6.6,3-9.4,5.3c-0.2,0.2-0.4,0.4-0.7,0.6
		c-2.3,1.3-4.1,3.2-5.2,5.6c-0.1,0.3-0.2,0.5-0.4,0.8c-0.3,0.5-0.7,1-1,1.5c-0.3,0.3-0.6,0.6-0.9,0.9c-7.7,7.5-12.1,19.6-7.2,29.8
		c0.7,1.4,1.5,2.6,2.4,3.7c0.3,5.2,1.6,10.3,4.7,14.4c0.7,1.7,1.7,3.4,3.3,4.3c0.7,0.4,1.5,0.6,2.4,0.7c4.2,2.5,9.1,3.5,14,3.2
		C52.9,73.9,64,69.6,72,62.9c5.4-4.5,9.7-10.3,12-17C86.3,38.9,86.3,31.2,83.5,24.4z M82,35c-0.3,1.6-0.7,3-1.3,4.5
		c0.2-2.2,0.2-4.4-0.1-6.6c0-0.2,0-0.3-0.1-0.5c0.4-2.3,0.5-4.5,0.3-6.9c-0.1-1.1-0.3-2.2-0.5-3.3c0.2,0.2,0.4,0.4,0.6,0.5
		c1,1.1,1.2,2.5,1.4,4C82.6,29.5,82.5,32.3,82,35z M81.8,22.7C81.3,22,80.7,21.5,80,21c-0.3-1.1-0.7-2.1-1.2-3.1
		C79.9,19.4,81,21,81.8,22.7z M79.1,39.7c0-0.3,0-0.7-0.1-1c0-0.2,0.1-0.4,0.1-0.6c0.2-0.7,0.5-1.4,0.7-2.1c0.1,1.2,0.2,2.5,0.1,3.7
		c-0.1,1-0.3,2-0.5,3.1c0,0.1-0.1,0.1-0.1,0.2c-0.1,0.3-0.2,0.5-0.3,0.8C79.1,42.3,79.2,41,79.1,39.7z M79.5,34.1v-0.7
		c0,0.1,0,0.3,0.1,0.4C79.5,33.9,79.5,34,79.5,34.1z M75.5,19.8c-0.3-0.6-0.7-1.1-1.1-1.7c1.1,0.7,2.1,1.4,3.2,2.1
		c0.5,0.4,1.1,0.8,1.7,1.2c0.8,2.7,1,5.6,0.8,8.4C79.3,26.2,77.7,22.8,75.5,19.8z M72.7,58.5c-0.8,0.4-1.6,0.7-2.5,0.9
		c0.7-0.6,1.4-1.1,2.1-1.8c2-2,3.6-4.4,4.8-7c0,0.4,0,0.9,0,1.3C75.9,54.3,74.4,56.5,72.7,58.5z M76.8,54.1c-0.3,1.3-1,2.3-2,3.1
		C75.5,56.2,76.2,55.2,76.8,54.1z M24,52.7c0.3,0.4,0.6,0.7,1,1c0,0.3,0,0.7,0,1C24.5,54.1,24.2,53.4,24,52.7z M24.1,55.4
		c-0.1-0.1-0.1-0.2-0.2-0.2c0,0,0.1,0,0.1,0.1C24.1,55.3,24.1,55.3,24.1,55.4z M23.3,50.6c-0.1-0.2-0.1-0.4-0.1-0.6
		c0.5,0.8,1.2,1.6,1.9,2.4c0,0.1,0,0.2,0,0.3C24.4,52,23.9,51.3,23.3,50.6z M42.6,7.6c0.7,0,1.5,0,2.2,0.1c-1.1,0-2.3,0.1-3.4,0.2
		C41.8,7.8,42.2,7.7,42.6,7.6z M41.6,6.8c0.3-0.1,0.5-0.1,0.8-0.2c-0.2,0-0.4,0.1-0.5,0.1C41.8,6.8,41.7,6.8,41.6,6.8z M76.8,26.7
		c0-0.1-0.1-0.2-0.1-0.3c-0.1-0.5-0.2-1.1-0.4-1.6c-0.9-3.4-2.9-6.3-5.6-8.5c-0.5-0.4-1.1-0.9-1.7-1.3c0.9,0.5,1.8,0.9,2.6,1.4
		c0.2,0.2,0.4,0.4,0.6,0.6c2.4,3.1,4.4,6.6,5.7,10.3c0.6,2.3,0.9,4.8,0.8,7.2c0,0.5-0.1,1-0.1,1.5c-0.2-0.8-0.4-1.5-0.6-2.3
		C78.1,31.3,77.8,28.9,76.8,26.7z M64.1,59.3c-0.3-0.1-0.7-0.1-1-0.1c2.4-1.3,4.6-3,6.5-5c1-1,1.8-2.1,2.6-3.2
		c-0.7,1.3-1.5,2.6-2.3,3.9C68.2,56.6,66.2,58,64.1,59.3z M67.7,59.1c2.3-1.3,4.5-2.8,6.3-4.7c-1.6,2.1-3.5,3.9-5.7,5.3
		c-0.4,0-0.8,0-1.1,0C67.3,59.5,67.5,59.3,67.7,59.1z M67,60.4c-0.3,0.1-0.6,0.3-0.9,0.4c0.2-0.2,0.3-0.3,0.4-0.5
		C66.7,60.4,66.8,60.4,67,60.4z M47.7,62.7c-1.9-0.3-3.8-0.8-5.6-1.3c0.8,0.1,1.5,0.1,2.3,0.2c2.3,0.3,4.7,0.2,7-0.6
		c0.3-0.1,0.7-0.2,1-0.4c1.6,0.1,3.2,0,4.9-0.2c-0.3,0.2-0.6,0.5-1,0.7C53.4,61.9,50.6,62.4,47.7,62.7z M53,63C53,63,53,63,53,63
		L53,63C53,63,53,63,53,63z M48.7,65c-2.3,0.1-4.6,0-6.9-0.5c2.8,0.1,5.6,0,8.3-0.3c0.2,0,0.5-0.1,0.8-0.1
		C50.2,64.4,49.5,64.7,48.7,65z M49.3,65.8c-0.7,0.2-1.4,0.4-2.1,0.6c0,0-0.1,0-0.1,0c0.6-0.2,1.2-0.4,1.7-0.6
		C49,65.8,49.2,65.8,49.3,65.8z M37.1,51.5c-0.5-0.4-0.9-0.9-1.3-1.4c1.3,0.6,2.6,1.2,3.8,1.6c0.3,0.1,0.7,0.2,1.1,0.4
		c0.1,0.1,0.2,0.2,0.4,0.2c3.2,2,7,2.5,10.8,2c-1.1,0.5-2.3,0.8-3.4,1.2c-1.4,0.1-2.9,0.1-4.3,0C41.6,54.7,39.2,53.3,37.1,51.5z
		 M44.1,58c-0.5-0.1-1.1-0.2-1.6-0.2c-0.8-0.3-1.6-0.6-2.4-0.9c0.2,0,0.4,0.1,0.5,0.1C41.8,57.3,43,57.7,44.1,58z M29.8,55.4
		c-0.1-0.5-0.3-0.9-0.4-1.4c0.2,0.2,0.5,0.3,0.8,0.5c0.5,0.8,1.1,1.6,1.8,2.2C31.2,56.3,30.5,55.8,29.8,55.4z M33.5,58.4
		c-1.1-0.5-2.2-1-3.2-1.6c0,0,0-0.1-0.1-0.2C31.3,57.3,32.4,57.8,33.5,58.4z M28.3,46.4c-0.2-0.6-0.4-1.3-0.6-1.9c0-0.2,0-0.3,0-0.5
		c0.1,0.2,0.3,0.3,0.4,0.5c0.3,0.6,0.6,1.2,0.9,1.8c0.1,0.5,0.2,1.1,0.4,1.6C29.1,47.5,28.7,47,28.3,46.4z M28.5,53.9
		c-0.1-0.3-0.2-0.5-0.3-0.8c0,0,0.1,0.1,0.2,0.1C28.4,53.5,28.5,53.7,28.5,53.9z M23,43.5c0.1-0.6,0.1-1.2,0.2-1.8
		c0.4,1,1,2.1,1.6,3c0.1,0.5,0.2,1.1,0.3,1.6C24.4,45.4,23.6,44.5,23,43.5z M24.7,47c-0.3-0.2-0.5-0.5-0.8-0.7
		c-0.1-0.2-0.1-0.3-0.2-0.5C24,46.2,24.4,46.6,24.7,47z M22.1,48.2c0,0.2,0,0.4,0.1,0.7c-0.1-0.1-0.1-0.2-0.1-0.2
		c-0.2-0.4-0.4-0.7-0.6-1.1c0-0.2,0-0.4,0-0.6C21.7,47.3,21.9,47.8,22.1,48.2z M21.6,45.1c0-0.2,0-0.4,0-0.6
		c0.1,0.2,0.2,0.5,0.4,0.7c0,0.4,0,0.7,0,1.1C21.9,45.9,21.7,45.5,21.6,45.1z M22.2,40.2c0-0.3,0.1-0.7,0.2-1c0.1,0.3,0.2,0.7,0.3,1
		c-0.1,0.4-0.2,0.9-0.2,1.3C22.3,41.1,22.3,40.7,22.2,40.2z M22.5,34.8c0-0.9,0-1.7,0.1-2.6c0.2-0.7,0.3-1.4,0.6-2.1
		c-0.1,0.9-0.1,1.7-0.1,2.6C22.9,33.5,22.7,34.1,22.5,34.8z M23.2,35.2c0.1,0.6,0.2,1.2,0.3,1.8c-0.2,0.5-0.3,1.1-0.4,1.6
		c-0.1-0.5-0.2-0.9-0.3-1.4C22.9,36.6,23,35.9,23.2,35.2z M23.5,40.2c0.1-0.5,0.2-1,0.3-1.5c0.1,0.3,0.1,0.6,0.2,0.9
		c0.1,0.2,0.1,0.5,0.2,0.7c0,0.7,0.1,1.5,0.2,2.2c-0.1-0.2-0.2-0.5-0.4-0.8C23.9,41.2,23.7,40.7,23.5,40.2z M25.1,40
		c0-0.2,0-0.5,0-0.7c0.3,0.6,0.6,1.2,0.8,1.9c0,0.2,0,0.5,0,0.7C25.6,41.3,25.3,40.7,25.1,40z M25.6,33.7c0.2-0.9,0.5-1.8,0.8-2.6
		c-0.3,1.8-0.4,3.5-0.3,5.3C26,37.2,26,38,25.9,38.8C25.5,37.1,25.4,35.4,25.6,33.7z M26.1,51.1c0.1,0.2,0.3,0.3,0.4,0.5
		c0.1,0.5,0.2,1,0.4,1.5c-0.3-0.3-0.7-0.6-1-0.9C26,51.8,26,51.4,26.1,51.1z M27.1,46c0,0.2,0,0.3,0,0.5c-0.1-0.1-0.2-0.2-0.2-0.3
		c0-0.1,0-0.3,0-0.4C27,45.8,27,45.9,27.1,46z M26.9,36.4c0-0.2,0-0.4,0.1-0.5c0,0.1,0,0.2,0,0.4c0,0.2-0.1,0.3-0.1,0.5
		C27,36.7,27,36.6,26.9,36.4z M27.3,47.9c0,0.2,0.1,0.5,0.1,0.8c-0.2-0.2-0.4-0.4-0.6-0.6c0-0.3,0-0.5-0.1-0.8
		C26.9,47.5,27.1,47.7,27.3,47.9z M27.2,54.4c0.1,0.1,0.2,0.1,0.3,0.2c0,0,0,0.1,0,0.1c0,0.1,0.1,0.2,0.1,0.3
		c-0.6-0.5-1.2-1-1.8-1.6c0-0.1,0-0.2,0-0.3C26.2,53.6,26.7,54,27.2,54.4z M27.5,51.5c-0.2-0.5-0.4-1-0.5-1.5c0-0.1,0-0.2,0-0.3
		c0.2,0.2,0.4,0.3,0.6,0.4c0.1,0.6,0.2,1.2,0.4,1.8c-0.1-0.1-0.2-0.2-0.3-0.2C27.7,51.6,27.6,51.5,27.5,51.5z M49.6,13.4
		c-1.4-0.1-2.8,0-4.2,0.1c0.3-0.2,0.6-0.4,0.9-0.5h0.1C47.4,13.1,48.5,13.2,49.6,13.4z M47.2,11.5c0.1,0,0.2-0.1,0.3-0.1
		C47.4,11.5,47.3,11.5,47.2,11.5C47.2,11.5,47.2,11.5,47.2,11.5z M73.7,27.9c1,1.3,1.8,2.8,2.4,4.3c0,0.6-0.1,1.3-0.2,1.9
		C75.6,31.9,74.8,29.8,73.7,27.9z M75.5,36.9c0,0.1,0,0.2-0.1,0.4c0-0.1,0-0.2,0-0.2c0-0.1,0.1-0.2,0.1-0.4
		C75.5,36.7,75.5,36.8,75.5,36.9z M71.6,24.3c-0.1-0.2-0.2-0.4-0.3-0.6c0.7,0.8,1.4,1.6,2,2.4C72.8,25.5,72.2,24.9,71.6,24.3z
		 M72.3,40.9c0,0.1,0,0.2,0,0.3c0,0,0,0-0.1,0.1C72.3,41.2,72.3,41.1,72.3,40.9z M63,56.2c0.2-0.2,0.4-0.5,0.7-0.7
		c3-2.1,5.3-5.1,6.9-8.6c0.5-1.3,1-2.7,1.4-4.1c0.1-0.1,0.2-0.2,0.3-0.4c-0.1,1.9-0.4,3.8-1,5.7C69.2,51.5,66.5,54.4,63,56.2z
		 M69.6,51.9c-0.7,1.1-1.6,2.1-2.7,3c-0.9,0.7-2,1.3-3.1,1.8c1.9-1,3.6-2.4,5.1-4C69.1,52.4,69.4,52.2,69.6,51.9z M52.4,58.4
		c-0.5,0-1,0-1.5-0.1c0.6-0.3,1.1-0.5,1.6-0.8c1.3-0.1,2.6-0.3,3.8-0.6c-0.4,0.4-0.9,0.8-1.4,1.2C54.1,58.2,53.3,58.3,52.4,58.4z
		 M53,59.4c-0.1,0-0.2,0.1-0.3,0.1c-0.2,0.1-0.5,0.2-0.7,0.2c-1.2-0.1-2.4-0.2-3.6-0.4c0.1,0,0.2-0.1,0.3-0.1c0.7,0,1.4,0,2.1,0
		C51.5,59.3,52.2,59.3,53,59.4z M30,46.3c0.3,0.2,0.5,0.5,0.8,0.7c0.4,0.8,0.8,1.6,1.2,2.3C31.2,48.4,30.6,47.3,30,46.3z M31.7,50.2
		c-0.2-0.2-0.5-0.5-0.8-0.7c-0.1-0.2-0.2-0.5-0.3-0.7C30.9,49.2,31.3,49.7,31.7,50.2z M29.5,42v-0.1c0,0.2,0.1,0.3,0.2,0.5
		c0.6,1.5,1.4,3,2.3,4.4c-0.2-0.1-0.4-0.3-0.6-0.4c-0.2-0.5-0.5-1.1-0.7-1.6C30.2,43.9,29.8,43,29.5,42z M29.9,45.1
		c-0.1-0.1-0.2-0.2-0.3-0.3c0-0.2,0-0.3,0-0.5C29.7,44.6,29.8,44.9,29.9,45.1z M29.2,36.6c-0.1-0.6-0.1-1.1-0.2-1.6v-0.3
		c0-0.5,0-0.9,0.1-1.4c0.2-0.5,0.3-1,0.5-1.5c0.6-1.1,1.4-2,2.2-2.9c0,0.1,0,0.2-0.1,0.3C30.6,31.6,29.8,34.1,29.2,36.6z M29.7,38.6
		c0.3-2.4,1-4.8,1.9-7c0,2,0.6,4,1.7,5.7c0,0.5,0.1,0.9,0.1,1.4c0.5,4.3,2.3,8.9,5.5,12c-1.5-0.6-3-1.3-4.4-2.2
		c-0.8-1.1-1.5-2.3-2.1-3.5C31.3,43,30.3,40.8,29.7,38.6z M37,22.9c0.6-0.4,1.2-0.7,1.8-0.9c-0.3,0.2-0.6,0.5-0.9,0.8
		c-0.8,0.5-1.5,1-2.2,1.6c-0.7,0.6-1.3,1.3-1.9,2C34.6,24.9,35.6,23.8,37,22.9z M36,21.6c0.8-0.9,1.8-1.8,2.7-2.7
		c0.7-0.2,1.3-0.4,2-0.5c0,0.1,0.1,0.1,0.1,0.2c0.1,0.2,0.2,0.3,0.4,0.5C39.3,19.6,37.6,20.5,36,21.6z M48.5,16.1
		c1.3,0.6,2.5,1.2,3.8,1.8c0.1,0,0.1,0.1,0.2,0.1c-0.7-0.1-1.5-0.1-2.2-0.1c-2.6-0.7-5.3-1-8-0.7c0-0.1,0-0.2,0-0.3
		C44.3,16.4,46.4,16.1,48.5,16.1z M47,14.6c0.4,0.1,0.8,0.2,1.3,0.3c-0.3,0-0.5-0.1-0.8-0.1C47.3,14.7,47.1,14.7,47,14.6z
		 M68.7,25.9c0.1,0.3,0.2,0.5,0.4,0.8c-0.3-0.4-0.7-0.8-1-1.2C68.3,25.6,68.5,25.8,68.7,25.9z M68.1,21.3c0,0,0.1,0.1,0.1,0.1
		c0,0,0,0,0,0C68.1,21.3,68.1,21.3,68.1,21.3z M70.1,36.3c-0.2-1.6-0.6-3.2-1.3-4.7c-0.6-1.5-1.5-2.9-2.5-4.1
		c-0.1-0.5-0.2-1.1-0.3-1.6c-0.2-0.7-0.6-1.3-1-1.8C68.3,27.4,70.4,31.6,70.1,36.3z M71.7,33.9c0-0.1,0-0.2,0-0.3
		c-0.2-2-0.7-4-1.4-5.9c0-0.2-0.1-0.3-0.1-0.5c0.6,1.6,1.1,3.2,1.5,4.9c0.1,0.4,0.1,0.8,0.2,1.2C71.8,33.5,71.8,33.7,71.7,33.9z
		 M71.8,39.2c-0.1,1.1-0.4,2.1-0.6,3.2c0,0,0,0-0.1,0.1c0.2-0.9,0.4-1.8,0.5-2.7c0,0,0-0.1,0-0.1C71.7,39.5,71.8,39.3,71.8,39.2z
		 M60.9,51.4c0.1-0.2,0.1-0.3,0.2-0.5c1.5-1,2.9-2.3,4-3.8c0.2-0.1,0.4-0.2,0.6-0.3C64.3,48.6,62.7,50.1,60.9,51.4z M63.9,50
		c-0.6,0.6-1.2,1.2-1.9,1.7c-0.3,0.2-0.5,0.3-0.8,0.5c0.8-0.6,1.6-1.2,2.3-1.8C63.6,50.2,63.7,50.1,63.9,50z M48.7,50.9
		c0.4,0,0.9,0,1.3-0.1c-0.6,0.2-1.3,0.3-1.9,0.5C48.3,51.1,48.5,51,48.7,50.9z M48.3,49.5c0.4,0,0.8-0.1,1.1-0.2
		c0,0-0.1,0.1-0.1,0.1c-0.1,0.1-0.1,0.1-0.2,0.2C48.8,49.6,48.5,49.5,48.3,49.5z M45.5,48.8c-1.8-0.6-3.5-1.6-5-2.8
		c-0.5-0.7-1-1.4-1.3-2.2c0.5,0.2,0.9,0.4,1.4,0.6c2.8,1.6,6.1,2.1,9.3,1.6c0.8,0.1,1.6,0.2,2.4,0.2c-0.5,0.7-1.1,1.4-1.8,2.1
		C48.9,48.7,47.2,49,45.5,48.8z M34.7,31.1c-0.1,0.1-0.2,0.2-0.2,0.3c0.3-1.8,0.9-3.5,1.8-5.1c0.2-0.1,0.4-0.1,0.7-0.2
		c-0.9,1.5-1.6,3-2.1,4.7C34.7,30.8,34.7,31,34.7,31.1z M34.7,40.9c-0.1-0.3-0.1-0.6-0.2-0.9c0,0,0.1,0.1,0.1,0.1
		C34.6,40.4,34.6,40.7,34.7,40.9z M35.4,25.7c0.2-0.2,0.3-0.3,0.5-0.5c-0.1,0.1-0.2,0.2-0.2,0.4c0,0,0,0-0.1,0
		C35.5,25.7,35.4,25.7,35.4,25.7z M36.8,35c0,1,0.1,2,0.4,2.9c0,0.8,0.1,1.7,0.2,2.5c-0.4-0.5-0.7-1.1-0.9-1.7
		c-0.1-0.2-0.1-0.3-0.2-0.5c0-0.3-0.1-0.7-0.1-1c0-0.5,0-0.9,0-1.4C36.4,35.6,36.6,35.3,36.8,35z M36.6,34c0.1-0.4,0.2-0.8,0.4-1.2
		c-0.1,0.3-0.1,0.6-0.1,0.9C36.8,33.8,36.7,33.9,36.6,34z M35.6,34.6c0-0.3,0-0.7,0-1c0.1-0.9,0.3-1.9,0.5-2.8
		c0.4-0.3,0.8-0.5,1.2-0.7C36.5,31.5,35.9,33,35.6,34.6z M36,41.7c0.6,1.2,1.3,2.2,2.2,3.2c0.1,0.2,0.3,0.4,0.4,0.6
		c0.3,1.3,0.8,2.5,1.6,3.6c-0.8-0.7-1.5-1.5-2.2-2.4c-1.1-1.5-2.1-3.5-2.6-5.5C35.7,41.4,35.8,41.6,36,41.7z M45.3,21.5
		c0.1,0,0.2,0,0.3,0c0.2,0,0.3,0.1,0.5,0.1c-1,0.4-1.9,0.9-2.6,1.5c-0.1,0-0.2,0-0.3,0C43.9,22.4,44.6,21.9,45.3,21.5z M43.3,19.2
		c0.8-0.2,1.5-0.3,2.3-0.4C45,19,44.5,19.2,44,19.5c-0.1,0-0.2,0.1-0.3,0.2C43.6,19.5,43.4,19.4,43.3,19.2z M51.6,15.6
		c-0.1-0.1-0.3-0.2-0.4-0.3c1.1,0.2,2.1,0.4,3.2,0.7c0,0,0,0,0,0.1C54.2,16,54,16,53.8,15.9C53.1,15.8,52.3,15.6,51.6,15.6z
		 M52,16.9C52,16.9,51.9,16.9,52,16.9c-0.5-0.2-0.9-0.4-1.3-0.6c0.2,0,0.4,0,0.6,0.1C51.5,16.5,51.8,16.7,52,16.9z M59.7,24.5
		c0.2,0.2,0.4,0.4,0.6,0.5c-0.6-0.3-1.1-0.6-1.7-0.8c-0.5-0.2-1.1-0.4-1.7-0.5c-0.3-0.2-0.5-0.4-0.8-0.6
		C57.4,23.3,58.6,23.8,59.7,24.5z M57.3,21.8C57.3,21.9,57.3,21.9,57.3,21.8c0.2,0.1,0.3,0.1,0.4,0.2C57.5,22,57.4,21.9,57.3,21.8z
		 M59.8,17.7c0.2,0.1,0.4,0.3,0.5,0.4c-1.7-0.8-3.4-1.4-5.2-1.9c0,0,0,0,0,0C56.7,16.6,58.3,17.1,59.8,17.7z M55.3,15.5
		c0-0.1,0-0.3,0-0.4c0.3,0.1,0.5,0.2,0.8,0.3c0.4,0.2,0.9,0.4,1.3,0.7c-0.2-0.1-0.5-0.1-0.7-0.2C56.2,15.7,55.8,15.6,55.3,15.5z
		 M62.6,20.2c0.3,0.3,0.7,0.7,1,1c0.6,0.6,1.1,1.2,1.6,1.9c-0.1,0-0.1-0.1-0.2-0.1c-1.5-1.4-3.2-2.6-4.9-3.6
		c-1.1-0.7-2.4-1.3-3.6-1.9C58.7,18.2,60.7,19.1,62.6,20.2z M64.8,27.9c0.2,0.6,0.4,1.2,0.6,1.8c-0.2-0.3-0.5-0.6-0.7-1
		c-0.8-1-1.6-2-2.5-3c-0.3-0.5-0.6-1-1-1.5c-0.7-0.9-1.5-1.6-2.3-2.3c0,0,0,0,0.1,0C61.2,23.5,63.3,25.6,64.8,27.9z M61.5,22.6
		c1.7,0.6,3.1,1.8,3.7,3.6c-0.5-0.5-1-1-1.5-1.5C63.1,23.9,62.3,23.2,61.5,22.6z M64.5,29.9c0.3,0.3,0.5,0.7,0.8,1.1
		c-0.1,0.5-0.3,1-0.5,1.5C64.9,31.6,64.8,30.7,64.5,29.9z M63.3,29c0.5,0.9,0.8,2,0.8,3.1c-0.2-0.3-0.5-0.7-0.7-1
		C63.4,30.4,63.4,29.7,63.3,29z M63.8,34c-0.2,0.8-0.5,1.5-0.8,2.2c0,0.1-0.1,0.1-0.1,0.2c0-0.6-0.1-1.1-0.2-1.7
		c0.2-0.5,0.3-1,0.4-1.5C63.4,33.4,63.6,33.7,63.8,34z M62.9,37.7c0.1-0.2,0.2-0.4,0.3-0.5c0.4-0.6,0.9-1.3,1.2-2
		c0.2,0.5,0.3,1.1,0.3,1.6c0,0.2,0,0.3,0,0.5c-0.5,1.2-1.2,2.3-2.1,3.3C62.8,39.7,62.9,38.7,62.9,37.7z M65.7,32.3
		c0,0.8-0.1,1.7-0.2,2.5c-0.1-0.3-0.3-0.6-0.4-0.9C65.3,33.4,65.5,32.8,65.7,32.3z M62.6,47.4c-0.1,0-0.3,0.1-0.4,0.2
		c0.1-0.4,0.2-0.7,0.2-1c0.9-0.6,1.8-1.2,2.6-1.9C64.3,45.6,63.5,46.5,62.6,47.4z M65.2,45.8c-0.2,0.2-0.3,0.5-0.5,0.7
		c-0.1,0-0.1,0.1-0.2,0.1C64.7,46.3,64.9,46,65.2,45.8z M39.1,41.6c0.3,0.3,0.6,0.6,0.9,0.9c-0.2,0-0.5-0.1-0.8-0.2
		c-0.1,0-0.1-0.1-0.2-0.1C39.1,42.1,39.1,41.9,39.1,41.6z M39,37.6c0-0.2,0-0.5,0-0.7c0-0.2,0-0.4,0-0.6c0-0.4,0.1-0.8,0.2-1.2
		c0-0.1,0-0.1,0-0.1c0.1,0.4,0.2,0.8,0.4,1.1C39.4,36.6,39.2,37.1,39,37.6z M39.3,40.3C39.3,40.3,39.3,40.3,39.3,40.3
		c0-0.1,0-0.1,0-0.2c0.6,0.8,1.4,1.6,2.2,2.2C40.5,42,39.7,41.4,39.3,40.3z M41,43.4c0.2,0.2,0.5,0.3,0.8,0.5
		c-0.3-0.1-0.6-0.2-0.9-0.2c-0.1-0.1-0.2-0.2-0.4-0.2C40.7,43.4,40.9,43.4,41,43.4z M40.5,40.3c-0.4-0.4-0.7-0.8-1-1.3
		c0.2-0.7,0.4-1.3,0.6-2c0.6,0.9,1.4,1.6,2.4,2.1c-0.1,0.9,0,1.9,0.5,2.8c0.1,0.2,0.2,0.4,0.3,0.5c0,0-0.1,0-0.1,0
		C42.1,41.9,41.3,41.1,40.5,40.3z M40,35.1c0,0,0,0.1,0.1,0.1c0,0,0,0,0,0C40,35.2,40,35.1,40,35.1z M41.3,36.6
		c0.3,0.2,0.7,0.4,1.1,0.4c0.1,0.2,0.2,0.4,0.4,0.5c-0.1,0.2-0.1,0.5-0.2,0.7c-0.9-0.5-1.6-1.2-2.1-2.1c0-0.1,0.1-0.2,0.1-0.2
		C40.8,36.2,41,36.5,41.3,36.6z M41,35.2c0.1-0.2,0.2-0.3,0.3-0.5c0,0,0,0,0,0l0.2,0.5c0.1,0.2,0.2,0.5,0.3,0.7c0,0-0.1,0-0.1,0
		C41.4,35.8,41.2,35.5,41,35.2z M48.3,24.3c0.5,0.1,0.9,0.2,1.4,0.4c-0.6,0.1-1.2,0.3-1.8,0.6c-0.4-0.1-0.7-0.1-1.1-0.2
		C47.3,24.8,47.8,24.5,48.3,24.3z M47.9,22.8c0,0,0.1,0,0.1,0c0.2-0.1,0.5-0.1,0.7-0.2c0,0,0.1,0.1,0.2,0.1
		C48.5,22.7,48.2,22.8,47.9,22.8z M51.3,29.2c-0.6,0.1-1.2,0.3-1.8,0.6c-0.2-0.1-0.5-0.3-0.7-0.4c0.1-0.2,0.3-0.4,0.4-0.6
		c0.1-0.1,0.2-0.3,0.4-0.4c0.1,0,0.2,0,0.4,0C50.5,28.5,50.9,28.8,51.3,29.2z M50.6,25.4c0.1,0,0.3,0,0.4,0c0,0,0,0.1,0,0.1
		C50.9,25.5,50.8,25.5,50.6,25.4z M51.7,29.9c0.1,0.2,0.1,0.3,0.1,0.5c0,0.1,0,0.2,0,0.3c-0.4-0.1-0.9-0.1-1.3-0.1
		c-0.1-0.1-0.2-0.2-0.3-0.3C50.7,30.2,51.2,30,51.7,29.9z M51.4,27.5c0.1,0,0.2,0,0.3,0c0,0,0,0.1,0,0.1
		C51.5,27.6,51.5,27.5,51.4,27.5z M54,32.1c0.1,0,0.3,0.1,0.4,0.1c0.2,0.1,0.5,0.2,0.7,0.3c0,0.2-0.1,0.3-0.1,0.5
		c-0.2,0.4-0.5,0.8-0.8,1.1c-0.2-0.4-0.5-0.7-0.8-1.1C53.6,32.7,53.8,32.4,54,32.1z M53.9,28.3c0,0,0.1,0.1,0.1,0.1
		c0,0.1,0,0.1,0,0.2v0C54,28.5,53.9,28.4,53.9,28.3z M54.2,31.3C54.2,31.3,54.2,31.3,54.2,31.3C54.2,31.3,54.2,31.3,54.2,31.3
		C54.2,31.3,54.2,31.3,54.2,31.3z M55.4,30.7c0,0.2,0,0.4-0.1,0.6c-0.3-0.4-0.6-0.7-0.9-1.1c0-0.1,0.1-0.2,0.1-0.2
		C54.8,30.2,55.1,30.5,55.4,30.7z M54.7,28.9C54.7,28.9,54.8,28.9,54.7,28.9c0.1-0.1,0.1,0,0.2,0C54.9,28.9,54.8,28.9,54.7,28.9z
		 M60.7,36.1c0.1,0.2,0.2,0.5,0.3,0.7c-0.1,0.3-0.3,0.5-0.5,0.8c-0.1-0.3-0.2-0.6-0.2-0.9C60.4,36.5,60.6,36.3,60.7,36.1z
		 M60.2,35.4c0-0.1,0-0.3,0-0.4c0,0.1,0.1,0.2,0.1,0.2C60.3,35.2,60.3,35.3,60.2,35.4z M61.3,37.8c0,0.2,0.1,0.3,0.1,0.5
		c-0.2,0.2-0.4,0.5-0.6,0.7c0-0.1,0-0.2-0.1-0.3C60.9,38.4,61.1,38.1,61.3,37.8z M61.8,34.2c0,0.2,0.1,0.3,0.1,0.5
		c-0.1,0.4-0.3,0.7-0.4,1.1c-0.1-0.2-0.1-0.4-0.2-0.5C61.5,34.9,61.6,34.6,61.8,34.2z M61.8,31.1c-0.1-0.3-0.2-0.6-0.4-0.9
		c0.1,0.1,0.2,0.1,0.2,0.2c0.2,0.2,0.3,0.3,0.5,0.5c0,0.1,0,0.3-0.1,0.4C62,31.2,61.9,31.2,61.8,31.1z M61.7,39.4
		c0.1,0.5,0.1,0.9,0.2,1.4c-0.1,0.3-0.1,0.6-0.2,0.9c-0.2,0.2-0.4,0.3-0.6,0.5c0-0.7,0-1.4-0.1-2C61.2,39.9,61.4,39.6,61.7,39.4z
		 M61.8,36.8c0.1-0.2,0.2-0.4,0.3-0.6c0,0.4,0,0.8,0,1.1c0,0-0.1,0.1-0.1,0.1C62,37.3,61.9,37,61.8,36.8z M62,29.6
		c-0.4-0.4-0.8-0.7-1.3-1c-0.7-1.3-1.6-2.6-2.6-3.7c0.9,0.3,1.7,0.7,2.5,1.2c0.4,0.3,0.9,0.6,1.2,1c0.3,0.9,0.5,1.8,0.4,2.7
		C62.2,29.8,62.1,29.7,62,29.6z M57.1,31.4c0.1-0.2,0.1-0.3,0.2-0.5c0.7,0.7,1.3,1.4,1.8,2.1c0.2,0.6,0.3,1.1,0.3,1.7
		C58.8,33.6,58.1,32.4,57.1,31.4z M59.8,38.1c0,0.1,0.1,0.2,0.1,0.4c-0.2,0.2-0.3,0.4-0.5,0.6C59.6,38.8,59.7,38.5,59.8,38.1z
		 M55.5,34c0-0.1,0-0.1,0-0.2c0.1-0.1,0.1-0.1,0.2-0.2c0.5,1.3,0.6,2.7-0.3,3.9c-0.1-0.6-0.3-1.2-0.5-1.8
		C55.1,35.1,55.3,34.6,55.5,34z M55.4,27.6C55.4,27.6,55.4,27.7,55.4,27.6C55.5,27.7,55.5,27.7,55.4,27.6
		C55.4,27.7,55.4,27.6,55.4,27.6z M55.4,41c1.1-0.6,2.2-1.4,3.1-2.3c0.1-0.1,0.3-0.3,0.4-0.4c-0.1,0.3-0.2,0.6-0.4,0.8
		c-0.5,0.9-1.1,1.6-1.9,2.3c-0.5,0.3-1,0.5-1.5,0.7C55.3,41.7,55.3,41.4,55.4,41z M56.3,39.5c-0.2,0.2-0.5,0.4-0.8,0.5
		c0-0.1,0-0.1,0-0.2c0-0.4,0-0.9,0-1.3c0.4-0.4,0.7-0.8,0.9-1.4c0.6-1.4,0.5-2.8-0.1-4.1c1.1,0.7,2,1.6,2.7,2.7
		c0.1,0.3,0.2,0.5,0.3,0.8C58.5,37.7,57.4,38.7,56.3,39.5z M56.7,32.1c0.2,0.2,0.3,0.4,0.5,0.6c-0.2-0.1-0.4-0.3-0.6-0.4
		C56.7,32.3,56.7,32.2,56.7,32.1z M56.6,30.8l-0.2-0.2c0-0.2,0-0.4,0-0.6c0.1,0.1,0.2,0.2,0.3,0.3C56.7,30.5,56.6,30.6,56.6,30.8z
		 M57,29.2C57,29.2,57,29.2,57,29.2c-0.1,0-0.3,0-0.4,0c-0.1-0.1-0.2-0.1-0.3-0.2v-0.5C56.6,28.7,56.8,28.9,57,29.2z M56.7,27.8
		c0.1,0,0.2,0,0.3,0.1c0,0.1,0,0.2,0,0.2C57,28,56.9,27.9,56.7,27.8z M57.8,29c0-0.3,0-0.6,0-0.8c0.8,0.3,1.5,0.6,2.2,1.1
		c0.2,0.4,0.4,0.9,0.6,1.3c-0.8-0.4-1.6-0.7-2.4-0.9C58.1,29.3,58,29.1,57.8,29z M59.3,27.9c-0.5-0.2-1-0.4-1.6-0.6
		c-0.1-0.6-0.3-1.3-0.7-1.9c-0.2-0.3-0.4-0.6-0.7-0.9c0,0,0.1,0,0.1,0C57.6,25.5,58.6,26.6,59.3,27.9z M56.9,27
		c-0.2,0-0.5-0.1-0.7-0.1c-0.2-0.8-0.5-1.6-1-2.2c-0.1-0.2-0.3-0.3-0.4-0.5c0.1,0,0.2,0,0.2,0C55.9,25,56.6,25.9,56.9,27z
		 M46.2,26.4c-0.4,0-0.9-0.1-1.3-0.1c0.3-0.2,0.6-0.5,0.9-0.7c0.3,0,0.7,0.1,1,0.2c0,0,0,0,0,0C46.6,26.1,46.4,26.2,46.2,26.4z
		 M46.5,32.9c0,0,0,0.1,0,0.1C46.5,33,46.5,33,46.5,32.9C46.5,32.9,46.5,32.9,46.5,32.9z M46,37.5L46,37.5C46,37.5,46,37.5,46,37.5
		C46,37.5,46,37.5,46,37.5z M45.9,36.6C45.9,36.6,45.9,36.6,45.9,36.6C46,36.6,46,36.6,45.9,36.6C45.9,36.6,45.9,36.6,45.9,36.6z
		 M45.6,35.9C45.6,35.9,45.6,35.9,45.6,35.9c-0.1-0.3-0.1-0.7-0.1-1c0.1-0.3,0.2-0.6,0.3-0.9c0.1,0.2,0.2,0.4,0.3,0.6
		c-0.1,0.4-0.1,0.9-0.2,1.3C45.9,35.8,45.8,35.9,45.6,35.9z M45.4,30.9c-0.1-0.4-0.1-0.8-0.1-1.1c0.1,0,0.3,0,0.4,0.1
		C45.6,30.2,45.5,30.6,45.4,30.9z M46.2,31.7c0,0,0-0.1,0-0.1c0.1,0,0.1,0,0.2,0C46.3,31.6,46.3,31.7,46.2,31.7z M46.3,30.8
		c0,0,0-0.1,0-0.2C46.4,30.7,46.4,30.7,46.3,30.8C46.4,30.8,46.4,30.8,46.3,30.8z M47,35.5c0,0-0.1,0-0.1,0c0-0.1,0-0.1,0-0.2
		C46.9,35.4,46.9,35.4,47,35.5z M46.8,36.4c0.3-0.1,0.6-0.2,0.9-0.3c0.3,0.2,0.6,0.4,0.9,0.5c0.2,0.1,0.4,0.2,0.6,0.2
		c-0.8,0.1-1.6,0.2-2.4,0.1C46.8,36.6,46.8,36.5,46.8,36.4z M50.7,36c-0.6,0.1-1.2,0-1.8-0.2c-0.1,0-0.2-0.1-0.3-0.2
		c0.4-0.2,0.8-0.4,1.1-0.6c0.5,0,1-0.1,1.4-0.3c0,0,0,0.1,0,0.1C51,35.3,50.8,35.6,50.7,36z M51,37.2c-0.2,1.2-0.7,2.3-1.7,2.6
		C50,39,50.6,38.1,51,37.2z M48,29c-0.1,0-0.2-0.1-0.4-0.1c0.2-0.2,0.5-0.3,0.7-0.4C48.2,28.7,48.1,28.8,48,29z M50,32.3
		c0.2,0.2,0.3,0.4,0.5,0.6c-1,0.3-2-0.2-2.6-1C48.5,31.6,49.3,31.7,50,32.3z M48.3,33.3c0.7,0.4,1.4,0.5,2,0.3
		c-0.3,0.2-0.6,0.4-0.9,0.6c-0.8,0-1.6-0.2-2.2-0.7c0.1-0.3,0.1-0.6,0.2-0.9C47.6,32.9,47.9,33.1,48.3,33.3z M48.2,34.9
		c-0.2,0.1-0.3,0.1-0.4,0.2c-0.2-0.2-0.4-0.4-0.6-0.6C47.5,34.7,47.8,34.8,48.2,34.9z M47.2,30.6L47.2,30.6c0-0.1-0.1-0.3-0.1-0.4
		c0.1,0,0.2,0,0.2,0.1C47.3,30.4,47.2,30.5,47.2,30.6z M49.6,37.5c-0.7,0.6-1.6,1-2.5,1.3c-0.1-0.4-0.2-0.7-0.3-1.1
		C47.7,37.7,48.7,37.7,49.6,37.5z M49,38.8c-0.2,0.3-0.5,0.6-0.8,0.9c-0.1,0-0.1,0-0.2-0.1c-0.2-0.1-0.3-0.1-0.5-0.2
		C48.1,39.3,48.6,39,49,38.8z M48.5,40.6c0,0,0.1,0,0.1,0c0.8,0.1,1.8,0,2.7-0.1c-0.2,0.2-0.3,0.4-0.5,0.6c-0.2,0.1-0.3,0.2-0.5,0.3
		c-0.1,0-0.1,0-0.2,0C49.4,41.3,48.9,41.1,48.5,40.6C48.4,40.7,48.4,40.7,48.5,40.6z M50.9,42.3c0.4,0,0.9,0,1.3-0.1
		c0.8-0.1,1.5-0.4,2.3-0.7c-0.1,0.3-0.1,0.5-0.2,0.8c-1.2,0.3-2.4,0.3-3.5,0.1C50.8,42.4,50.8,42.3,50.9,42.3z M51.9,41.4
		c0.6-0.4,1.1-0.9,1.6-1.5c0.5-0.2,0.9-0.4,1.3-0.7c0,0.4,0,0.8-0.1,1.3C53.8,41,52.8,41.3,51.9,41.4z M54.5,36.8
		c0.1,0.5,0.2,1,0.2,1.4c-0.2,0.1-0.3,0.3-0.5,0.4C54.5,38,54.5,37.4,54.5,36.8z M53.1,31c-0.2,0-0.3-0.1-0.5-0.1c0-0.4,0-0.8,0-1.1
		c0.3,0.2,0.5,0.4,0.8,0.7C53.3,30.6,53.2,30.8,53.1,31z M52.5,27.9c0-0.1,0-0.2-0.1-0.4c0.1,0,0.1,0.1,0.2,0.1
		c0.1,0.2,0.2,0.3,0.3,0.5C52.8,28.1,52.6,28,52.5,27.9z M52.6,31.7C52.6,31.7,52.6,31.7,52.6,31.7C52.5,31.7,52.6,31.7,52.6,31.7
		C52.6,31.7,52.6,31.7,52.6,31.7C52.6,31.7,52.6,31.7,52.6,31.7z M52.4,26.3C52.4,26.3,52.4,26.3,52.4,26.3
		c-0.1-0.1-0.2-0.2-0.3-0.2C52,25.9,52,25.8,52,25.6c0.5,0.2,0.9,0.4,1.3,0.7C53,26.3,52.7,26.3,52.4,26.3z M52.1,34.2
		c0.1-0.1,0.2-0.1,0.3-0.2c0.2,0.4,0.5,0.7,0.6,1.1c-0.1,0.1-0.3,0.2-0.4,0.3c0,0,0,0,0,0c-0.2,0.1-0.4,0.2-0.6,0.3
		c0-0.2,0-0.5-0.1-0.7c0,0,0-0.1,0-0.2C52,34.6,52.1,34.4,52.1,34.2z M52,36.6c0.2-0.1,0.4-0.2,0.5-0.3c0.3-0.2,0.6-0.3,0.9-0.5
		c0.1,0.3,0.2,0.6,0.2,0.8c-0.3,0.6-0.6,1.3-1,1.9c-0.2,0.3-0.4,0.7-0.7,1.1c-0.5,0.1-0.9,0.2-1.4,0.2c0.1-0.1,0.2-0.2,0.3-0.4
		C51.6,38.8,51.9,37.7,52,36.6z M50.2,26.9c-0.3,0-0.7,0.1-1,0.2c-0.1,0-0.1,0-0.2,0c-0.3-0.1-0.6-0.2-1-0.3
		c0.2-0.2,0.5-0.4,0.7-0.5c0.5,0.1,1.1,0.3,1.6,0.5C50.4,26.8,50.3,26.8,50.2,26.9z M49.5,23.8c0.2,0,0.4,0,0.6,0
		c0.1,0.1,0.1,0.2,0.2,0.2C50,24,49.8,23.9,49.5,23.8z M45.6,24.9c-0.3,0-0.6-0.1-0.8-0.1c0.7-0.3,1.3-0.5,2.1-0.6
		C46.4,24.4,46,24.6,45.6,24.9z M45.6,27.2c0,0-0.1,0.1-0.1,0.1c-1,0.2-1.9,0.6-2.7,1.1c0.3-0.3,0.6-0.6,0.9-0.9
		c0.1-0.1,0.2-0.2,0.3-0.3C44.5,27.1,45,27.1,45.6,27.2z M44.9,28.3C44.9,28.3,44.9,28.3,44.9,28.3c-0.2,0.1-0.3,0.2-0.5,0.2
		c-0.1,0-0.1,0-0.2,0C44.5,28.4,44.7,28.3,44.9,28.3z M44.9,32c0.1,0.3,0.3,0.5,0.4,0.8c-0.1,0.1-0.1,0.2-0.2,0.3
		c-0.6,0.8-1.2,1.6-1.7,2.5c-0.3-0.2-0.7-0.5-1-0.8c-0.2-0.1-0.3-0.3-0.5-0.5C42.1,34.3,42,34.1,42,34C42.8,33.1,43.7,32.4,44.9,32z
		 M43.7,37.5c0-0.1,0.1-0.3,0.1-0.4c0.2,0,0.4-0.1,0.6-0.1c0.1,0,0.2,0.1,0.3,0.1c0.1,0.6,0.2,1.1,0.4,1.6
		C44.5,38.4,44.1,37.9,43.7,37.5z M44,38.8c-0.2,0-0.4-0.1-0.6-0.2c0-0.1,0-0.2,0.1-0.3C43.6,38.5,43.8,38.7,44,38.8z M44.3,36
		c0.1-0.3,0.3-0.5,0.4-0.8c0,0.3-0.1,0.6-0.1,0.9c0,0,0,0-0.1,0C44.5,36.1,44.4,36.1,44.3,36z M43.2,36.4c-0.1,0-0.2,0-0.3,0
		c-0.1-0.1-0.1-0.2-0.2-0.3C42.9,36.2,43.1,36.3,43.2,36.4z M40.7,34.2c-0.1,0.1-0.1,0.1-0.1,0.2c-0.1-0.3-0.2-0.7-0.2-1
		c0.1,0.2,0.3,0.5,0.4,0.7C40.8,34.1,40.7,34.1,40.7,34.2z M43.4,43.6c0.2,0.1,0.3,0.2,0.5,0.2c-0.3-0.1-0.5-0.2-0.8-0.3
		C43.2,43.6,43.3,43.6,43.4,43.6z M43.3,39.5c0.2,0.1,0.4,0.1,0.6,0.2c0.5,0.1,1,0.1,1.5,0.1c0.1,0,0.2,0.1,0.3,0.1
		c0.2,0.4,0.5,0.8,0.9,1.2c-0.8,0.5-1.6,0.9-2.6,1.2C43.4,41.4,43.2,40.5,43.3,39.5z M47.1,41.7c0.1,0.1,0.3,0.2,0.4,0.3
		c0.2,0.1,0.4,0.3,0.6,0.4c-1.2,0.4-2.4,0.5-3.6,0.5c0,0,0,0,0,0C45.5,42.6,46.3,42.2,47.1,41.7z M45.7,45.2c0.2,0,0.5,0,0.8,0
		c0.2,0,0.4,0,0.6,0c0.1,0,0.2,0.1,0.3,0.1c-0.7,0-1.3-0.1-2-0.2C45.4,45.2,45.5,45.2,45.7,45.2z M45.8,43.7
		c0.6-0.1,1.2-0.2,1.8-0.3c0.5-0.1,0.9-0.2,1.4-0.4C47.9,43.7,46.8,44,45.8,43.7z M50,43.1c1.2,0.3,2.4,0.4,3.6,0.2
		c-0.2,0.1-0.4,0.2-0.6,0.2c-1.8,0.6-3.6,0.9-5.5,0.9C48.4,44.2,49.3,43.7,50,43.1z M52.9,45.2c0,0-0.1,0.1-0.1,0.1
		c-0.1,0-0.2,0-0.4,0C52.7,45.3,52.8,45.2,52.9,45.2z M53.3,46.1c1.7-0.1,3.3-0.5,4.9-1.2c0,0,0,0,0,0.1c-1.2,0.7-2.4,1.2-3.6,1.8
		c-0.8,0.3-1.6,0.7-2.5,1C52.5,47.2,52.9,46.6,53.3,46.1z M54.3,45.2c-0.2,0-0.3,0-0.5,0.1c0.1-0.2,0.2-0.3,0.3-0.5
		c2-0.8,4-2,5.7-3.5c-0.2,0.8-0.5,1.6-0.8,2.3C57.5,44.4,55.9,44.9,54.3,45.2z M59.6,40c0.1-0.1,0.2-0.2,0.3-0.4v0.1
		C59.8,39.8,59.7,39.9,59.6,40z M59.8,32.6c0-0.1-0.1-0.2-0.1-0.3c-0.2-0.6-0.5-1.1-0.8-1.7c0.8,0.3,1.5,0.6,2.2,1
		c0.1,0.4,0.3,0.8,0.4,1.3c-0.1,0.3-0.2,0.6-0.4,0.8c-0.1,0.2-0.2,0.4-0.3,0.6C60.5,33.7,60.2,33.1,59.8,32.6z M60.3,42.4
		c0,0.1,0,0.2,0,0.4c-0.1,0-0.1,0.1-0.2,0.1C60.2,42.7,60.2,42.6,60.3,42.4z M60.2,47.7c0.4-0.2,0.8-0.4,1.2-0.7
		c0,0.3-0.1,0.6-0.2,0.8c-0.4,0.2-0.8,0.3-1.2,0.4C60.1,48.1,60.2,47.9,60.2,47.7z M60.5,46.7c0-0.1,0.1-0.3,0.1-0.4
		c0.5-0.9,0.9-1.8,1.3-2.7c0,0.8-0.1,1.7-0.2,2.5C61.3,46.3,60.9,46.5,60.5,46.7z M61.7,49.3c0.4-0.4,0.9-0.8,1.3-1.2
		c0.1-0.1,0.3-0.1,0.5-0.2c-0.6,0.6-1.2,1.2-1.9,1.7C61.7,49.5,61.7,49.4,61.7,49.3z M62.4,33C62.4,33,62.4,33,62.4,33
		c0-0.1,0-0.1,0-0.1L62.4,33z M55.8,22.3c-0.4,0-0.8-0.1-1.2-0.1c-0.2-0.1-0.5-0.3-0.8-0.4c0.4,0,0.9,0,1.3,0
		c0.5,0.2,1.1,0.4,1.6,0.7C56.4,22.4,56.1,22.3,55.8,22.3z M55.2,21c-0.5-0.2-1-0.3-1.4-0.4c0.7,0.1,1.4,0.2,2.1,0.4
		c0,0,0.1,0,0.1,0C55.7,21,55.4,21,55.2,21z M53.6,17.7c-0.1,0-0.2-0.1-0.2-0.1c-0.1-0.3-0.3-0.6-0.4-0.8c0.3,0.1,0.7,0.2,1,0.4
		C53.8,17.4,53.7,17.5,53.6,17.7z M53.7,23.2c-0.1,0-0.3,0-0.4,0c-0.1,0-0.2-0.1-0.3-0.2c0.1,0,0.3,0,0.4,0
		C53.5,23.1,53.6,23.1,53.7,23.2z M53.2,24c0.3,0.2,0.7,0.4,0.9,0.6c0.6,0.5,0.9,1.2,1.1,1.9c-0.7-0.5-1.4-0.9-2.1-1.3
		c-0.1-0.1-0.2-0.1-0.2-0.1c-0.1-0.1-0.2-0.1-0.3-0.1c-0.4-0.2-0.8-0.3-1.1-0.5c-0.1-0.2-0.2-0.5-0.4-0.7c0.5,0,1.1,0,1.6,0.1
		C52.8,23.9,53,24,53.2,24z M52.1,22.3c-0.4,0.1-0.9,0.2-1.3,0.3c-0.3,0-0.5,0-0.8,0c0,0,0,0-0.1-0.1c-0.1-0.1-0.2-0.1-0.2-0.2
		c0.5-0.1,1.1-0.2,1.6-0.3C51.6,22.1,51.8,22.2,52.1,22.3z M51.6,21.1c0,0,0.1,0,0.1,0c0.2,0,0.4,0,0.6,0.1c-0.1,0-0.2,0-0.4,0
		C51.8,21.1,51.7,21.1,51.6,21.1z M49.3,19.1c-0.8,0-1.5,0-2.3,0.1c0.9-0.2,1.8-0.4,2.7-0.4c0.2,0,0.5,0,0.7,0.1
		c0.2,0,0.3,0.1,0.5,0.1C50.4,19,49.8,19,49.3,19.1z M47.5,21.9c0.1,0,0.1,0.1,0.2,0.1c-0.8,0.3-1.7,0.6-2.5,1c-0.1,0-0.2,0-0.4,0
		c0.1,0,0.1-0.1,0.2-0.1C45.8,22.4,46.7,22.1,47.5,21.9z M43.5,25.5c0.4,0,0.8,0.1,1.1,0.1c-0.4,0.3-0.7,0.6-1.1,0.9
		c-0.5,0.1-1.1,0.2-1.6,0.3C42.5,26.3,43,25.8,43.5,25.5z M42.1,24.6h-0.4c0.2-0.2,0.4-0.5,0.6-0.7c0.1,0,0.2,0,0.3-0.1
		C42.5,24.1,42.3,24.4,42.1,24.6z M42.6,27.5c-0.3,0.3-0.6,0.7-0.9,1.1c0-0.2,0.1-0.5,0.1-0.7C42,27.7,42.2,27.5,42.6,27.5z
		 M42.8,30.2c0.4-0.2,0.8-0.4,1.2-0.6c0.2,0,0.4,0.1,0.6,0.1c0,0.5,0,1,0.1,1.6c-1.1,0.4-2.1,1-2.9,1.8c-0.1-0.5-0.2-1.1-0.2-1.6
		c0-0.2,0-0.3,0-0.5C41.9,30.6,42.4,30.4,42.8,30.2z M40.7,26.1c0.2-0.2,0.3-0.5,0.5-0.7c0.1,0,0.2,0,0.4,0
		C41.2,25.6,41,25.9,40.7,26.1z M40.8,32.2c-0.1-0.2-0.2-0.4-0.2-0.6c0,0,0-0.1,0.1-0.1c0,0,0,0,0,0C40.7,31.7,40.8,31.9,40.8,32.2z
		 M40.6,29.8c-0.1,0.1-0.1,0.2-0.2,0.3c0.1-0.3,0.1-0.5,0.2-0.8h0C40.7,29.5,40.7,29.7,40.6,29.8z M40.4,27.9
		c-0.1,0.1-0.2,0.2-0.3,0.4c-0.1,0.1-0.1,0.3-0.2,0.4c-0.1,0-0.2,0-0.4,0c0.3-0.4,0.7-0.9,1.1-1.3C40.5,27.6,40.5,27.7,40.4,27.9z
		 M39.7,29.5c-0.1,0.3-0.1,0.6-0.1,1c0,0.3-0.1,0.6-0.1,0.8c-0.4,0.3-0.8,0.6-1.1,0.9c0.2-0.9,0.4-1.7,0.7-2.6
		C39.3,29.5,39.5,29.5,39.7,29.5z M39.2,32.5c-0.3,0.7-0.5,1.4-0.7,2.2c-0.2,0.7-0.3,1.4-0.3,2.1c0,0.5-0.1,0.9,0,1.4
		c-0.1-0.2-0.1-0.4-0.2-0.6c0-1.4,0-2.8,0.2-4.2C38.5,33.1,38.8,32.8,39.2,32.5z M38.4,40.6c0,0.1,0,0.3,0,0.4
		c0-0.2-0.1-0.5-0.1-0.7C38.3,40.5,38.3,40.5,38.4,40.6z M38.1,43.1c0,0.1,0.1,0.3,0.2,0.4c-0.1-0.2-0.2-0.3-0.3-0.5
		C38,43,38,43.1,38.1,43.1z M40,47.3c0.9,1,1.8,1.8,3,2.5c1.2,0.7,2.5,1,3.8,1.1c-0.6,0.2-1.3,0.3-2,0.1c-1.5-0.2-2.8-1-3.8-2.1
		C40.6,48.4,40.3,47.9,40,47.3z M44.6,49.6c-0.5-0.2-1-0.4-1.4-0.7c0.7,0.3,1.4,0.5,2.1,0.6c0.7,0.2,1.4,0.4,2.1,0.6
		C46.4,50.1,45.5,49.9,44.6,49.6z M51,48.9c2-0.6,4-1.5,5.9-2.5c-0.4,0.4-0.8,0.8-1.2,1.2c-0.8,0.7-1.7,1.3-2.7,1.9
		c-0.4,0.1-0.9,0.2-1.3,0.2c-0.5,0-0.9,0-1.4,0C50.4,49.5,50.7,49.2,51,48.9z M58.7,45.5c0.5-0.3,0.9-0.5,1.4-0.8
		c-0.1,0.5-0.2,1-0.3,1.4c-0.4,0.5-0.7,1.1-1.1,1.5c-1.1,0.5-2.3,0.9-3.4,1.3C56.6,47.9,57.8,46.8,58.7,45.5z M59.2,48.3
		c0,0.1-0.1,0.2-0.1,0.3c0,0-0.1,0-0.1,0c0,0-0.1,0-0.1,0C58.9,48.6,59,48.5,59.2,48.3C59.1,48.3,59.2,48.3,59.2,48.3z M59.9,51.7
		c-0.1,0.2-0.2,0.4-0.3,0.6c-0.9,0.6-1.8,1.1-2.8,1.6c0.3-0.3,0.5-0.7,0.8-1C58.4,52.5,59.2,52.1,59.9,51.7z M59.5,51
		c0.3-0.2,0.7-0.5,1-0.8c0,0.1,0,0.1-0.1,0.2C60.2,50.6,59.9,50.8,59.5,51z M60.2,49.5c-0.3,0.3-0.7,0.5-1,0.8
		c0.2-0.3,0.3-0.6,0.4-1c0.2-0.1,0.5-0.1,0.7-0.2c0.2-0.1,0.4-0.2,0.7-0.2C60.8,49,60.5,49.2,60.2,49.5z M62.6,45.5
		c0.1-0.5,0.1-0.9,0.1-1.4c0-0.5,0-1,0-1.5c0.8-0.8,1.5-1.6,2-2.5c0.4-0.8,0.7-1.6,0.8-2.4c0-0.1,0.1-0.2,0.1-0.3
		c0.2,0.7,0.4,1.4,0.6,2.1c0.2,0.8,0.3,1.5,0.4,2.3c-0.1,0.3-0.2,0.5-0.4,0.8C65.2,43.6,63.9,44.6,62.6,45.5z M68.1,40.6
		c0.2-0.8,0.2-1.6,0.2-2.5c0.2-1.9-0.1-3.9-0.6-5.7c-0.3-1.2-0.8-2.3-1.4-3.4V29c1.9,2.9,3,6.2,3.1,9.8C69,39.4,68.6,40.1,68.1,40.6
		z M69.1,40.6c-0.4,1.1-0.9,2.2-1.3,3.3c-0.1,0.2-0.1,0.3-0.2,0.5c0,0.1-0.1,0.2-0.1,0.2c0.1-0.6,0.1-1.2,0.1-1.8
		c0.1-0.2,0.1-0.4,0.2-0.6C68.2,41.7,68.6,41.1,69.1,40.6z M66.6,31.6c0-0.1-0.1-0.2-0.1-0.2c0-0.1,0-0.1,0-0.2
		C66.5,31.4,66.6,31.5,66.6,31.6z M66.5,33.2c0.6,1.4,1,3,1,4.5c0,0.8-0.2,1.5-0.3,2.3c-0.1-0.4-0.2-0.7-0.3-1.1
		C66.7,38,66.4,37,66,36.1C66.3,35.1,66.5,34.2,66.5,33.2z M66.6,44.9c0,0.1,0,0.2-0.1,0.3c0,0.2-0.1,0.3-0.1,0.5
		c-0.1,0.1-0.2,0.1-0.3,0.2C66.3,45.5,66.4,45.2,66.6,44.9z M67.9,49.2c1.2-1.6,2.1-3.4,2.8-5.4c0,0,0.1-0.1,0.1-0.1
		C70.5,44.9,70,46,69.6,47c-0.9,2-2.1,3.8-3.5,5.3C66.7,51.3,67.3,50.3,67.9,49.2z M70.7,39.4c-0.1,0.7-0.3,1.3-0.5,2
		c0,0.1-0.1,0.2-0.1,0.2c0-0.3,0.1-0.5,0.1-0.8C70.4,40.3,70.5,39.9,70.7,39.4z M70.1,24.8c-0.2-0.4-0.5-0.9-0.7-1.3
		c0.1,0.1,0.2,0.2,0.3,0.3C69.8,24.1,70,24.5,70.1,24.8L70.1,24.8z M67.3,23.4c0.2,0.4,0.5,0.8,0.7,1.2c-0.3-0.2-0.6-0.3-0.9-0.5
		c-0.1,0-0.2-0.1-0.3-0.2c-0.5-0.7-1.1-1.4-1.7-2.1C65.9,22.3,66.6,22.8,67.3,23.4z M67.2,21.8c0.3,0.4,0.6,0.8,0.8,1.2c0,0,0,0,0,0
		C67.7,22.6,67.5,22.2,67.2,21.8z M65.7,19.1C65.7,19.1,65.8,19.1,65.7,19.1C65.8,19.1,65.8,19.1,65.7,19.1c0.1,0.1,0.1,0.1,0.2,0.2
		C65.8,19.2,65.8,19.1,65.7,19.1z M64.9,16.6c0.1,0.1,0.2,0.1,0.3,0.2c0.2,0.2,0.3,0.3,0.5,0.5c0.1,0.1,0.2,0.2,0.3,0.3
		C65.7,17.3,65.3,16.9,64.9,16.6z M65.6,21.2c-0.8-0.6-1.7-1.1-2.5-1.6c-0.3-0.3-0.6-0.6-0.8-0.8c0.7,0.4,1.5,0.7,2.2,1.1
		C64.9,20.3,65.3,20.7,65.6,21.2z M61.6,16c-1.3-0.8-2.7-1.4-4.1-2c-0.8-0.3-1.5-0.6-2.3-0.8c-0.1-0.3-0.2-0.7-0.4-1
		c0.3,0.1,0.5,0.2,0.8,0.2c1.1,0.4,2.3,0.8,3.4,1.3c1.8,0.9,3.6,2,5.1,3.3c0.1,0.2,0.3,0.3,0.4,0.5C63.5,16.9,62.6,16.4,61.6,16z
		 M61.4,21.1c0.2,0.2,0.5,0.3,0.7,0.5c-1.1-0.5-2.3-0.9-3.5-1.3c-0.1,0-0.2-0.1-0.2-0.1c-0.9-0.6-1.9-1.1-3-1.5
		c-0.4-0.2-0.8-0.4-1.1-0.6c0.1-0.2,0.2-0.4,0.4-0.7C57.1,18.5,59.3,19.7,61.4,21.1z M54.5,15.3c-1.6-0.4-3.1-0.8-4.7-1
		c1.5,0,3,0.2,4.5,0.5c0.1,0,0.2,0,0.2,0.1C54.5,14.9,54.5,15.1,54.5,15.3z M45.3,18c-0.3,0-0.7,0.1-1,0.2c-0.5,0.1-1,0.2-1.5,0.3
		c-0.1-0.1-0.1-0.3-0.2-0.4C43.4,18,44.4,18,45.3,18z M43.3,22c-0.5,0.4-0.9,0.8-1.3,1.2c-0.4,0.1-0.8,0.2-1.2,0.3
		c-0.2,0-0.3,0.1-0.5,0.2C41.1,23,42.1,22.4,43.3,22z M41,24.2c-0.1,0.1-0.2,0.3-0.3,0.4c-0.3,0-0.6,0-0.8,0.1c0,0,0,0,0.1,0
		C40.3,24.5,40.7,24.4,41,24.2z M40.2,25.5C40.2,25.5,40.2,25.5,40.2,25.5c-0.6,0.9-1,1.8-1.4,2.7c-0.2,0.3-0.5,0.6-0.7,0.9
		c-0.6,0.2-1.1,0.4-1.6,0.7c0.2-0.6,0.4-1.1,0.6-1.7c0.3-0.7,0.7-1.4,1.1-2.1c0.1-0.1,0.1-0.1,0.2-0.2C39,25.6,39.6,25.5,40.2,25.5z
		 M37.5,25c-0.2,0.1-0.5,0.1-0.7,0.2c0.5-0.8,1.1-1.4,1.8-2c0.3-0.2,0.5-0.3,0.8-0.4c0,0,0,0,0.1,0C38.8,23.5,38.1,24.2,37.5,25z
		 M34.1,27.3c0.3-0.2,0.6-0.4,1-0.5c-1,2.2-1.6,4.6-1.7,7.1c-0.1,0.5-0.2,0.9-0.2,1.4c-0.7-1.8-0.9-3.7-0.6-5.6
		c0.3-0.6,0.7-1.2,1.1-1.8C33.8,27.7,33.9,27.5,34.1,27.3z M34.4,37.5c-0.1-0.2-0.2-0.3-0.3-0.5c-0.1-1-0.1-2,0-3
		c0-0.2,0.1-0.3,0.1-0.5C34.1,34.9,34.1,36.2,34.4,37.5z M35.7,44.1c0.3,0.8,0.7,1.5,1.1,2.2c1.7,2.7,4.1,5,7.3,5.7
		c2.9,0.7,5.9,0,8.6-1.4c1,0,2-0.2,2.9-0.3c-3.4,2-7.7,2.6-11.7,1.9c-0.9-0.2-1.8-0.4-2.7-0.7C38.6,49.7,36.8,47,35.7,44.1z
		 M57.6,49.8c0.3-0.1,0.7-0.2,1-0.3c-0.3,0.6-0.6,1.2-0.9,1.7c-0.9,0.6-1.9,1.2-2.9,1.7c-3.4,1-7.1,1.1-10.4,0.1
		c-0.2,0-0.3-0.1-0.5-0.2C48.7,53.7,53.8,52.9,57.6,49.8z M55.3,53.6c0.3-0.1,0.6-0.2,0.9-0.3c-0.3,0.3-0.6,0.7-0.9,1
		c-1,0.2-1.9,0.5-2.9,0.7C53.4,54.6,54.4,54.2,55.3,53.6z M55.2,59.3c1.3-0.1,2.5-0.2,3.8-0.4c-0.2,0.1-0.3,0.3-0.5,0.4
		c-1.2,0.2-2.4,0.4-3.6,0.4c-0.2,0-0.5,0-0.7,0C54.5,59.6,54.8,59.5,55.2,59.3z M56.8,57.7c-0.1,0-0.2,0-0.3,0.1
		c0.2-0.2,0.4-0.4,0.6-0.6c0.2-0.2,0.5-0.5,0.7-0.7c0.7-0.2,1.4-0.5,2.1-0.8C58.8,56.4,57.8,57.1,56.8,57.7z M62.8,54
		c0.9-0.6,1.7-1.2,2.4-1.9c-0.4,0.5-0.7,1-1.1,1.5c-0.3,0.4-0.6,0.8-1,1.2c-1.1,0.7-2.3,1.4-3.5,1.9C60.7,55.9,61.8,55,62.8,54z
		 M61.2,56.9c-0.1,0-0.1,0.1-0.2,0.2c-0.2,0.1-0.5,0.2-0.8,0.3C60.6,57.2,60.9,57.1,61.2,56.9z M60.5,58.6c0.2-0.1,0.5-0.1,0.7-0.2
		c0.8-0.2,1.6-0.5,2.4-0.8c0,0,0,0,0,0c-1.1,0.6-2.3,1-3.5,1.3C60.3,58.8,60.4,58.7,60.5,58.6z M72.8,29c0.9,2.5,1.6,5.2,1.9,7.9
		c-0.3,1.2-0.8,2.2-1.5,3.2c0-1.4-0.1-2.8-0.2-4.2c0-0.2,0-0.4,0-0.6c0-1.2,0-2.4-0.1-3.5c0-1-0.1-1.9-0.4-2.8
		c0-0.2-0.1-0.4-0.1-0.6C72.5,28.6,72.6,28.8,72.8,29z M73.1,41.5c0.7-0.8,1.2-1.7,1.7-2.6c0,0.4,0,0.7,0,1.1
		c-0.6,1.9-1.2,3.7-2,5.4C73,44.1,73.1,42.8,73.1,41.5z M70.4,21.6c-0.1-0.1-0.3-0.3-0.5-0.4c-0.6-0.9-1.1-1.8-1.8-2.7
		c0.4,0.3,0.9,0.6,1.3,0.9c2.5,1.8,4.8,4,6.2,6.8c0.1,0.1,0.1,0.3,0.2,0.4c0.1,0.5,0.2,1,0.2,1.5c0,0.4,0.1,0.8,0.1,1.1
		C74.7,26.4,72.7,23.8,70.4,21.6z M66.8,16.7c-1.1-1.4-2.3-2.7-3.5-3.9c0,0,0,0-0.1,0c0.4,0.2,0.8,0.3,1.2,0.5
		c3,1.4,5.9,3.2,8.1,5.8c1.2,1.4,2.1,3.1,2.7,4.8C73.1,20.9,70,18.6,66.8,16.7z M63.5,14.2c-1-0.8-2.1-1.6-3.3-2.3
		c0,0,0.1-0.1,0.1-0.2c0.3,0.1,0.6,0.2,1,0.3C62.1,12.7,62.8,13.4,63.5,14.2z M60.4,13.5c-0.3-0.2-0.7-0.3-1-0.5
		c-1.2-0.6-2.5-1.1-3.8-1.5c-0.5-0.2-1-0.3-1.5-0.5c-0.1-0.2-0.3-0.4-0.4-0.5c1,0,2,0.2,3,0.4c0.2,0.1,0.5,0.2,0.7,0.3
		C58.4,12,59.5,12.7,60.4,13.5z M55.9,9.3l-0.4,0c-2-1.1-4.1-2-6.2-2.7c0.1,0,0.1,0,0.2,0c3.3,0.1,6.3,1.3,9,3.2
		C57.6,9.5,56.8,9.4,55.9,9.3z M53.1,8.8c-0.6-0.2-1.2-0.3-1.7-0.4c-0.5-0.1-1-0.2-1.6-0.3c-0.9-0.3-1.9-0.6-2.8-0.8
		c-0.5-0.1-1-0.2-1.5-0.3c0.6-0.1,1.2-0.2,1.8-0.3C49.3,7.2,51.2,7.9,53.1,8.8z M52.7,10.7c-0.2,0-0.3-0.1-0.4-0.1
		c0.1,0,0.2,0,0.3,0C52.6,10.6,52.6,10.6,52.7,10.7z M53.8,11.9c0.2,0.3,0.4,0.6,0.5,1c-1.8-0.6-3.7-1-5.6-1.2
		c0.3-0.1,0.5-0.3,0.8-0.4C50.9,11.4,52.4,11.6,53.8,11.9z M45.3,11.5c-0.7,0-1.3,0-2,0.1c0.8-0.1,1.6-0.2,2.4-0.3L45.3,11.5z
		 M43.9,13.6c-0.1,0-0.2,0-0.2,0c0,0,0,0,0,0c0.2-0.2,0.4-0.4,0.6-0.5c0.2,0,0.4,0,0.5,0C44.5,13.3,44.2,13.4,43.9,13.6z M44.7,14.7
		c-0.4,0-0.7,0-1.1,0.1c0.1-0.1,0.2-0.1,0.3-0.2c0.1,0,0.2,0,0.3,0C44.3,14.6,44.5,14.7,44.7,14.7z M45.9,15.5
		c-1.2,0.1-2.4,0.3-3.6,0.6c0-0.1,0-0.2,0.1-0.2c0,0,0-0.1,0-0.1C43.6,15.5,44.8,15.4,45.9,15.5z M42.8,13.5c-0.2,0-0.3-0.1-0.5-0.1
		c0.2,0,0.5-0.1,0.7-0.1C42.9,13.3,42.8,13.4,42.8,13.5z M42.4,20c-0.6,0.1-1.2,0.2-1.8,0.4c-0.6,0.1-1.2,0.3-1.8,0.5
		c1-0.5,2.1-0.9,3.2-1.2C42,19.7,42.2,19.9,42.4,20z M41.5,18.2c0.1,0,0.2,0,0.2,0c0.1,0.2,0.1,0.4,0.2,0.5
		C41.8,18.5,41.6,18.4,41.5,18.2z M41,17.4C41,17.4,41,17.4,41,17.4c0.1-0.1,0.3-0.2,0.5-0.2c0,0,0,0.1,0,0.1
		C41.4,17.3,41.2,17.4,41,17.4z M41,14.1c-1.4,0.4-2.6,1.1-3.7,2c-1,0.5-2,1.2-2.9,1.9c0.7-0.8,1.4-1.6,2.3-2.2
		c0.2-0.2,0.4-0.3,0.7-0.5c0.9-0.5,1.8-0.9,2.7-1.2c0.4,0,0.8,0,1.2,0.1C41.1,14,41,14,41,14.1z M35.6,18.6c1.4-1,2.9-1.7,4.5-2.3
		c0,0.1,0,0.1,0,0.2c-0.2,0.2-0.5,0.4-0.7,0.6c-1,0.5-2,1-2.9,1.7c-0.9,0.4-1.7,1-2.5,1.6C34.5,19.8,35,19.2,35.6,18.6z M36.2,20.1
		c0.1-0.1,0.3-0.2,0.4-0.3c-0.6,0.6-1.2,1.3-1.8,1.9c-0.5,0.6-1,1.2-1.5,1.9c-0.2,0.2-0.5,0.4-0.7,0.6
		C33.6,22.6,34.8,21.2,36.2,20.1z M33.6,24.4c0.2-0.2,0.4-0.4,0.7-0.6c0.3-0.3,0.7-0.5,1.1-0.7c-0.3,0.2-0.5,0.5-0.7,0.7
		c-1,1.1-1.8,2.3-2.3,3.7c-0.5,0.4-0.9,0.8-1.3,1.2C31.8,27.2,32.6,25.8,33.6,24.4z M28.9,29.7c-0.5,1.2-0.9,2.4-1.2,3.7
		c0.1-1,0.2-2,0.5-3c0.9-2.8,2.3-5.3,4.2-7.5C31,25,29.8,27.3,28.9,29.7z M28.1,37.8c0.1-0.4,0.1-0.8,0.2-1.2c0.1,1,0.2,2.1,0.5,3.1
		c0,0.2,0,0.3,0,0.5C28.5,39.3,28.3,38.5,28.1,37.8z M28.7,43.8c-0.4-0.9-0.7-1.8-1-2.7c0-0.4,0-0.8,0.1-1.3
		c0.2,0.8,0.5,1.6,0.8,2.3C28.7,42.8,28.7,43.3,28.7,43.8z M29.9,24.9c-0.8,1.4-1.6,2.8-2.1,4.3c-0.1,0.3-0.2,0.6-0.3,0.9
		c0.3-1.3,0.8-2.6,1.4-3.8c0.9-1.8,2.1-3.5,3.5-5C31.5,22.5,30.7,23.7,29.9,24.9z M29.1,50.2C29.1,50.2,29.1,50.2,29.1,50.2
		c-0.1-0.2-0.2-0.4-0.2-0.6c0.4,0.4,0.9,0.8,1.3,1.2c0.2,0.2,0.3,0.3,0.5,0.5C30.1,50.8,29.6,50.5,29.1,50.2z M29.3,53
		c-0.1-0.1-0.2-0.1-0.3-0.2c-0.1-0.4-0.2-0.8-0.3-1.2C28.9,52.1,29.1,52.6,29.3,53z M29.7,51.9c0-0.1-0.1-0.2-0.1-0.3
		c2.7,2.1,5.8,3.9,8.9,5.3c-2.7-0.6-5.4-1.6-7.7-3C30.4,53.3,30,52.6,29.7,51.9z M35.9,53.1c-1.7-1.3-2.9-3.2-3.8-5.1
		c0.4,0.3,0.8,0.6,1.2,0.8c0.9,1.1,1.8,2.1,2.9,3c0.9,0.9,1.9,1.7,2.9,2.4c0.3,0.2,0.6,0.4,1,0.6C38.6,54.4,37.2,53.8,35.9,53.1z
		 M46.3,57.4c0.5,0,1-0.1,1.4-0.1c1,0.2,2,0.2,3.1,0.2c-0.5,0.2-1,0.4-1.5,0.6c-1.3-0.2-2.7-0.4-4-0.7C45.6,57.4,46,57.4,46.3,57.4z
		 M46.6,59.7c1,0.2,2,0.4,3,0.5c-1.8,0.3-3.7,0.5-5.6,0.4c-1-0.1-1.9-0.3-2.9-0.6C43,60.2,44.8,60.1,46.6,59.7z M41,62.8
		c0-0.3,0-0.6,0-0.9c1.2,0.4,2.4,0.7,3.6,1h-1.4C42.5,62.8,41.7,62.8,41,62.8z M56.9,63c-0.2,0.1-0.5,0.2-0.7,0.3
		c-0.3,0-0.6,0-0.8,0C55.9,63.2,56.4,63.1,56.9,63z M56.3,62.4c0.2-0.2,0.3-0.3,0.5-0.5c1.7-0.6,3.4-1.2,5-2.1
		c0.4,0,0.8,0.1,1.2,0.1c-0.7,0.4-1.5,0.8-2.2,1.2C59.4,61.6,57.9,62,56.3,62.4z M63.9,60.9c0.5-0.2,0.9-0.4,1.4-0.6
		c0.1,0,0.1,0,0.2,0c0,0,0,0,0.1,0c-0.5,0.5-0.9,0.9-1.4,1.4c-1.1,0.4-2.3,0.8-3.6,1C61.7,62.2,62.8,61.6,63.9,60.9z M71,51
		c0.2-0.4,0.4-0.8,0.5-1.2c0.2-0.4,0.3-0.9,0.5-1.3c0.9-1.5,1.7-3.1,2.4-4.8c-0.1,0.5-0.2,0.9-0.4,1.4C73.4,47.2,72.3,49.2,71,51z
		 M74.9,47.3c0.2-0.5,0.4-1,0.6-1.5c0.5-0.9,1-1.8,1.5-2.7c0,0.2-0.1,0.4-0.1,0.6c-0.8,2.1-1.7,4-2.9,5.9c-0.1,0.2-0.2,0.3-0.3,0.5
		C74.1,49.1,74.5,48.2,74.9,47.3z M76.3,36.7c0.1-0.6,0.2-1.2,0.3-1.9c0-0.3,0.1-0.6,0.1-0.9c0.1,0.5,0.3,1,0.4,1.5
		c0,0.5-0.1,1-0.2,1.6c-0.2,1.3-0.5,2.6-0.8,3.9C76.4,39.5,76.4,38.1,76.3,36.7z M77,30.9c0-0.3,0-0.5,0-0.8
		c0.1,0.4,0.1,0.8,0.2,1.2C77.1,31.2,77,31.1,77,30.9z M76.8,41.8c0.3-1,0.5-2.1,0.7-3.1c0,0.6,0,1.1-0.1,1.7
		C77.2,40.8,77,41.3,76.8,41.8z M64.1,11.8c-1.1-0.5-2.3-1-3.5-1.4c-1.2-1-2.5-2-3.9-2.7c4.4,1.3,8.7,3.5,12.3,6.4
		C67.4,13.3,65.8,12.5,64.1,11.8z M55.9,6.7c-0.3-0.1-0.6-0.2-0.9-0.2c0.5,0,0.9,0,1.4,0.1c0.9,0.1,1.7,0.2,2.6,0.3
		c2,0.8,3.9,1.8,5.7,2.9c1,0.8,1.9,1.5,2.9,2.4C64.1,9.6,60.1,7.8,55.9,6.7z M50.8,5.6c-1.9-0.2-3.9-0.3-5.8-0.1c0,0-0.1,0-0.2,0
		c0.9-0.2,1.8-0.4,2.7-0.5c2.7-0.2,5.3,0,7.9,0.6C53.9,5.6,52.3,5.6,50.8,5.6z M49.6,8.9c0.6,0.2,1.1,0.5,1.7,0.8h-0.3
		c-0.8,0-1.6,0.1-2.4,0.1c-2.3-0.4-4.7-0.5-7.1-0.4c-1.3-0.3-2.6-0.2-3.9,0.2c0.1,0,0.1-0.1,0.2-0.2c0.2,0,0.3-0.1,0.5-0.1
		C41.9,8.3,45.8,8.2,49.6,8.9z M41.4,10.1c0.3,0.1,0.6,0.2,1,0.3c0.3,0.1,0.4-0.1,0.5-0.3c0.9,0,1.8,0,2.7,0.1
		c-1.2,0.2-2.3,0.5-3.5,0.9c-3,0.7-5.9,1.8-8.5,3.4c-0.3,0.2-0.6,0.3-0.9,0.5c0.7-0.9,1.4-1.8,2.2-2.7c0.4-0.5,0.9-1,1.3-1.4
		c0,0,0,0,0,0C37.8,10.4,39.6,10.2,41.4,10.1z M30.5,16.5c-0.5,0.4-1.1,0.9-1.6,1.4c0-0.1,0.1-0.2,0.2-0.2c1.1-1.7,2.6-3.5,4.3-5
		C32.4,13.9,31.4,15.2,30.5,16.5z M29.1,20.3c1.5-1.5,3.1-2.8,4.9-3.9c0.3-0.2,0.6-0.3,0.9-0.5c-2,1.8-3.6,4-5,6.3
		c-1.4,1.8-2.6,3.8-3.5,5.9c-0.5,1.3-1,2.6-1.3,4c-0.3,0.8-0.6,1.6-0.9,2.5c-0.1-0.8-0.1-1.6-0.1-2.4c0-0.2,0-0.4,0.1-0.7
		c0.7-2.3,1.6-4.5,2.6-6.7C27.5,23.4,28.3,21.8,29.1,20.3z M24.1,28.3c0.1-0.4,0.1-0.8,0.2-1.2c0.2-0.4,0.4-0.8,0.6-1.2
		C24.7,26.7,24.4,27.5,24.1,28.3z M26,20.1c-0.5,1-1,2.1-1.4,3.2c-0.2,0.3-0.4,0.7-0.6,1c-0.8,1.1-1.5,2.3-2.1,3.5
		c0.1-0.7,0.2-1.3,0.3-2c0.4-0.8,0.9-1.6,1.3-2.4c0.9-1.6,1.9-3.1,3-4.6C26.4,19.3,26.2,19.7,26,20.1z M22.3,28.8
		c-0.1,0.2-0.1,0.5-0.2,0.7c-0.3,0.7-0.5,1.4-0.8,2.1c0-0.3,0.1-0.6,0.1-0.9C21.8,30.1,22.1,29.4,22.3,28.8z M22.4,51.7
		c0.4,0.7,0.7,1.5,1.1,2.2c-0.3-0.2-0.6-0.4-0.8-0.6c-0.4-0.6-0.8-1.2-1.1-1.8c0-0.6,0-1.1,0-1.7C21.8,50.4,22.1,51.1,22.4,51.7z
		 M22.9,48.1c0-0.6-0.1-1.2-0.1-1.9c0.1,0.1,0.2,0.3,0.3,0.4c0.6,1.3,1.3,2.5,2.2,3.7c0,0.1-0.1,0.3-0.1,0.4c0,0.2-0.1,0.5-0.1,0.7
		C24.4,50.4,23.6,49.3,22.9,48.1z M25,48.2c0.2,0.1,0.3,0.2,0.5,0.3c0.1,0.1,0.2,0.1,0.3,0.2c0,0.1,0,0.3-0.1,0.4
		C25.4,48.9,25.2,48.6,25,48.2z M25.5,44.2c-0.1-0.5-0.2-1-0.2-1.5c0.2,0.4,0.3,0.7,0.5,1.1c0,0.3,0,0.6,0,0.9
		C25.7,44.6,25.6,44.4,25.5,44.2z M25.7,54.5c0.8,0.7,1.7,1.4,2.6,2c0,0,0,0,0,0.1c-0.9-0.4-1.8-0.8-2.7-1.3
		C25.7,55,25.7,54.7,25.7,54.5z M27.7,57.1c0.5,0.2,1,0.4,1.5,0.7c0.4,0.5,0.7,1,1.1,1.4c0,0,0,0.1,0.1,0.1c0.1,0.2,0.2,0.3,0.3,0.5
		c0.1,0.3,0.2,0.5,0.4,0.8c-2.1-1-3.9-2.5-5.3-4.4C26.4,56.5,27,56.8,27.7,57.1z M29.4,61.7c-0.3,0-0.5,0-0.8-0.1
		c-0.6-0.2-1.1-0.7-1.5-1.3c0-0.1-0.1-0.2-0.1-0.3C27.7,60.5,28.5,61.1,29.4,61.7z M29.6,62.5c0.2,0,0.5-0.1,0.7-0.2
		c0.4,0.3,0.9,0.5,1.3,0.7c0.2,0.1,0.4,0.2,0.6,0.3c0,0.2,0.1,0.4,0.1,0.6c0,0.6-0.2,1.3-0.7,1.6c-0.7,0.5-1.7,0.1-2.2-0.5
		c-0.8-0.8-1.2-2-1.6-3.1C28.3,62.4,28.9,62.6,29.6,62.5z M31.1,58.8c0-0.1-0.1-0.2-0.1-0.3c1.2,0.5,2.4,0.9,3.6,1.3
		c-0.6,0.2-1.2,0.3-1.8,0.5C32.2,59.8,31.6,59.3,31.1,58.8z M33.5,60.9c0.8-0.3,1.7-0.5,2.5-0.6c1.4,0.5,2.8,1,4.1,1.4
		c0,0.4,0,0.7,0,1.1c-1.7-0.1-3.5-0.4-5.2-0.8C34.5,61.6,34,61.2,33.5,60.9C33.5,60.9,33.5,60.9,33.5,60.9z M37.4,64
		c0.9,0.4,1.8,0.7,2.7,0.9c0,0.1,0,0.2,0,0.3c-2.1-0.5-4.2-1.1-6.2-2c0,0,0,0,0-0.1C35,63.5,36.2,63.8,37.4,64z M40.3,66.1
		c0,0.1,0.1,0.3,0.1,0.4c-1.2-0.1-2.3-0.3-3.5-0.7c-0.7-0.3-1.3-0.7-1.9-1.2C36.8,65.2,38.6,65.7,40.3,66.1z M34.9,57.7
		c-1.2-0.6-2.2-1.3-3-2.2c3,1.5,6.3,2.3,9.5,2.9c0.3,0.1,0.7,0.1,1,0.2c0.8,0.3,1.5,0.5,2.3,0.7c-1,0.1-2,0.2-2.9,0.1
		C39.4,59.3,37,58.8,34.9,57.7z M44.1,65.7c0.7,0.1,1.4,0.1,2,0.1c-0.4,0.1-0.7,0.2-1.1,0.3c-1.4-0.2-2.7-0.4-4.1-0.7
		c0-0.1,0-0.1,0-0.1s0-0.1,0-0.1C41.9,65.4,43,65.6,44.1,65.7z M42.3,66.5c-0.3,0-0.7,0-1,0c0-0.1-0.1-0.2-0.1-0.2
		C41.6,66.3,42,66.4,42.3,66.5z M43.4,67.1c0.5-0.1,1-0.1,1.5-0.2c0.1,0,0.2,0,0.3,0c-1,0.2-2,0.5-3.1,0.7c-0.1-0.1-0.2-0.2-0.3-0.4
		C42.3,67.2,42.9,67.1,43.4,67.1z M43.6,68.1c1.2-0.3,2.4-0.5,3.6-0.9c1.1,0.1,2.3,0.2,3.4,0.3c-0.5,0.5-1,0.9-1.6,1.2
		c-2.1,1.2-4.5,1.2-6.3-0.4C43,68.2,43.3,68.1,43.6,68.1z M49.4,66.6c1.1-0.3,2.1-0.7,3.2-1c-0.3,0.4-0.7,0.8-1,1.2
		C50.8,66.7,50.1,66.7,49.4,66.6z M51.4,64.7c0.4-0.2,0.9-0.4,1.3-0.7c0.3,0,0.7,0,1,0c-0.1,0.1-0.1,0.1-0.2,0.2
		C52.8,64.5,52.1,64.6,51.4,64.7z M54,65.1c1.2-0.3,2.5-0.7,3.7-1.1c1.7-0.2,3.4-0.5,5-1c-1.4,1.2-2.9,2.4-4.5,3.4
		c-1.9,0.3-3.8,0.4-5.7,0.3C53,66.2,53.5,65.6,54,65.1z M63.6,63.3c0.3-0.3,0.7-0.6,1-0.9c1.5-0.5,2.9-1.2,4.2-2
		c0.9-0.1,1.8-0.3,2.7-0.5c-1.5,1.5-3.3,2.8-5.2,3.9c-1.9,1.1-4,1.8-6.1,2.3C61.3,65.2,62.5,64.3,63.6,63.3z M76.7,49.5
		c-1.9,3.1-4.5,5.8-7.6,7.8c0.5-0.6,0.9-1.2,1.4-1.9c0.1-0.1,0.2-0.3,0.4-0.4c1-1,2-2.1,2.9-3.3c1.7-2.3,3-4.9,3.8-7.7
		c0.3-0.8,0.5-1.6,0.8-2.4C78.2,44.4,77.7,47,76.7,49.5z M78,48.9c0,0,0-0.1,0-0.2c0.3-0.6,0.6-1.3,0.9-2c-0.3,1.1-0.6,2.2-1.1,3.2
		C77.9,49.6,78,49.2,78,48.9z M70.9,10.5c1.6,1.1,3.1,2.3,4.4,3.5c0,0,0.1,0.1,0.1,0.1c1.6,1.8,2.7,3.8,3.5,6.1
		c-1.8-1.3-3.7-2.6-5.7-3.7c-2.2-2.8-4.8-5.2-7.7-7.2c-0.8-0.6-1.6-1.2-2.4-1.8C65.8,8.1,68.5,9.1,70.9,10.5z M65.6,7.4
		c-1.4-0.4-2.8-0.8-4.2-1c-1.2-0.8-2.5-1.4-3.8-2C60.3,5.1,63,6.1,65.6,7.4z M40.3,3.5c3.7-1.2,7.6-1.1,11.3-0.5
		c0.2,0,0.4,0.1,0.7,0.1c0.4,0.1,0.8,0.2,1.2,0.4c1.9,0.7,3.7,1.5,5.5,2.4c-3.1-1.1-6.3-1.7-9.7-1.8c-2.2,0-4.4,0.3-6.4,1.1
		c-2.4-0.2-4.9,0-7.3,0.6C37,4.9,38.6,4.1,40.3,3.5z M33.6,7.3c1.7-0.6,3.5-1,5.2-1.2C39.6,6,40.4,6,41.2,6l-0.6,0.3
		C38.3,7,36.1,8,34.1,9.3c-0.6,0.3-1.1,0.7-1.6,1c-1.2,0.5-2.4,1.1-3.5,1.8c0.9-1.1,1.9-2.2,2.9-3.3C32.4,8.3,33,7.8,33.6,7.3z
		 M30.9,8.6c0.1-0.1,0.2-0.1,0.3-0.2c-0.6,0.6-1.2,1.3-1.8,2c-0.8,0.9-1.6,1.9-2.3,3c-0.4,0.3-0.8,0.6-1.2,0.9
		C27.4,12.1,29,10.3,30.9,8.6z M24.2,18.2C24.3,18.1,24.3,18.1,24.2,18.2c0,0,0,0.1-0.1,0.2C24.2,18.3,24.2,18.2,24.2,18.2z
		 M24.6,19.4c1.7-2.4,3.7-4.7,6-6.6c0.1,0,0.2-0.1,0.2-0.1c0.3-0.1,0.6-0.3,0.9-0.4c-0.1,0.1-0.2,0.2-0.4,0.4
		c-2.1,1.8-3.9,3.8-5.6,6.1c-0.9,1.2-1.7,2.5-2.5,3.8C23.7,21.4,24.1,20.4,24.6,19.4z M21.9,21.7c0.1-0.4,0.3-0.8,0.5-1.1
		c0.2-0.3,0.4-0.6,0.7-0.9c-0.1,0.4-0.2,0.7-0.3,1.1c-0.5,0.8-0.9,1.6-1.4,2.4C21.5,22.7,21.7,22.2,21.9,21.7z M22,23.7
		c-0.3,0.8-0.6,1.7-0.8,2.5c-0.4,0.8-0.8,1.7-1.2,2.6c0-0.2,0.1-0.3,0.1-0.5c0.1-0.4,0.3-0.8,0.4-1.2C20.9,25.9,21.4,24.8,22,23.7z
		 M20.1,41.1c0.1,1.4,0.4,2.7,0.8,4c0,0.3,0,0.6-0.1,0.9c-0.4-1.2-0.7-2.4-0.9-3.7C20,41.8,20,41.5,20.1,41.1z M20,36
		c0-0.3,0.1-0.7,0.2-1c0,0.4-0.1,0.9-0.1,1.3C20.1,36.3,20,36.2,20,36z M19.7,32.3v-0.4c0.1-0.2,0.1-0.4,0.2-0.6
		C19.8,31.7,19.8,32,19.7,32.3z M20,46.3c0.2,0.6,0.4,1.2,0.6,1.7c0,0.6,0,1.2,0,1.8c-0.4-1-0.8-2-1.1-3c0-0.5,0-1,0.1-1.5
		C19.8,45.6,19.9,45.9,20,46.3z M20.1,51.3c-0.1-0.1-0.2-0.2-0.4-0.4c0-0.2,0-0.3,0-0.5C19.8,50.7,20,51,20.1,51.3z M20.8,52.9
		c0.1,1.1,0.1,2.1,0.3,3.2c0,0.2,0,0.4,0.1,0.6c-0.6-1.5-1-3-1.2-4.6C20.2,52.4,20.5,52.7,20.8,52.9z M18.1,48.9
		c-1.4-1.9-2.5-4.1-3.1-6.6c-1.3-5.3-0.4-10.9,1.9-15.8c0.9-1.9,2-3.8,3.3-5.5c-1.6,2.5-2.9,5.2-3.4,8.2c-0.3,2-0.3,4,0,5.9
		c0,2.4,0.3,4.8,0.8,7.2c0,0,0,0.1,0,0.1c0.1,1.1,0.3,2.2,0.6,3.3C18.1,46.9,18.1,47.9,18.1,48.9z M20.5,22c-0.9,1.5-1.6,3-2.2,4.6
		C18.8,25.1,19.6,23.5,20.5,22z M17.7,36.2c-0.1-0.4-0.1-0.7-0.2-1.1c0-1.1,0.1-2.2,0.3-3.3c0.4-2.7,1.3-5.2,2.5-7.6
		c-0.4,1.4-0.8,2.7-1,4.1C18.4,30.8,17.9,33.5,17.7,36.2z M18.6,39.9c0-0.2-0.1-0.3-0.2-0.5c0-0.7,0-1.4,0-2.1
		c0.1-0.9,0.3-1.8,0.5-2.7c0,0.3,0,0.5,0.1,0.8c0,0.2,0.1,0.3,0.1,0.5c-0.1,0.8-0.2,1.7-0.3,2.5C18.7,38.8,18.6,39.4,18.6,39.9z
		 M19,51.4c0.2,1.6,0.6,3.3,1.1,4.9c0.4,1.1,0.9,2.1,1.4,3.1c0.2,0.9,0.3,1.8,0.6,2.8C20.2,58.9,19.3,55.2,19,51.4z M21.7,54.2
		c1,1.7,2.3,3.1,3.8,4.3c0.2,0.7,0.5,1.4,1,2c0.4,1,0.8,2.1,1.2,3.1c0.4,0.9,0.8,1.8,1.6,2.4c1.7,1.2,3.6,0.1,3.8-1.9
		c0-0.2,0-0.4,0-0.5c0.1,0.1,0.3,0.1,0.4,0.2c0.5,0.7,1.1,1.4,1.9,1.9c1.5,1,3.5,1.4,5.5,1.4c0.1,0.2,0.2,0.4,0.3,0.5
		c-2.7,0.5-5.4,0.8-8.1,1c-0.3,0-0.6,0-0.9,0.1c-4.1-2.2-7.6-5.5-9.9-9.6C22,57.6,21.8,55.9,21.7,54.2z M25.5,67.6
		c0,0-0.1-0.1-0.1-0.1c0.2,0.2,0.5,0.4,0.7,0.6C25.9,67.9,25.7,67.7,25.5,67.6z M28.8,68.9c-2-1.2-3.8-2.8-5.3-4.6
		c-0.3-0.9-0.5-1.8-0.7-2.7c0-0.1,0-0.1,0-0.2c2.1,3,4.9,5.6,8.1,7.5C30.1,69,29.4,69,28.8,68.9z M37.7,71.9c-2.5-0.3-5.1-1-7.4-2.2
		c0.6,0,1.2,0,1.7-0.1c0.1,0,0.2,0.1,0.3,0.2C34.1,70.7,35.9,71.4,37.7,71.9C37.7,71.9,37.7,71.9,37.7,71.9z M42.4,72
		c-2.5-0.3-4.9-0.9-7.3-1.8c-0.5-0.2-1-0.4-1.6-0.7c0.3,0,0.7,0,1-0.1c2.4-0.2,4.8-0.6,7.2-1c1,1,2.2,1.7,3.6,1.9
		c2.4,0.3,4.6-1,6.3-2.6c0,0,0.1-0.1,0.1-0.1c1.6,0.1,3.2,0,4.8-0.1C52.3,69.9,47.4,71.7,42.4,72z M83.3,45.4
		c-2,6.3-5.9,11.8-10.9,16.1C65.5,67.6,56.1,72,46.7,72.2c4.2-0.9,8.2-2.7,11.8-5c2.3-0.4,4.5-1,6.6-2c3.1-1.4,5.8-3.5,8-6
		c2.4-1.1,4.3-3.1,4.6-5.9c0-0.4,0.1-0.8,0.1-1.2c0.1-0.1,0.1-0.2,0.2-0.3c1.5-3.2,2.3-6.5,2.6-9.9c0.8-1.8,1.5-3.7,2-5.6
		c0.7-2.9,0.9-5.9,0.6-8.8c-0.1-0.9-0.2-1.8-0.4-2.7c0.1,0.2,0.2,0.4,0.2,0.6C85.5,31.7,85.4,38.9,83.3,45.4z"/>
	<g display="none">
		<g display="inline">
			<path fill="#FFFFFF" d="M49.6,38.7c-0.7-2.1-2.1-3.5-4.6-3.7c0.5-0.2,0.7-0.3,1-0.4c1.2-0.5,2-1.2,2.5-2.3c1.1-2.3,0.9-7-2.4-9.2
				c-1.5-1-3.1-1.4-4.8-1.4c-5,0-10,0-15,0c-0.2,0-0.4,0-0.6,0.1v29.2h0.9c4.7,0,9.4,0,14.1,0c0.8,0,1.5-0.1,2.3-0.2
				c3.7-0.6,6.2-2.8,7-6.1C50.3,42.6,50.3,40.6,49.6,38.7z M32.3,26.9c0.2,0,0.5-0.1,0.7-0.1c2.5,0,4.9,0,7.4,0
				c1.3,0,2.2,0.6,2.3,1.8c0.1,1,0.1,2.1-0.1,3.2c-0.1,0.9-0.8,1.5-1.7,1.5c-2.8,0-5.7,0-8.6,0V26.9z M43.6,43.7
				c-0.3,1.1-1.1,1.8-2.2,1.9c-3,0.1-6,0-9.1,0v-7.7c0.3,0,0.5,0,0.8,0c2.3,0,4.7,0,7,0c2.3,0,3.4,0.9,3.7,3.1
				C44,41.9,43.8,42.8,43.6,43.7z M56.4,23.4v3.5h11.9v-3.5H56.4z M65.4,46.5c-1.6,0.6-3.2,0.6-4.8,0.1c-2-0.7-3.3-2.9-2.9-4.8h15.2
				c-0.1-1.6-0.1-3.1-0.4-4.5C72,34,70.5,31.3,67.3,30c-1.1-0.5-2.3-0.7-3.5-0.8c-4.4-0.3-8.2,0.7-10.6,4.7
				c-2.1,3.5-2.5,7.2-1.1,11.1c1,2.9,3,4.9,5.9,5.8c2.1,0.7,4.2,0.8,6.4,0.6c1.8-0.2,3.6-0.6,5.2-1.7c2.1-1.4,3-3.5,3.1-6h-5.1
				C67.3,45.1,66.6,46,65.4,46.5z M63.1,33.4c2.4,0.1,4.1,2.1,4,4.5h-9.5C57.8,35.2,60.2,33.2,63.1,33.4z"/>
			<g>
				<g>
					<path fill="#414042" d="M49.6,38.7c-0.3-1-0.9-1.9-1.7-2.6c-0.8-0.6-1.9-1-2.9-1c-0.1,0-0.1-0.1-0.1-0.1c0,0,0-0.1,0.1-0.1l0,0
						c0.7-0.3,1.4-0.5,2-1c0.6-0.4,1-1,1.3-1.6c0.3-0.7,0.5-1.3,0.5-2c0.1-0.7,0-1.4-0.1-2.1c-0.2-1.4-0.8-2.7-1.7-3.8
						c-0.5-0.5-1-0.9-1.6-1.3c-0.6-0.3-1.3-0.6-2-0.8c-0.7-0.2-1.4-0.3-2.1-0.3L39,22l-4.4-0.1c-1.5,0-3-0.1-4.4-0.1l-2.2,0
						c-0.7,0-1.5-0.1-2.2,0l0.1-0.2c0,2.4,0,4.9,0.1,7.3l0.1,7.3c0.1,4.9,0.1,9.7,0.2,14.6l-0.5-0.5c2.8,0,5.5,0,8.3,0l4.1,0l2.1,0
						c0.6,0,1.4-0.1,2-0.1l0.5,0l0.1,0c0,0,0.1,0,0,0l0.1,0l0.3,0c0.4-0.1,0.7-0.1,1-0.2c0.6-0.2,1.3-0.4,1.9-0.7
						c1.2-0.6,2.2-1.5,2.9-2.7c0.7-1.2,1.1-2.5,1.2-3.9C50.2,41.4,50,40.1,49.6,38.7z M49.7,38.7c0.5,1.3,0.6,2.7,0.6,4.1
						c-0.1,1.4-0.4,2.8-1,4c-0.7,1.2-1.7,2.3-2.9,3.1c-0.6,0.4-1.3,0.7-2,0.9c-0.3,0.1-0.7,0.2-1,0.3l-0.3,0.1l-0.1,0l-0.1,0l-0.1,0
						l-0.5,0c-0.7,0-1.3,0.2-2.1,0.2l-2.1,0l-4.1,0c-2.8,0-5.5,0-8.3,0l0,0c-0.3,0-0.5-0.2-0.5-0.5c0-4.9,0.1-9.7,0.2-14.6l0.1-7.3
						c0.1-2.4,0-4.9,0.1-7.3c0-0.1,0.1-0.1,0.1-0.1l0,0c0.7-0.1,1.5,0,2.2-0.1l2.2,0c1.5,0,3,0,4.4-0.1l4.4-0.1l2.2,0
						c0.8,0,1.5,0.1,2.3,0.3c1.5,0.4,3,1.1,4,2.3c1,1.2,1.7,2.7,1.8,4.2c0.1,0.8,0.1,1.5,0,2.3c-0.1,0.8-0.3,1.5-0.7,2.2
						c-0.4,0.7-0.9,1.3-1.6,1.7c-0.6,0.4-1.4,0.6-2.1,0.9l0-0.2c1.1,0.1,2.1,0.5,3,1.2C48.8,36.7,49.4,37.7,49.7,38.7z"/>
					<path fill="#414042" d="M32.3,26.8c0.5-0.1,1.1-0.2,1.6-0.2c0.5,0,1.1-0.1,1.6-0.1c1.1-0.1,2.1-0.1,3.2-0.1c0.5,0,1.1,0,1.6,0
						c0.6,0,1.2,0.2,1.7,0.5c0.5,0.4,0.8,1,0.9,1.5C43,29,43,29.5,43,30.1c0,0.5-0.1,1.1-0.1,1.6c0,0.5-0.3,1.2-0.8,1.5
						c-0.5,0.4-1.2,0.4-1.7,0.4l-1.6,0.1l-3.2,0.1c-1.1,0-2.1,0-3.2,0l0,0c-0.3,0-0.5-0.2-0.5-0.5l0,0c0.1-1.1,0.1-2.1,0.2-3.2
						C32.1,29,32.1,28,32.3,26.8C32.3,26.9,32.3,26.8,32.3,26.8L32.3,26.8z M32.4,26.9c0.1,1.1,0.2,2.1,0.3,3.2
						c0.1,1.1,0.1,2.1,0.2,3.2l-0.5-0.5c1.1,0,2.1,0,3.2,0l3.2,0.1l1.6,0.1c0.6,0,1,0.1,1.4-0.1c0.4-0.2,0.7-0.6,0.7-1.1
						c0.1-0.5,0.2-1,0.2-1.6c0-0.5,0-1.1-0.1-1.6c-0.1-0.5-0.4-0.9-0.8-1.1c-0.4-0.2-0.9-0.2-1.4-0.2c-0.5,0-1.1,0-1.6,0
						c-1.1,0-2.1,0-3.2-0.1c-0.5,0-1.1-0.1-1.6-0.1C33.4,27,32.9,27,32.4,26.9z"/>
					<path fill="#414042" d="M43.7,43.7c-0.2,1-1.1,1.9-2.2,2.1L40,45.9C39.5,46,39,46,38.5,46c-1,0-2,0-3.1,0l-3.1-0.2l0,0
						c-0.1,0-0.2-0.1-0.2-0.2l0,0c0.1-1.3,0.1-2.6,0-3.9c0-1.3-0.1-2.6-0.2-3.9c0-0.2,0.1-0.4,0.3-0.4l0,0c1.4-0.1,2.7-0.1,4-0.2
						c0.7,0,1.3,0,2,0l1,0l1,0c0.3,0,0.7,0.1,1.1,0.1c0.4,0.1,0.7,0.2,1.1,0.4c0.7,0.4,1.2,1.1,1.3,1.8C44.2,41,44,42.4,43.7,43.7z
						 M43.6,43.7c0.1-0.6,0.2-1.3,0.2-2c-0.1-0.6-0.2-1.3-0.5-1.9c-0.3-0.6-0.7-1-1.2-1.2c-0.3-0.1-0.5-0.2-0.8-0.2
						c-0.3,0-0.6-0.1-0.9-0.1l-1,0l-1,0c-0.7,0-1.3,0-2,0l-2,0c-0.7,0-1.3-0.1-2,0l0.4-0.4c-0.1,1.3-0.2,2.6-0.2,3.9
						c0,1.3-0.1,2.6,0,3.9l-0.2-0.2l3-0.2c1-0.1,2-0.1,3.1,0c0.5,0,1,0,1.5,0.1l1.5,0.1c0.5,0,1-0.1,1.3-0.4
						C43.2,44.6,43.5,44.2,43.6,43.7z"/>
				</g>
				<path fill="#414042" d="M56.4,23.5c0.2,1.1,0.3,2.3,0.3,3.4l-0.4-0.4c1,0,2-0.1,3-0.1c1,0,2,0.1,3,0.2c1,0.1,2,0.1,3,0.1
					c1,0,2-0.1,3-0.1L68,26.9c-0.1-1.2-0.2-2.3-0.2-3.5l0.5,0.5c-1,0-2,0.1-3,0.1c-1,0-2,0-3,0c-1-0.1-2-0.1-3-0.2
					C58.4,23.7,57.4,23.6,56.4,23.5z M56.4,23.4c1-0.1,2-0.2,3-0.3c1-0.1,2-0.1,3-0.2c1,0,2-0.1,3,0c1,0,2,0,3,0.1l0,0
					c0.2,0,0.4,0.2,0.4,0.5l0,0c0,1.2-0.1,2.3-0.2,3.5l0,0c0,0.1-0.1,0.2-0.3,0.2c-1-0.1-2-0.1-3-0.1c-1,0-2,0.1-3,0.1
					c-1,0.1-2,0.2-3,0.2c-1,0-2,0-3-0.1l0,0c-0.2,0-0.3-0.2-0.3-0.4l0,0C56,25.7,56.2,24.6,56.4,23.4C56.3,23.4,56.3,23.4,56.4,23.4
					z"/>
				<g>
					<path fill="#414042" d="M65.4,46.5c-0.9,0.3-1.8,0.5-2.7,0.5c-0.5,0-0.9-0.1-1.4-0.2c-0.5-0.1-0.9-0.2-1.3-0.4
						c-0.8-0.4-1.6-1.1-2-1.9c-0.5-0.8-0.7-1.8-0.5-2.8c0-0.1,0.1-0.2,0.2-0.2l0,0l3.8-0.1l3.8-0.1c2.5-0.1,5.1,0,7.6,0l-0.4,0.4
						c-0.1-1.5-0.1-2.9-0.3-4.3c-0.2-1.4-0.6-2.8-1.2-4c-0.7-1.2-1.7-2.3-2.9-2.9c-1.2-0.7-2.6-1.1-4-1.2c-1.4-0.1-2.9-0.1-4.2,0.2
						c-1.4,0.3-2.7,0.8-3.8,1.7c-1.1,0.9-2,2-2.6,3.2c-0.7,1.2-1.2,2.5-1.4,3.9c-0.2,1.4-0.3,2.8,0,4.1c0.2,1.4,0.7,2.7,1.3,3.9
						c0.7,1.2,1.6,2.2,2.7,2.9c1.1,0.7,2.5,1.2,3.8,1.5c1.4,0.3,2.8,0.3,4.2,0.2c1.4-0.1,2.8-0.3,4-0.8c1.3-0.5,2.4-1.3,3.2-2.4
						c0.8-1.1,1.1-2.5,1.2-3.9l0.2,0.2c-1.7,0-3.4-0.1-5.1-0.1l0.1-0.1c-0.1,0.6-0.3,1.2-0.7,1.7C66.5,46,66,46.3,65.4,46.5z
						 M65.4,46.4c0.6-0.2,1.1-0.5,1.4-1c0.4-0.5,0.6-1,0.6-1.6c0,0,0-0.1,0.1-0.1c1.7,0,3.4-0.1,5.1-0.1c0.1,0,0.2,0.1,0.2,0.2l0,0
						l0,0c0,1.5-0.2,3-1.1,4.3c-0.4,0.6-0.9,1.2-1.5,1.7c-0.6,0.5-1.2,0.9-1.9,1.2c-1.4,0.6-2.9,0.9-4.3,1c-1.5,0.1-3,0.1-4.4-0.2
						c-1.5-0.3-2.9-0.8-4.2-1.6c-1.3-0.8-2.3-2-3-3.3c-0.2-0.3-0.3-0.7-0.5-1c-0.1-0.3-0.3-0.7-0.4-1c-0.2-0.7-0.4-1.4-0.5-2.2
						c-0.2-1.5-0.2-3,0.1-4.4c0.3-1.5,0.9-2.9,1.6-4.1c0.7-1.3,1.7-2.4,3-3.3c1.2-0.8,2.6-1.4,4.1-1.6c1.4-0.2,2.9-0.3,4.3-0.1
						c1.4,0.2,2.9,0.6,4.2,1.3c1.3,0.7,2.4,1.8,3.2,3c0.8,1.3,1.2,2.7,1.5,4.1c0.3,1.5,0.3,2.9,0.4,4.3c0,0.2-0.1,0.4-0.4,0.4l0,0h0
						c-2.5,0-5.1,0.1-7.6,0l-3.8-0.1L57.7,42l0.2-0.2c-0.4,1.7,0.6,3.6,2.1,4.4c0.4,0.2,0.8,0.3,1.3,0.5c0.4,0.1,0.9,0.2,1.3,0.2
						C63.6,46.9,64.5,46.7,65.4,46.4z"/>
					<path fill="#414042" d="M63.1,33.3c0.3,0,0.6,0.1,0.8,0.1c0.3,0.1,0.6,0.1,0.8,0.2c0.3,0.1,0.5,0.2,0.8,0.4
						c0.3,0.2,0.5,0.3,0.7,0.5c0.5,0.4,0.8,1,1,1.5c0.2,0.6,0.2,1.2,0.2,1.8l0,0.1c0,0.2-0.2,0.3-0.3,0.3c-0.8-0.1-1.6-0.2-2.4-0.2
						c-0.8,0-1.6,0-2.4,0.1c-0.8,0.1-1.6,0.1-2.4,0.2l-2.4,0.1c-0.3,0-0.5-0.2-0.5-0.5l0,0l0,0c0-0.4,0.1-0.7,0.2-1.1
						c0.1-0.4,0.2-0.7,0.4-1c0.4-0.6,0.9-1.2,1.5-1.6c0.6-0.4,1.3-0.6,2-0.7C61.8,33.3,62.5,33.3,63.1,33.3z M63.1,33.4
						c-0.3,0-0.7,0-1,0.1c-0.3,0.1-0.6,0.2-0.9,0.3c-0.6,0.3-1.1,0.6-1.5,1.1c-0.4,0.4-0.8,0.9-1.1,1.4c-0.1,0.3-0.2,0.5-0.3,0.8
						c-0.1,0.3-0.1,0.6-0.2,0.9l-0.5-0.5l2.4,0.1c0.8,0,1.6,0.1,2.4,0.2c0.8,0.1,1.6,0.1,2.4,0.1c0.8,0,1.6-0.1,2.4-0.2l-0.4,0.3
						c0-0.5-0.1-1-0.3-1.5c-0.1-0.2-0.2-0.5-0.3-0.7c-0.1-0.2-0.2-0.4-0.4-0.7c-0.3-0.4-0.7-0.8-1.1-1.1c-0.2-0.1-0.5-0.3-0.7-0.3
						C63.7,33.5,63.4,33.4,63.1,33.4z"/>
				</g>
			</g>
		</g>
		<g display="inline">
			<path fill="#FFFFFF" d="M49.6,38.7c-0.7-2.1-2.1-3.5-4.6-3.7c0.5-0.2,0.7-0.3,1-0.4c1.2-0.5,2-1.2,2.5-2.3c1.1-2.3,0.9-7-2.4-9.2
				c-1.5-1-3.1-1.4-4.8-1.4c-5,0-10,0-15,0c-0.2,0-0.4,0-0.6,0.1v29.2h0.9c4.7,0,9.4,0,14.1,0c0.8,0,1.5-0.1,2.3-0.2
				c3.7-0.6,6.2-2.8,7-6.1C50.3,42.6,50.3,40.6,49.6,38.7z M32.3,26.9c0.2,0,0.5-0.1,0.7-0.1c2.5,0,4.9,0,7.4,0
				c1.3,0,2.2,0.6,2.3,1.8c0.1,1,0.1,2.1-0.1,3.2c-0.1,0.9-0.8,1.5-1.7,1.5c-2.8,0-5.7,0-8.6,0V26.9z M43.6,43.7
				c-0.3,1.1-1.1,1.8-2.2,1.9c-3,0.1-6,0-9.1,0v-7.7c0.3,0,0.5,0,0.8,0c2.3,0,4.7,0,7,0c2.3,0,3.4,0.9,3.7,3.1
				C44,41.9,43.8,42.8,43.6,43.7z"/>
			<g>
				<g>
					<path fill="#414042" d="M49.6,38.7c-0.3-1-0.9-1.9-1.7-2.6c-0.8-0.6-1.9-1-2.9-1c-0.1,0-0.1-0.1-0.1-0.1c0,0,0-0.1,0.1-0.1l0,0
						c0.7-0.3,1.4-0.5,2-1c0.6-0.4,1-1,1.3-1.6c0.3-0.7,0.5-1.3,0.5-2c0.1-0.7,0-1.4-0.1-2.1c-0.2-1.4-0.8-2.7-1.7-3.8
						c-0.5-0.5-1-0.9-1.6-1.3c-0.6-0.3-1.3-0.6-2-0.8c-0.7-0.2-1.4-0.3-2.1-0.3L39,22l-4.4-0.1c-1.5,0-3-0.1-4.4-0.1l-2.2,0
						c-0.7,0-1.5-0.1-2.2,0l0.1-0.2c0,2.4,0,4.9,0.1,7.3l0.1,7.3c0.1,4.9,0.1,9.7,0.2,14.6l-0.5-0.5c2.8,0,5.5,0,8.3,0l4.1,0l2.1,0
						c0.6,0,1.4-0.1,2-0.1l0.5,0l0.1,0c0,0,0.1,0,0,0l0.1,0l0.3,0c0.4-0.1,0.7-0.1,1-0.2c0.6-0.2,1.3-0.4,1.9-0.7
						c1.2-0.6,2.2-1.5,2.9-2.7c0.7-1.2,1.1-2.5,1.2-3.9C50.2,41.4,50,40.1,49.6,38.7z M49.7,38.7c0.5,1.3,0.6,2.7,0.6,4.1
						c-0.1,1.4-0.4,2.8-1,4c-0.7,1.2-1.7,2.3-2.9,3.1c-0.6,0.4-1.3,0.7-2,0.9c-0.3,0.1-0.7,0.2-1,0.3l-0.3,0.1l-0.1,0l-0.1,0l-0.1,0
						l-0.5,0c-0.7,0-1.3,0.2-2.1,0.2l-2.1,0l-4.1,0c-2.8,0-5.5,0-8.3,0l0,0c-0.3,0-0.5-0.2-0.5-0.5c0-4.9,0.1-9.7,0.2-14.6l0.1-7.3
						c0.1-2.4,0-4.9,0.1-7.3c0-0.1,0.1-0.1,0.1-0.1l0,0c0.7-0.1,1.5,0,2.2-0.1l2.2,0c1.5,0,3,0,4.4-0.1l4.4-0.1l2.2,0
						c0.8,0,1.5,0.1,2.3,0.3c1.5,0.4,3,1.1,4,2.3c1,1.2,1.7,2.7,1.8,4.2c0.1,0.8,0.1,1.5,0,2.3c-0.1,0.8-0.3,1.5-0.7,2.2
						c-0.4,0.7-0.9,1.3-1.6,1.7c-0.6,0.4-1.4,0.6-2.1,0.9l0-0.2c1.1,0.1,2.1,0.5,3,1.2C48.8,36.7,49.4,37.7,49.7,38.7z"/>
					<path fill="#414042" d="M32.3,26.8c0.5-0.1,1.1-0.2,1.6-0.2c0.5,0,1.1-0.1,1.6-0.1c1.1-0.1,2.1-0.1,3.2-0.1c0.5,0,1.1,0,1.6,0
						c0.6,0,1.2,0.2,1.7,0.5c0.5,0.4,0.8,1,0.9,1.5C43,29,43,29.5,43,30.1c0,0.5-0.1,1.1-0.1,1.6c0,0.5-0.3,1.2-0.8,1.5
						c-0.5,0.4-1.2,0.4-1.7,0.4l-1.6,0.1l-3.2,0.1c-1.1,0-2.1,0-3.2,0l0,0c-0.3,0-0.5-0.2-0.5-0.5l0,0c0.1-1.1,0.1-2.1,0.2-3.2
						C32.1,29,32.1,28,32.3,26.8C32.3,26.9,32.3,26.8,32.3,26.8L32.3,26.8z M32.4,26.9c0.1,1.1,0.2,2.1,0.3,3.2
						c0.1,1.1,0.1,2.1,0.2,3.2l-0.5-0.5c1.1,0,2.1,0,3.2,0l3.2,0.1l1.6,0.1c0.6,0,1,0.1,1.4-0.1c0.4-0.2,0.7-0.6,0.7-1.1
						c0.1-0.5,0.2-1,0.2-1.6c0-0.5,0-1.1-0.1-1.6c-0.1-0.5-0.4-0.9-0.8-1.1c-0.4-0.2-0.9-0.2-1.4-0.2c-0.5,0-1.1,0-1.6,0
						c-1.1,0-2.1,0-3.2-0.1c-0.5,0-1.1-0.1-1.6-0.1C33.4,27,32.9,27,32.4,26.9z"/>
					<path fill="#414042" d="M43.7,43.7c-0.2,1-1.1,1.9-2.2,2.1L40,45.9C39.5,46,39,46,38.5,46c-1,0-2,0-3.1,0l-3.1-0.2l0,0
						c-0.1,0-0.2-0.1-0.2-0.2l0,0c0.1-1.3,0.1-2.6,0-3.9c0-1.3-0.1-2.6-0.2-3.9c0-0.2,0.1-0.4,0.3-0.4l0,0c1.4-0.1,2.7-0.1,4-0.2
						c0.7,0,1.3,0,2,0l1,0l1,0c0.3,0,0.7,0.1,1.1,0.1c0.4,0.1,0.7,0.2,1.1,0.4c0.7,0.4,1.2,1.1,1.3,1.8C44.2,41,44,42.4,43.7,43.7z
						 M43.6,43.7c0.1-0.6,0.2-1.3,0.2-2c-0.1-0.6-0.2-1.3-0.5-1.9c-0.3-0.6-0.7-1-1.2-1.2c-0.3-0.1-0.5-0.2-0.8-0.2
						c-0.3,0-0.6-0.1-0.9-0.1l-1,0l-1,0c-0.7,0-1.3,0-2,0l-2,0c-0.7,0-1.3-0.1-2,0l0.4-0.4c-0.1,1.3-0.2,2.6-0.2,3.9
						c0,1.3-0.1,2.6,0,3.9l-0.2-0.2l3-0.2c1-0.1,2-0.1,3.1,0c0.5,0,1,0,1.5,0.1l1.5,0.1c0.5,0,1-0.1,1.3-0.4
						C43.2,44.6,43.5,44.2,43.6,43.7z"/>
				</g>
			</g>
		</g>
		<g display="inline">
			<path fill="#FFFFFF" d="M65.4,46.5c-1.6,0.6-3.2,0.6-4.8,0.1c-2-0.7-3.3-2.9-2.9-4.8h15.2c-0.1-1.6-0.1-3.1-0.4-4.5
				C72,34,70.5,31.3,67.3,30c-1.1-0.5-2.3-0.7-3.5-0.8c-4.4-0.3-8.2,0.7-10.6,4.7c-2.1,3.5-2.5,7.2-1.1,11.1c1,2.9,3,4.9,5.9,5.8
				c2.1,0.7,4.2,0.8,6.4,0.6c1.8-0.2,3.6-0.6,5.2-1.7c2.1-1.4,3-3.5,3.1-6h-5.1C67.3,45.1,66.6,46,65.4,46.5z M63.1,33.4
				c2.4,0.1,4.1,2.1,4,4.5h-9.5C57.8,35.2,60.2,33.2,63.1,33.4z"/>
			<g>
				<g>
					<path fill="#414042" d="M65.4,46.5c-0.9,0.3-1.8,0.5-2.7,0.5c-0.5,0-0.9-0.1-1.4-0.2c-0.5-0.1-0.9-0.2-1.3-0.4
						c-0.8-0.4-1.6-1.1-2-1.9c-0.5-0.8-0.7-1.8-0.5-2.8c0-0.1,0.1-0.2,0.2-0.2l0,0l3.8-0.1l3.8-0.1c2.5-0.1,5.1,0,7.6,0l-0.4,0.4
						c-0.1-1.5-0.1-2.9-0.3-4.3c-0.2-1.4-0.6-2.8-1.2-4c-0.7-1.2-1.7-2.3-2.9-2.9c-1.2-0.7-2.6-1.1-4-1.2c-1.4-0.1-2.9-0.1-4.2,0.2
						c-1.4,0.3-2.7,0.8-3.8,1.7c-1.1,0.9-2,2-2.6,3.2c-0.7,1.2-1.2,2.5-1.4,3.9c-0.2,1.4-0.3,2.8,0,4.1c0.2,1.4,0.7,2.7,1.3,3.9
						c0.7,1.2,1.6,2.2,2.7,2.9c1.1,0.7,2.5,1.2,3.8,1.5c1.4,0.3,2.8,0.3,4.2,0.2c1.4-0.1,2.8-0.3,4-0.8c1.3-0.5,2.4-1.3,3.2-2.4
						c0.8-1.1,1.1-2.5,1.2-3.9l0.2,0.2c-1.7,0-3.4-0.1-5.1-0.1l0.1-0.1c-0.1,0.6-0.3,1.2-0.7,1.7C66.5,46,66,46.3,65.4,46.5z
						 M65.4,46.4c0.6-0.2,1.1-0.5,1.4-1c0.4-0.5,0.6-1,0.6-1.6c0,0,0-0.1,0.1-0.1c1.7,0,3.4-0.1,5.1-0.1c0.1,0,0.2,0.1,0.2,0.2l0,0
						l0,0c0,1.5-0.2,3-1.1,4.3c-0.4,0.6-0.9,1.2-1.5,1.7c-0.6,0.5-1.2,0.9-1.9,1.2c-1.4,0.6-2.9,0.9-4.3,1c-1.5,0.1-3,0.1-4.4-0.2
						c-1.5-0.3-2.9-0.8-4.2-1.6c-1.3-0.8-2.3-2-3-3.3c-0.2-0.3-0.3-0.7-0.5-1c-0.1-0.3-0.3-0.7-0.4-1c-0.2-0.7-0.4-1.4-0.5-2.2
						c-0.2-1.5-0.2-3,0.1-4.4c0.3-1.5,0.9-2.9,1.6-4.1c0.7-1.3,1.7-2.4,3-3.3c1.2-0.8,2.6-1.4,4.1-1.6c1.4-0.2,2.9-0.3,4.3-0.1
						c1.4,0.2,2.9,0.6,4.2,1.3c1.3,0.7,2.4,1.8,3.2,3c0.8,1.3,1.2,2.7,1.5,4.1c0.3,1.5,0.3,2.9,0.4,4.3c0,0.2-0.1,0.4-0.4,0.4l0,0h0
						c-2.5,0-5.1,0.1-7.6,0l-3.8-0.1L57.7,42l0.2-0.2c-0.4,1.7,0.6,3.6,2.1,4.4c0.4,0.2,0.8,0.3,1.3,0.5c0.4,0.1,0.9,0.2,1.3,0.2
						C63.6,46.9,64.5,46.7,65.4,46.4z"/>
					<path fill="#414042" d="M63.1,33.3c0.3,0,0.6,0.1,0.8,0.1c0.3,0.1,0.6,0.1,0.8,0.2c0.3,0.1,0.5,0.2,0.8,0.4
						c0.3,0.2,0.5,0.3,0.7,0.5c0.5,0.4,0.8,1,1,1.5c0.2,0.6,0.2,1.2,0.2,1.8l0,0.1c0,0.2-0.2,0.3-0.3,0.3c-0.8-0.1-1.6-0.2-2.4-0.2
						c-0.8,0-1.6,0-2.4,0.1c-0.8,0.1-1.6,0.1-2.4,0.2l-2.4,0.1c-0.3,0-0.5-0.2-0.5-0.5l0,0l0,0c0-0.4,0.1-0.7,0.2-1.1
						c0.1-0.4,0.2-0.7,0.4-1c0.4-0.6,0.9-1.2,1.5-1.6c0.6-0.4,1.3-0.6,2-0.7C61.8,33.3,62.5,33.3,63.1,33.3z M63.1,33.4
						c-0.3,0-0.7,0-1,0.1c-0.3,0.1-0.6,0.2-0.9,0.3c-0.6,0.3-1.1,0.6-1.5,1.1c-0.4,0.4-0.8,0.9-1.1,1.4c-0.1,0.3-0.2,0.5-0.3,0.8
						c-0.1,0.3-0.1,0.6-0.2,0.9l-0.5-0.5l2.4,0.1c0.8,0,1.6,0.1,2.4,0.2c0.8,0.1,1.6,0.1,2.4,0.1c0.8,0,1.6-0.1,2.4-0.2l-0.4,0.3
						c0-0.5-0.1-1-0.3-1.5c-0.1-0.2-0.2-0.5-0.3-0.7c-0.1-0.2-0.2-0.4-0.4-0.7c-0.3-0.4-0.7-0.8-1.1-1.1c-0.2-0.1-0.5-0.3-0.7-0.3
						C63.7,33.5,63.4,33.4,63.1,33.4z"/>
				</g>
			</g>
		</g>
		<g display="inline">
			<rect x="56.4" y="23.4" fill="#FFFFFF" width="11.9" height="3.5"/>
			<path fill="#414042" d="M68.3,23.4c0.2,1.2,0.3,2.3,0.3,3.5c0,0.2-0.1,0.4-0.3,0.4l0,0l0,0c-1,0-2,0.1-3,0.1c-1,0-2-0.1-3-0.2
				c-1-0.1-2-0.1-3-0.1c-1,0-2,0.1-3,0.1c-0.1,0-0.3-0.1-0.3-0.2l0,0c-0.1-1.2-0.2-2.3-0.2-3.5c0-0.2,0.2-0.5,0.4-0.5l0,0l0,0
				c1,0,2-0.1,3-0.1c1,0,2,0,3,0c1,0.1,2,0.1,3,0.2C66.3,23.1,67.3,23.2,68.3,23.4C68.3,23.4,68.3,23.4,68.3,23.4z M68.2,23.5
				c-1,0.1-2,0.2-2.9,0.3c-1,0.1-2,0.1-3,0.2c-1,0-2,0.1-3,0c-1,0-2,0-3-0.1l0.5-0.5c0,1.2-0.1,2.3-0.2,3.5l-0.3-0.3
				c1,0.1,2,0.1,3,0.1c1,0,2-0.1,3-0.1c1-0.1,2-0.2,3-0.2c1,0,2,0,3,0.1l-0.4,0.4C68,25.7,68.1,24.6,68.2,23.5z"/>
		</g>
	</g>
	<g>
		<g>
			<path fill="#FFFFFF" d="M71.7,55.3c-0.1,0-0.1,0-0.1,0c-3.1,0-6.2,0-9.3,0c0-0.1,0-0.1,0-0.2c0-0.1,0-0.2,0-0.3
				c0-4.9,0-9.8,0-14.7c0-1-0.1-1.9-0.3-2.8c-0.2-0.6-0.4-1.1-0.7-1.6c-0.7-1.1-1.6-1.7-2.8-1.9c-0.8-0.1-1.6-0.1-2.4,0.1
				c-1.1,0.3-1.9,0.9-2.6,1.8c-0.2,0.3-0.4,0.6-0.5,0.8c-0.4,0.6-0.5,1.3-0.6,2.1c0,0.3,0,0.6,0,0.9c0,5.1,0,10.3,0,15.4
				c0,0.1,0,0.3,0,0.5c-0.1,0-0.1,0-0.2,0c-1,0-8.9,0-9.2,0c-0.1-0.1,0-0.2,0-0.3c0-0.9,0-1.8,0-2.7c0-2.1,0-4.2,0-6.2
				c0-4.3,0-8.6,0-12.9c0-1.6,0-3.2,0-4.9c0-0.4,0-0.8,0-1.2c0-0.1,0-0.2,0-0.3c0.1,0,0.1,0,0.1,0c3.1,0,6.2,0,9.3,0
				c0,0.3,0,0.5,0,0.8c0,0.3,0,0.5,0,0.8v0.8c0,0.3,0,0.5,0,0.8c0,0.2,0,0.5,0,0.8c0.1-0.1,0.2-0.1,0.2-0.2c0.4-0.6,0.9-1.2,1.5-1.8
				c1.2-1.2,2.6-1.9,4.3-2.3c1-0.2,2-0.3,3-0.3c1.5,0.1,2.9,0.3,4.3,1c2.1,0.9,3.6,2.4,4.6,4.4c0.6,1.1,0.9,2.3,1.2,3.5
				c0.3,1.3,0.4,2.5,0.4,3.8c0,5.3,0,10.7,0,16C71.8,55,71.8,55.2,71.7,55.3z"/>
			<path fill="#414042" d="M71.7,55.4c-0.2,0.1-0.4,0-0.6,0l-0.6,0l-1.2,0L67,55.5l-4.7,0.1c-0.1,0-0.2-0.1-0.3-0.2
				c-0.1-0.6,0-1.1-0.1-1.6l0-1.5l0-3.1l-0.1-6.1l0-3.1c0-1-0.1-2-0.4-2.9c-0.3-0.9-0.8-1.8-1.5-2.3c-0.7-0.6-1.7-0.8-2.6-0.8
				c-0.9,0-1.9,0.3-2.6,0.8c-0.4,0.3-0.7,0.6-1,1l-0.4,0.6c-0.2,0.2-0.2,0.4-0.3,0.6c-0.2,0.4-0.3,0.9-0.3,1.4c0,0.5,0,1,0,1.5
				l0,3.1l-0.1,6.1l0,3.1l0,1.5l0,0.8c0,0.3,0,0.5,0,0.8c0,0.1-0.1,0.1-0.1,0.1l0,0c-0.2,0-0.4,0-0.6,0l-0.6,0l-1.2,0l-2.4,0l-4.7,0
				c0,0-0.1,0-0.1-0.1l0,0c-0.1-0.1-0.1-0.3-0.1-0.3c0-0.1,0-0.1,0-0.2l0-0.4l0-0.9l0-1.8l0-3.6l-0.1-7.1l-0.2-14.2l0,0
				c0-0.2,0.2-0.4,0.4-0.5l0.2,0l0.2,0l0.3,0l0.6,0l1.2,0l2.4,0l4.7,0l0,0c0.3,0,0.5,0.2,0.5,0.5l0,1l0,1l0,1.9l-0.8-0.5
				c0,0-0.1,0.1,0-0.1l0.2-0.3c0.1-0.2,0.3-0.4,0.5-0.6c0.3-0.4,0.7-0.8,1-1.1c0.7-0.7,1.6-1.2,2.5-1.7c1.8-0.8,3.9-1,5.8-0.8
				c2,0.2,3.9,0.8,5.5,2.1c1.6,1.2,2.7,2.9,3.4,4.8c0.7,1.8,1,3.8,1,5.7L72,43.9c0,1.9,0,3.8-0.1,5.7l-0.1,2.8
				C71.8,53.4,71.9,54.4,71.7,55.4C71.8,55.3,71.8,55.4,71.7,55.4L71.7,55.4z M71.7,55.3c0-0.9,0-1.9,0-2.8l-0.1-2.8
				c0-1.9-0.1-3.8-0.1-5.7l-0.1-5.7c-0.1-1.9-0.4-3.7-1.1-5.4c-0.7-1.7-1.8-3.2-3.2-4.3c-1.5-1-3.2-1.7-5-1.8
				c-1.8-0.2-3.7,0-5.3,0.8c-0.8,0.4-1.6,0.9-2.2,1.5c-0.3,0.3-0.6,0.6-0.9,1c-0.1,0.2-0.3,0.4-0.4,0.5L53,30.8l0,0.1
				c0,0,0,0.1-0.1,0.1c-0.1,0.1-0.2,0.2-0.3,0.3l0,0c-0.3,0.1-0.6,0-0.7-0.2c0-0.1-0.1-0.2-0.1-0.2l0-3.9l0.5,0.5l-4.7,0l-2.4,0
				l-1.2,0l-0.6,0l-0.3,0l-0.1,0c0,0,0,0-0.1,0l0.4-0.5c0,0.6,0,1.2,0,1.8l0,1.8l0,3.6l-0.1,7.1l-0.1,7.1L43,51.8l0,1.8l0,1.7
				l-0.1-0.1l4.7,0l2.4,0l1.2,0l0.6,0c0.2,0,0.4,0,0.6,0l-0.1,0.1c0-0.9,0-2,0-3l0-3.1L52,43.1l0-3.1c0-0.5,0-1,0-1.6
				c0-0.5,0.1-1.1,0.3-1.6c0.1-0.2,0.3-0.6,0.4-0.8l0.4-0.6c0.3-0.5,0.7-0.9,1.2-1.2c0.9-0.7,2-1,3.1-1c1.1,0,2.2,0.2,3.2,0.9
				c0.9,0.7,1.5,1.7,1.8,2.8c0.3,1,0.4,2.1,0.4,3.1l0,3.1l-0.1,6.1l0,3.1l0,1.5c0,0.5-0.1,1.1,0,1.5l-0.3-0.2l4.7,0.1l2.4,0.1l1.2,0
				l0.6,0C71.3,55.3,71.5,55.3,71.7,55.3z"/>
		</g>
		<g>
			<path fill="#FFFFFF" d="M37.6,55.3h-9.4c0-0.1,0-0.2,0-0.2c0-0.1,0-0.2,0-0.3c0-9.2,0-18.4,0-27.5c0-0.1,0-0.3,0-0.5
				c0.1,0,0.1,0,0.1,0c3.1,0,6.2,0,9.3,0c0,0.1,0,0.1,0,0.2c0,0.1,0,0.2,0,0.3c0,9.2,0,18.3,0,27.5C37.6,55,37.7,55.1,37.6,55.3z"/>
			<path fill="#414042" d="M37.6,55.4c-1.6,0.1-3.1,0.2-4.7,0.2c-1.6,0-3.1,0.1-4.7,0.1l0,0c-0.2,0-0.3-0.1-0.4-0.3
				c-0.1-0.7,0-1.2-0.1-1.8l0-1.8c0-1.2,0-2.4,0-3.6c0-1.2,0-2.4,0.1-3.6l0.1-3.6c0-1.2,0.1-2.4,0.1-3.6c0-1.2,0-2.4,0-3.6l0-3.6
				l0-1.8l0-0.9l0-0.5l0-0.4c0-0.1,0.1-0.2,0.2-0.2l0,0c0.3-0.1,0.4,0,0.6,0l0.6,0l1.2,0l2.4-0.1l4.7-0.1l0,0c0.2,0,0.4,0.2,0.4,0.4
				c0.1,0.7,0,1.3,0.1,1.9l0,1.8c0,1.2,0,2.4,0,3.6c0,2.4,0,4.8,0,7.1c-0.1,2.4-0.1,4.8-0.2,7.1l-0.1,3.6l-0.1,1.8
				C37.7,54.2,37.8,54.7,37.6,55.4C37.6,55.4,37.6,55.4,37.6,55.4L37.6,55.4z M37.5,55.3c0-0.5,0-1.2,0-1.7l-0.1-1.8l-0.1-3.6
				c-0.1-2.4-0.1-4.8-0.2-7.1c0-2.4,0-4.8,0-7.1c0-1.2,0-2.4,0-3.6l0-1.8c0-0.6,0-1.3,0-1.7l0.5,0.4l-4.7-0.1l-2.4-0.1l-1.2,0
				l-0.6,0c-0.2,0-0.4,0-0.5,0l0.2-0.2l0,0.4l0,0.4l0,0.9l0,1.8l0,3.6c0,1.2,0,2.4,0,3.6c0,1.2,0.1,2.4,0.1,3.6l0.1,3.6
				c0,1.2,0,2.4,0.1,3.6c0,1.2,0,2.4,0,3.6l0,1.8c0,0.6,0,1.2,0,1.7L28.2,55c1.6,0,3.1,0.1,4.7,0.1C34.4,55.1,36,55.2,37.5,55.3z"/>
		</g>
		<g>
			<path fill="#FFFFFF" d="M37.8,20.1c-0.6,1.2-1.5,2-2.8,2.5c-0.9,0.3-1.9,0.4-2.9,0.3c-0.6-0.1-1.2-0.2-1.7-0.5
				c-1.6-0.7-2.5-2-2.8-3.7c-0.2-1.1,0-2.1,0.5-3c0.6-1.2,1.6-1.9,2.9-2.3c0.6-0.2,1.3-0.3,1.9-0.3c1,0,1.8,0.2,2.7,0.6
				c1.4,0.7,2.2,1.8,2.6,3.3C38.4,18,38.3,19.1,37.8,20.1z"/>
			<path fill="#414042" d="M37.8,20.1c0,0-0.2,0.5-0.7,1.2c-0.3,0.3-0.7,0.8-1.2,1.1c-0.5,0.3-1.2,0.7-2,0.8
				c-0.8,0.2-1.7,0.1-2.6-0.1c-0.9-0.2-1.8-0.8-2.5-1.5c-0.7-0.8-1.1-1.7-1.3-2.7c-0.2-1-0.1-2.1,0.3-3.1c0.4-1,1.1-1.9,2.1-2.4
				c0.9-0.5,2-0.8,3-0.8c1,0,2,0.2,2.9,0.6c0.8,0.4,1.6,1.1,2,1.8c0.4,0.7,0.6,1.5,0.6,2.1c0.1,0.7,0,1.2-0.1,1.7
				C38.1,19.7,37.8,20.1,37.8,20.1z M37.7,20.1c0,0,0.1-0.1,0.1-0.3c0.1-0.2,0.2-0.6,0.2-1c0.1-0.9-0.2-2.2-1-3.3
				c-0.4-0.5-1-1-1.7-1.4c-0.7-0.3-1.5-0.5-2.4-0.5c-0.9-0.1-1.8,0.1-2.6,0.5c-0.8,0.4-1.5,1-2,1.9c-0.5,0.8-0.6,1.9-0.5,2.8
				c0.2,1,0.6,1.9,1.3,2.4c0.7,0.6,1.5,0.9,2.3,1.1c0.8,0.2,1.6,0.2,2.3,0.1c0.7,0,1.4-0.2,1.9-0.4c0.5-0.2,1-0.5,1.3-0.8
				c0.3-0.3,0.5-0.6,0.6-0.8C37.7,20.2,37.7,20.1,37.7,20.1z"/>
		</g>
	</g>
</g>
<g id="Layer_3">
</g>
</svg>
