<svg xmlns="http://www.w3.org/2000/svg" width="95.8" height="74" viewBox="0 0 95.8 74"><g><path fill="#414042" d="M83.5 24.4c-1.8-4.2-4.5-8-7.8-11.1-1.1-1.2-2.4-2.2-3.7-3.1l-1.8-1.2c-5.3-3.4-11.6-5.7-18-6.7l-.6-.2c-3.7-1-7.4-1.1-11.1 0-3.5 1-6.6 3-9.4 5.3-.2.2-.4.4-.7.6-2.3 1.3-4.1 3.2-5.2 5.6-.1.3-.2.5-.4.8l-1 1.5-.9.9c-7.7 7.5-12.1 19.6-7.2 29.8.7 1.4 1.5 2.6 2.4 3.7.3 5.2 1.6 10.3 4.7 14.4.7 1.7 1.7 3.4 3.3 4.3.7.4 1.5.6 2.4.7 4.2 2.5 9.1 3.5 14 3.2 10.4 1 21.5-3.3 29.5-10 5.4-4.5 9.7-10.3 12-17 2.3-7 2.3-14.7-.5-21.5zm-1.5 10.6c-.3 1.6-.7 3-1.3 4.5.2-2.2.2-4.4-.1-6.6 0-.2 0-.3-.1-.5.4-2.3.5-4.5.3-6.9-.1-1.1-.3-2.2-.5-3.3.2.2.4.4.6.5 1 1.1 1.2 2.5 1.4 4 .3 2.8.2 5.6-.3 8.3zm-.2-12.3c-.5-.7-1.1-1.2-1.8-1.7-.3-1.1-.7-2.1-1.2-3.1 1.1 1.5 2.2 3.1 3 4.8zm-2.7 17c0-.3 0-.7-.1-1l.1-.6.7-2.1c.1 1.2.2 2.5.1 3.7-.1 1-.3 2-.5 3.1l-.1.2-.3.8c.1-1.5.2-2.8.1-4.1zm.4-5.6v-.7c0 .1 0 .3.1.4-.1.1-.1.2-.1.3zm-4-14.3c-.3-.6-.7-1.1-1.1-1.7l3.2 2.1c.5.4 1.1.8 1.7 1.2.8 2.7 1 5.6.8 8.4-.8-3.6-2.4-7-4.6-10zm-2.8 38.7c-.8.4-1.6.7-2.5.9.7-.6 1.4-1.1 2.1-1.8 2-2 3.6-4.4 4.8-7v1.3c-1.2 2.4-2.7 4.6-4.4 6.6zm4.1-4.4c-.3 1.3-1 2.3-2 3.1.7-1 1.4-2 2-3.1zm-52.8-1.4c.3.4.6.7 1 1v1c-.5-.6-.8-1.3-1-2zm.1 2.7c-.1-.1-.1-.2-.2-.2 0 0 .1 0 .1.1.1 0 .1 0 .1.1zm-.8-4.8c-.1-.2-.1-.4-.1-.6.5.8 1.2 1.6 1.9 2.4v.3c-.7-.7-1.2-1.4-1.8-2.1zm19.3-43c.7 0 1.5 0 2.2.1-1.1 0-2.3.1-3.4.2l1.2-.3zm-1-.8l.8-.2c-.2 0-.4.1-.5.1-.1.1-.2.1-.3.1zm35.2 19.9l-.1-.3c-.1-.5-.2-1.1-.4-1.6-.9-3.4-2.9-6.3-5.6-8.5-.5-.4-1.1-.9-1.7-1.3.9.5 1.8.9 2.6 1.4l.6.6c2.4 3.1 4.4 6.6 5.7 10.3.6 2.3.9 4.8.8 7.2l-.1 1.5-.6-2.3c.1-2.4-.2-4.8-1.2-7zm-12.7 32.6c-.3-.1-.7-.1-1-.1 2.4-1.3 4.6-3 6.5-5 1-1 1.8-2.1 2.6-3.2-.7 1.3-1.5 2.6-2.3 3.9-1.7 1.7-3.7 3.1-5.8 4.4zm3.6-.2c2.3-1.3 4.5-2.8 6.3-4.7-1.6 2.1-3.5 3.9-5.7 5.3h-1.1c.1-.2.3-.4.5-.6zm-.7 1.3l-.9.4c.2-.2.3-.3.4-.5.2.1.3.1.5.1zm-19.3 2.3c-1.9-.3-3.8-.8-5.6-1.3l2.3.2c2.3.3 4.7.2 7-.6.3-.1.7-.2 1-.4 1.6.1 3.2 0 4.9-.2-.3.2-.6.5-1 .7-2.9.8-5.7 1.3-8.6 1.6zm5.3.3zm-4.3 2c-2.3.1-4.6 0-6.9-.5 2.8.1 5.6 0 8.3-.3.2 0 .5-.1.8-.1-.7.3-1.4.6-2.2.9zm.6.8l-2.1.6h-.1c.6-.2 1.2-.4 1.7-.6h.5zm-12.2-14.3c-.5-.4-.9-.9-1.3-1.4 1.3.6 2.6 1.2 3.8 1.6.3.1.7.2 1.1.4.1.1.2.2.4.2 3.2 2 7 2.5 10.8 2-1.1.5-2.3.8-3.4 1.2-1.4.1-2.9.1-4.3 0-2.6-.8-5-2.2-7.1-4zm7 6.5c-.5-.1-1.1-.2-1.6-.2l-2.4-.9c.2 0 .4.1.5.1 1.2.3 2.4.7 3.5 1zm-14.3-2.6l-.4-1.4c.2.2.5.3.8.5.5.8 1.1 1.6 1.8 2.2-.8-.4-1.5-.9-2.2-1.3zm3.7 3c-1.1-.5-2.2-1-3.2-1.6 0 0 0-.1-.1-.2 1.1.7 2.2 1.2 3.3 1.8zm-5.2-12l-.6-1.9v-.5l.4.5.9 1.8c.1.5.2 1.1.4 1.6-.3-.4-.7-.9-1.1-1.5zm.2 7.5l-.3-.8s.1.1.2.1c0 .3.1.5.1.7zm-5.5-10.4l.2-1.8c.4 1 1 2.1 1.6 3l.3 1.6c-.7-.9-1.5-1.8-2.1-2.8zm1.7 3.5l-.8-.7-.2-.5 1 1.2zm-2.6 1.2c0 .2 0 .4.1.7-.1-.1-.1-.2-.1-.2l-.6-1.1v-.6c.2.3.4.8.6 1.2zm-.5-3.1v-.6c.1.2.2.5.4.7v1.1l-.4-1.2zm.6-4.9c0-.3.1-.7.2-1l.3 1c-.1.4-.2.9-.2 1.3-.2-.4-.2-.8-.3-1.3zm.3-5.4c0-.9 0-1.7.1-2.6.2-.7.3-1.4.6-2.1-.1.9-.1 1.7-.1 2.6-.2.8-.4 1.4-.6 2.1zm.7.4l.3 1.8c-.2.5-.3 1.1-.4 1.6l-.3-1.4c.1-.6.2-1.3.4-2zm.3 5l.3-1.5.2.9.2.7c0 .7.1 1.5.2 2.2-.1-.2-.2-.5-.4-.8-.1-.5-.3-1-.5-1.5zm1.6-.2v-.7c.3.6.6 1.2.8 1.9v.7c-.3-.6-.6-1.2-.8-1.9zm.5-6.3c.2-.9.5-1.8.8-2.6-.3 1.8-.4 3.5-.3 5.3l-.2 2.4c-.4-1.7-.5-3.4-.3-5.1zm.5 17.4l.4.5c.1.5.2 1 .4 1.5l-1-.9c.1-.4.1-.8.2-1.1zm1-5.1v.5c-.1-.1-.2-.2-.2-.3v-.4c.1 0 .1.1.2.2zm-.2-9.6c0-.2 0-.4.1-.5v.4l-.1.5c.1-.1.1-.2 0-.4zm.4 11.5c0 .2.1.5.1.8l-.6-.6c0-.3 0-.5-.1-.8l.6.6zm-.1 6.5l.3.2v.1l.1.3c-.6-.5-1.2-1-1.8-1.6v-.3c.4.5.9.9 1.4 1.3zm.3-2.9c-.2-.5-.4-1-.5-1.5v-.3c.2.2.4.3.6.4.1.6.2 1.2.4 1.8-.1-.1-.2-.2-.3-.2 0-.1-.1-.2-.2-.2zm22.1-38.1c-1.4-.1-2.8 0-4.2.1.3-.2.6-.4.9-.5h.1c1 .1 2.1.2 3.2.4zm-2.4-1.9l.3-.1c-.1.1-.2.1-.3.1zm26.5 16.4c1 1.3 1.8 2.8 2.4 4.3 0 .6-.1 1.3-.2 1.9-.3-2.2-1.1-4.3-2.2-6.2zm1.8 9c0 .1 0 .2-.1.4v-.2c0-.1.1-.2.1-.4v.2zm-3.9-12.6l-.3-.6c.7.8 1.4 1.6 2 2.4-.5-.6-1.1-1.2-1.7-1.8zm.7 16.6v.3l-.1.1c.1-.1.1-.2.1-.4zm-9.3 15.3c.2-.2.4-.5.7-.7 3-2.1 5.3-5.1 6.9-8.6.5-1.3 1-2.7 1.4-4.1.1-.1.2-.2.3-.4-.1 1.9-.4 3.8-1 5.7-2.1 3.4-4.8 6.3-8.3 8.1zm6.6-4.3c-.7 1.1-1.6 2.1-2.7 3-.9.7-2 1.3-3.1 1.8 1.9-1 3.6-2.4 5.1-4l.7-.8zm-17.2 6.5c-.5 0-1 0-1.5-.1.6-.3 1.1-.5 1.6-.8 1.3-.1 2.6-.3 3.8-.6-.4.4-.9.8-1.4 1.2-.8.1-1.6.2-2.5.3zm.6 1l-.3.1c-.2.1-.5.2-.7.2-1.2-.1-2.4-.2-3.6-.4l.3-.1h2.1c.7.1 1.4.1 2.2.2zm-23-13.1l.8.7c.4.8.8 1.6 1.2 2.3-.8-.9-1.4-2-2-3zm1.7 3.9c-.2-.2-.5-.5-.8-.7l-.3-.7c.3.4.7.9 1.1 1.4zm-2.2-8.2v-.1c0 .2.1.3.2.5.6 1.5 1.4 3 2.3 4.4l-.6-.4-.7-1.6c-.5-.9-.9-1.8-1.2-2.8zm.4 3.1l-.3-.3v-.5c.1.3.2.6.3.8zm-.7-8.5c-.1-.6-.1-1.1-.2-1.6v-.3c0-.5 0-.9.1-1.4l.5-1.5c.6-1.1 1.4-2 2.2-2.9 0 .1 0 .2-.1.3-1.1 2.4-1.9 4.9-2.5 7.4zm.5 2c.3-2.4 1-4.8 1.9-7 0 2 .6 4 1.7 5.7l.1 1.4c.5 4.3 2.3 8.9 5.5 12-1.5-.6-3-1.3-4.4-2.2-.8-1.1-1.5-2.3-2.1-3.5-1.1-2-2.1-4.2-2.7-6.4zm7.3-15.7c.6-.4 1.2-.7 1.8-.9-.3.2-.6.5-.9.8-.8.5-1.5 1-2.2 1.6-.7.6-1.3 1.3-1.9 2 .8-1.5 1.8-2.6 3.2-3.5zm-1-1.3c.8-.9 1.8-1.8 2.7-2.7.7-.2 1.3-.4 2-.5l.1.2c.1.2.2.3.4.5-1.9.5-3.6 1.4-5.2 2.5zm12.5-5.5l3.8 1.8.2.1c-.7-.1-1.5-.1-2.2-.1-2.6-.7-5.3-1-8-.7v-.3c2-.5 4.1-.8 6.2-.8zm-1.5-1.5c.4.1.8.2 1.3.3l-.8-.1c-.2-.1-.4-.1-.5-.2zm21.7 11.3c.1.3.2.5.4.8l-1-1.2.6.4zm-.6-4.6l.1.1-.1-.1zm2 15c-.2-1.6-.6-3.2-1.3-4.7-.6-1.5-1.5-2.9-2.5-4.1l-.3-1.6c-.2-.7-.6-1.3-1-1.8 3.3 3.3 5.4 7.5 5.1 12.2zm1.6-2.4v-.3c-.2-2-.7-4-1.4-5.9l-.1-.5c.6 1.6 1.1 3.2 1.5 4.9l.2 1.2-.2.6zm.1 5.3c-.1 1.1-.4 2.1-.6 3.2l-.1.1c.2-.9.4-1.8.5-2.7v-.1c.1-.2.2-.4.2-.5zm-10.9 12.2l.2-.5c1.5-1 2.9-2.3 4-3.8l.6-.3c-1.4 1.8-3 3.3-4.8 4.6zm3-1.4c-.6.6-1.2 1.2-1.9 1.7l-.8.5c.8-.6 1.6-1.2 2.3-1.8.1-.2.2-.3.4-.4zm-15.2.9c.4 0 .9 0 1.3-.1l-1.9.5c.2-.2.4-.3.6-.4zm-.4-1.4c.4 0 .8-.1 1.1-.2l-.1.1-.2.2c-.3 0-.6-.1-.8-.1zm-2.8-.7c-1.8-.6-3.5-1.6-5-2.8-.5-.7-1-1.4-1.3-2.2l1.4.6c2.8 1.6 6.1 2.1 9.3 1.6.8.1 1.6.2 2.4.2-.5.7-1.1 1.4-1.8 2.1-1.6.4-3.3.7-5 .5zm-10.8-17.7c-.1.1-.2.2-.2.3.3-1.8.9-3.5 1.8-5.1.2-.1.4-.1.7-.2-.9 1.5-1.6 3-2.1 4.7-.2 0-.2.2-.2.3zm0 9.8l-.2-.9.1.1c0 .3 0 .6.1.8zm.7-15.2l.5-.5c-.1.1-.2.2-.2.4h-.1c-.1.1-.2.1-.2.1zm1.4 9.3c0 1 .1 2 .4 2.9 0 .8.1 1.7.2 2.5-.4-.5-.7-1.1-.9-1.7l-.2-.5-.1-1v-1.4c.2-.2.4-.5.6-.8zm-.2-1c.1-.4.2-.8.4-1.2-.1.3-.1.6-.1.9l-.3.3zm-1 .6v-1c.1-.9.3-1.9.5-2.8.4-.3.8-.5 1.2-.7-.8 1.4-1.4 2.9-1.7 4.5zm.4 7.1c.6 1.2 1.3 2.2 2.2 3.2l.4.6c.3 1.3.8 2.5 1.6 3.6-.8-.7-1.5-1.5-2.2-2.4-1.1-1.5-2.1-3.5-2.6-5.5l.6.5zm9.3-20.2h.3l.5.1c-1 .4-1.9.9-2.6 1.5h-.3c.7-.7 1.4-1.2 2.1-1.6zm-2-2.3c.8-.2 1.5-.3 2.3-.4-.6.2-1.1.4-1.6.7-.1 0-.2.1-.3.2l-.4-.5zm8.3-3.6l-.4-.3c1.1.2 2.1.4 3.2.7v.1l-.6-.2c-.7-.1-1.5-.3-2.2-.3zm.4 1.3c-.5-.2-.9-.4-1.3-.6.2 0 .4 0 .6.1.2.1.5.3.7.5zm7.7 7.6c.2.2.4.4.6.5-.6-.3-1.1-.6-1.7-.8-.5-.2-1.1-.4-1.7-.5l-.8-.6c1.3.2 2.5.7 3.6 1.4zm-2.4-2.7c.2.1.3.1.4.2-.2 0-.3-.1-.4-.2zm2.5-4.1c.2.1.4.3.5.4-1.7-.8-3.4-1.4-5.2-1.9 1.6.4 3.2.9 4.7 1.5zm-4.5-2.2v-.4l.8.3c.4.2.9.4 1.3.7l-.7-.2c-.5-.2-.9-.3-1.4-.4zm7.3 4.7l1 1c.6.6 1.1 1.2 1.6 1.9l-.2-.1c-1.5-1.4-3.2-2.6-4.9-3.6-1.1-.7-2.4-1.3-3.6-1.9 2.2.7 4.2 1.6 6.1 2.7zm2.2 7.7l.6 1.8c-.2-.3-.5-.6-.7-1-.8-1-1.6-2-2.5-3-.3-.5-.6-1-1-1.5-.7-.9-1.5-1.6-2.3-2.3h.1c2.2 1.6 4.3 3.7 5.8 6zm-3.3-5.3c1.7.6 3.1 1.8 3.7 3.6l-1.5-1.5c-.6-.8-1.4-1.5-2.2-2.1zm3 7.3c.3.3.5.7.8 1.1-.1.5-.3 1-.5 1.5.1-.9 0-1.8-.3-2.6zm-1.2-.9c.5.9.8 2 .8 3.1l-.7-1c0-.7 0-1.4-.1-2.1zm.5 5c-.2.8-.5 1.5-.8 2.2l-.1.2c0-.6-.1-1.1-.2-1.7.2-.5.3-1 .4-1.5.3.2.5.5.7.8zm-.9 3.7c.1-.2.2-.4.3-.5.4-.6.9-1.3 1.2-2 .2.5.3 1.1.3 1.6v.5c-.5 1.2-1.2 2.3-2.1 3.3.2-.9.3-1.9.3-2.9zm2.8-5.4c0 .8-.1 1.7-.2 2.5l-.4-.9.6-1.6zm-3.1 15.1c-.1 0-.3.1-.4.2.1-.4.2-.7.2-1 .9-.6 1.8-1.2 2.6-1.9-.7.9-1.5 1.8-2.4 2.7zm2.6-1.6l-.5.7-.2.1c.2-.3.4-.6.7-.8zm-26.1-4.2l.9.9c-.2 0-.5-.1-.8-.2l-.2-.1c.1-.1.1-.3.1-.6zm-.1-4v-1.2999999999999998c0-.4.1-.8.2-1.2v-.1c.1.4.2.8.4 1.1l-.6 1.5zm.3 2.7v-.2c.6.8 1.4 1.6 2.2 2.2-1-.3-1.8-.9-2.2-2zm1.7 3.1c.2.2.5.3.8.5-.3-.1-.6-.2-.9-.2-.1-.1-.2-.2-.4-.2.2-.1.4-.1.5-.1zm-.5-3.1c-.4-.4-.7-.8-1-1.3l.6-2c.6.9 1.4 1.6 2.4 2.1-.1.9 0 1.9.5 2.8.1.2.2.4.3.5h-.1c-1.1-.5-1.9-1.3-2.7-2.1zm-.5-5.2s0 .1.1.1c-.1 0-.1-.1-.1-.1zm1.3 1.5c.3.2.7.4 1.1.4.1.2.2.4.4.5l-.2.7c-.9-.5-1.6-1.2-2.1-2.1 0-.1.1-.2.1-.2.2.3.4.6.7.7zm-.3-1.4l.3-.5.2.5.3.7h-.1c-.3-.1-.5-.4-.7-.7zm7.3-10.9c.5.1.9.2 1.4.4-.6.1-1.2.3-1.8.6l-1.1-.2c.5-.3 1-.6 1.5-.8zm-.4-1.5h.1l.7-.2s.1.1.2.1c-.4 0-.7.1-1 .1zm3.4 6.4c-.6.1-1.2.3-1.8.6l-.7-.4.4-.6c.1-.1.2-.3.4-.4h.4c.5.1.9.4 1.3.8zm-.7-3.8h.4v.1c-.1 0-.2 0-.4-.1zm1.1 4.5c.1.2.1.3.1.5v.3c-.4-.1-.9-.1-1.3-.1l-.3-.3 1.5-.4zm-.3-2.4h.3v.1c-.2 0-.2-.1-.3-.1zm2.6 4.6l.4.1.7.3-.1.5c-.2.4-.5.8-.8 1.1-.2-.4-.5-.7-.8-1.1l.6-.9zm-.1-3.8l.1.1v.2l-.1-.3zm.3 3zm1.2-.6c0 .2 0 .4-.1.6l-.9-1.1c0-.1.1-.2.1-.2l.9.7zm-.7-1.8c.1-.1.1 0 .2 0h-.2zm6 7.2l.3.7c-.1.3-.3.5-.5.8-.1-.3-.2-.6-.2-.9l.4-.6zm-.5-.7v-.4c0 .1.1.2.1.2s0 .1-.1.2zm1.1 2.4l.1.5-.6.7c0-.1 0-.2-.1-.3l.6-.9zm.5-3.6l.1.5-.4 1.1c-.1-.2-.1-.4-.2-.5l.5-1.1zm0-3.1c-.1-.3-.2-.6-.4-.9.1.1.2.1.2.2l.5.5c0 .1 0 .3-.1.4 0-.1-.1-.1-.2-.2zm-.1 8.3l.2 1.4-.2.9-.6.5c0-.7 0-1.4-.1-2 .2-.3.4-.6.7-.8zm.1-2.6l.3-.6v1.1l-.1.1c0-.1-.1-.4-.2-.6zm.2-7.2c-.4-.4-.8-.7-1.3-1-.7-1.3-1.6-2.6-2.6-3.7.9.3 1.7.7 2.5 1.2.4.3.9.6 1.2 1 .3.9.5 1.8.4 2.7l-.2-.2zm-4.9 1.8l.2-.5c.7.7 1.3 1.4 1.8 2.1.2.6.3 1.1.3 1.7-.6-1.1-1.3-2.3-2.3-3.3zm2.7 6.7c0 .1.1.2.1.4l-.5.6c.2-.3.3-.6.4-1zm-4.3-4.1v-.2l.2-.2c.5 1.3.6 2.7-.3 3.9-.1-.6-.3-1.2-.5-1.8l.6-1.7zm-.1-6.4zm0 13.4c1.1-.6 2.2-1.4 3.1-2.3l.4-.4c-.1.3-.2.6-.4.8-.5.9-1.1 1.6-1.9 2.3-.5.3-1 .5-1.5.7.2-.4.2-.7.3-1.1zm.9-1.5c-.2.2-.5.4-.8.5v-1.5c.4-.4.7-.8.9-1.4.6-1.4.5-2.8-.1-4.1 1.1.7 2 1.6 2.7 2.7l.3.8c-.8 1.2-1.9 2.2-3 3zm.4-7.4l.5.6-.6-.4c.1 0 .1-.1.1-.2zm-.1-1.3l-.2-.2v-.6l.3.3-.1.5zm.4-1.6h-.4l-.3-.2v-.5c.3.2.5.4.7.7zm-.3-1.4c.1 0 .2 0 .3.1v.2c0-.1-.1-.2-.3-.3zm1.1 1.2v-.8c.8.3 1.5.6 2.2 1.1l.6 1.3c-.8-.4-1.6-.7-2.4-.9-.1-.4-.2-.6-.4-.7zm1.5-1.1c-.5-.2-1-.4-1.6-.6-.1-.6-.3-1.3-.7-1.9-.2-.3-.4-.6-.7-.9h.1c1.2 1 2.2 2.1 2.9 3.4zm-2.4-.9l-.7-.1c-.2-.8-.5-1.6-1-2.2l-.4-.5h.2c.9.8 1.6 1.7 1.9 2.8zm-10.7-.6l-1.3-.1.9-.7c.3 0 .7.1 1 .2-.2.3-.4.4-.6.6zm.3 6.5v.1-.1zm-.5 4.6zm-.1-.9zm-.3-.7c-.1-.3-.1-.7-.1-1l.3-.9.3.6-.2 1.3c0-.1-.1 0-.3 0zm-.2-5c-.1-.4-.1-.8-.1-1.1.1 0 .3 0 .4.1l-.3 1zm.8.8v-.1h.2l-.2.1zm.1-.9v-.2c.1.1.1.1 0 .2zm.7 4.7h-.1v-.2c0 .1 0 .1.1.2zm-.2.9l.9-.3c.3.2.6.4.9.5.2.1.4.2.6.2-.8.1-1.6.2-2.4.1v-.5zm3.9-.4c-.6.1-1.2 0-1.8-.2-.1 0-.2-.1-.3-.2.4-.2.8-.4 1.1-.6.5 0 1-.1 1.4-.3v.1c-.1.5-.3.8-.4 1.2zm.3 1.2c-.2 1.2-.7 2.3-1.7 2.6.7-.8 1.3-1.7 1.7-2.6zm-3-8.2c-.1 0-.2-.1-.4-.1.2-.2.5-.3.7-.4l-.3.5zm2 3.3l.5.6c-1 .3-2-.2-2.6-1 .6-.3 1.4-.2 2.1.4zm-1.7 1c.7.4 1.4.5 2 .3l-.9.6c-.8 0-1.6-.2-2.2-.7l.2-.9c.2.3.5.5.9.7zm-.1 1.6c-.2.1-.3.1-.4.2l-.6-.6c.3.2.6.3 1 .4zm-1-4.3l-.1-.4c.1 0 .2 0 .2.1l-.1.3zm2.4 6.9c-.7.6-1.6 1-2.5 1.3l-.3-1.1c.9 0 1.9 0 2.8-.2zm-.6 1.3c-.2.3-.5.6-.8.9-.1 0-.1 0-.2-.1l-.5-.2c.6-.1 1.1-.4 1.5-.6zm-.5 1.8h.1c.8.1 1.8 0 2.7-.1l-.5.6-.5.3h-.2c-.7-.1-1.2-.3-1.6-.8zm2.4 1.7c.4 0 .9 0 1.3-.1.8-.1 1.5-.4 2.3-.7l-.2.8c-1.2.3-2.4.3-3.5.1 0 0 0-.1.1-.1zm1-.9c.6-.4 1.1-.9 1.6-1.5.5-.2.9-.4 1.3-.7 0 .4 0 .8-.1 1.3-.9.5-1.9.8-2.8.9zm2.6-4.6c.1.5.2 1 .2 1.4l-.5.4c.3-.6.3-1.2.3-1.8zm-1.4-5.8l-.5-.1v-1.1c.3.2.5.4.8.7-.1.1-.2.3-.3.5zm-.6-3.1c0-.1 0-.2-.1-.4l.2.1.3.5c-.1 0-.3-.1-.4-.2zm.1 3.8zm-.2-5.4c-.1-.1-.2-.2-.3-.2-.1-.2-.1-.3-.1-.5.5.2.9.4 1.3.7h-.9zm-.3 7.9l.3-.2c.2.4.5.7.6 1.1l-.4.3-.6.3c0-.2 0-.5-.1-.7v-.2c.1-.2.2-.4.2-.6zm-.1 2.4c.2-.1.4-.2.5-.3l.9-.5c.1.3.2.6.2.8-.3.6-.6 1.3-1 1.9-.2.3-.4.7-.7 1.1-.5.1-.9.2-1.4.2.1-.1.2-.2.3-.4.8-.6 1.1-1.7 1.2-2.8zm-1.8-9.7c-.3 0-.7.1-1 .2h-.2c-.3-.1-.6-.2-1-.3.2-.2.5-.4.7-.5.5.1 1.1.3 1.6.5l-.1.1zm-.7-3.1h.6c.1.1.1.2.2.2-.3 0-.5-.1-.8-.2zm-3.9 1.1c-.3 0-.6-.1-.8-.1.7-.3 1.3-.5 2.1-.6-.5.2-.9.4-1.3.7zm0 2.3l-.1.1c-1 .2-1.9.6-2.7 1.1l.9-.9.3-.3c.5-.1 1-.1 1.6 0zm-.7 1.1c-.2.1-.3.2-.5.2h-.2c.3-.1.5-.2.7-.2zm0 3.7l.4.8-.2.3c-.6.8-1.2 1.6-1.7 2.5-.3-.2-.7-.5-1-.8-.2-.1-.3-.3-.5-.5.2 0 .1-.2.1-.3.8-.9 1.7-1.6 2.9-2zm-1.2 5.5l.1-.4.6-.1.3.1c.1.6.2 1.1.4 1.6-.6-.3-1-.8-1.4-1.2zm.3 1.3c-.2 0-.4-.1-.6-.2 0-.1 0-.2.1-.3.1.2.3.4.5.5zm.3-2.8l.4-.8-.1.9h-.1s-.1 0-.2-.1zm-1.1.4h-.3l-.2-.3c.2.1.4.2.5.3zm-2.5-2.2c-.1.1-.1.1-.1.2-.1-.3-.2-.7-.2-1l.4.7s-.1 0-.1.1zm2.7 9.4c.2.1.3.2.5.2l-.8-.3c.1.1.2.1.3.1zm-.1-4.1l.6.2c.5.1 1 .1 1.5.1l.3.1c.2.4.5.8.9 1.2-.8.5-1.6.9-2.6 1.2-.6-.9-.8-1.8-.7-2.8zm3.8 2.2l.4.3.6.4c-1.2.4-2.4.5-3.6.5 1-.3 1.8-.7 2.6-1.2zm-1.4 3.5h1.4l.3.1c-.7 0-1.3-.1-2-.2 0 .1.1.1.3.1zm.1-1.5l1.8-.3c.5-.1.9-.2 1.4-.4-1.1.7-2.2 1-3.2.7zm4.2-.6c1.2.3 2.4.4 3.6.2-.2.1-.4.2-.6.2-1.8.6-3.6.9-5.5.9.9-.2 1.8-.7 2.5-1.3zm2.9 2.1l-.1.1h-.4c.3 0 .4-.1.5-.1zm.4.9c1.7-.1 3.3-.5 4.9-1.2v.1c-1.2.7-2.4 1.2-3.6 1.8-.8.3-1.6.7-2.5 1 .4-.6.8-1.2 1.2-1.7zm1-.9c-.2 0-.3 0-.5.1l.3-.5c2-.8 4-2 5.7-3.5-.2.8-.5 1.6-.8 2.3-1.5.8-3.1 1.3-4.7 1.6zm5.3-5.2c.1-.1.2-.2.3-.4v.1l-.3.3zm.2-7.4l-.1-.3c-.2-.6-.5-1.1-.8-1.7.8.3 1.5.6 2.2 1 .1.4.3.8.4 1.3-.1.3-.2.6-.4.8l-.3.6c-.3-.6-.6-1.2-1-1.7zm.5 9.8v.4l-.2.1.2-.5zm-.1 5.3c.4-.2.8-.4 1.2-.7 0 .3-.1.6-.2.8-.4.2-.8.3-1.2.4.1-.1.2-.3.2-.5zm.3-1l.1-.4c.5-.9.9-1.8 1.3-2.7 0 .8-.1 1.7-.2 2.5l-1.2.6zm1.2 2.6l1.3-1.2c.1-.1.3-.1.5-.2-.6.6-1.2 1.2-1.9 1.7.1-.1.1-.2.1-.3zm.7-16.3v-.1.1zm-6.6-10.7l-1.2-.1c-.2-.1-.5-.3-.8-.4h1.3c.5.2 1.1.4 1.6.7-.3-.1-.6-.2-.9-.2zm-.6-1.3c-.5-.2-1-.3-1.4-.4.7.1 1.4.2 2.1.4h.1-.8zm-1.6-3.3c-.1 0-.2-.1-.2-.1-.1-.3-.3-.6-.4-.8.3.1.7.2 1 .4-.2.2-.3.3-.4.5zm.1 5.5h-.4c-.1 0-.2-.1-.3-.2h.4l.3.2zm-.5.8c.3.2.7.4.9.6.6.5.9 1.2 1.1 1.9-.7-.5-1.4-.9-2.1-1.3-.1-.1-.2-.1-.2-.1-.1-.1-.2-.1-.3-.1-.4-.2-.8-.3-1.1-.5-.1-.2-.2-.5-.4-.7.5 0 1.1 0 1.6.1.1 0 .3.1.5.1zm-1.1-1.7l-1.3.3h-.8l-.1-.1c-.1-.1-.2-.1-.2-.2l1.6-.3.8.3zm-.5-1.2h.1c.2 0 .4 0 .6.1h-.4c-.1-.1-.2-.1-.3-.1zm-2.3-2c-.8 0-1.5 0-2.3.1.9-.2 1.8-.4 2.7-.4.2 0 .5 0 .7.1l.5.1c-.5 0-1.1 0-1.6.1zm-1.8 2.8l.2.1c-.8.3-1.7.6-2.5 1h-.4l.2-.1c.8-.5 1.7-.8 2.5-1zm-4 3.6c.4 0 .8.1 1.1.1l-1.1.9-1.6.3c.6-.5 1.1-1 1.6-1.3zm-1.4-.9h-.4l.6-.7c.1 0 .2 0 .3-.1-.1.3-.3.6-.5.8zm.5 2.9c-.3.3-.6.7-.9 1.1l.1-.7c.2-.2.4-.4.8-.4zm.2 2.7l1.2-.6.6.1c0 .5 0 1 .1 1.6-1.1.4-2.1 1-2.9 1.8-.1-.5-.2-1.1-.2-1.6v-.5c.3-.4.8-.6 1.2-.8zm-2.1-4.1l.5-.7h.4c-.4.2-.6.5-.9.7zm.1 6.1c-.1-.2-.2-.4-.2-.6 0 0 0-.1.1-.1 0 .2.1.4.1.7zm-.2-2.4l-.2.3.2-.8c.1.2.1.4 0 .5zm-.2-1.9c-.1.1-.2.2-.3.4l-.2.4h-.4c.3-.4.7-.9 1.1-1.3l-.2.5zm-.7 1.6c-.1.3-.1.6-.1 1 0 .3-.1.6-.1.8-.4.3-.8.6-1.1.9.2-.9.4-1.7.7-2.6.2-.1.4-.1.6-.1zm-.5 3c-.3.7-.5 1.4-.7 2.2-.2.7-.3 1.4-.3 2.1 0 .5-.1.9 0 1.4l-.2-.6c0-1.4 0-2.8.2-4.2.3-.3.6-.6 1-.9zm-.8 8.1v.4l-.1-.7c0 .2 0 .2.1.3zm-.3 2.5c0 .1.1.3.2.4l-.3-.5s0 .1.1.1zm1.9 4.2c.9 1 1.8 1.8 3 2.5s2.5 1 3.8 1.1c-.6.2-1.3.3-2 .1-1.5-.2-2.8-1-3.8-2.1-.4-.5-.7-1-1-1.6zm4.6 2.3c-.5-.2-1-.4-1.4-.7.7.3 1.4.5 2.1.6l2.1.6c-1 0-1.9-.2-2.8-.5zm6.4-.7c2-.6 4-1.5 5.9-2.5l-1.2 1.2c-.8.7-1.7 1.3-2.7 1.9-.4.1-.9.2-1.3.2h-1.4c.1-.2.4-.5.7-.8zm7.7-3.4l1.4-.8c-.1.5-.2 1-.3 1.4-.4.5-.7 1.1-1.1 1.5-1.1.5-2.3.9-3.4 1.3 1.3-1 2.5-2.1 3.4-3.4zm.5 2.8l-.1.3h-.2l.3-.3zm.7 3.4l-.3.6c-.9.6-1.8 1.1-2.8 1.6l.8-1c.8-.4 1.6-.8 2.3-1.2zm-.4-.7c.3-.2.7-.5 1-.8 0 .1 0 .1-.1.2-.2.2-.5.4-.9.6zm.7-1.5l-1 .8c.2-.3.3-.6.4-1l.7-.2c.2-.1.4-.2.7-.2-.2.1-.5.3-.8.6zm2.4-4c.1-.5.1-.9.1-1.4v-1.5c.8-.8 1.5-1.6 2-2.5.4-.8.7-1.6.8-2.4l.1-.3.6 2.1c.2.8.3 1.5.4 2.3-.1.3-.2.5-.4.8-1 1-2.3 2-3.6 2.9zm5.5-4.9c.2-.8.2-1.6.2-2.5.2-1.9-.1-3.9-.6-5.7-.3-1.2-.8-2.3-1.4-3.4 1.9 2.9 3 6.2 3.1 9.8-.4.6-.8 1.3-1.3 1.8zm1 0l-1.3 3.3-.2.5c0 .1-.1.2-.1.2.1-.6.1-1.2.1-1.8l.2-.6c.4-.5.8-1.1 1.3-1.6zm-2.5-9c0-.1-.1-.2-.1-.2v-.2c0 .2.1.3.1.4zm-.1 1.6c.6 1.4 1 3 1 4.5 0 .8-.2 1.5-.3 2.3l-.3-1.1c-.2-.9-.5-1.9-.9-2.8.3-1 .5-1.9.5-2.9zm.1 11.7c0 .1 0 .2-.1.3l-.1.5-.3.2c.2-.4.3-.7.5-1zm1.3 4.3c1.2-1.6 2.1-3.4 2.8-5.4l.1-.1c-.3 1.2-.8 2.3-1.2 3.3-.9 2-2.1 3.8-3.5 5.3.6-1 1.2-2 1.8-3.1zm2.8-9.8c-.1.7-.3 1.3-.5 2 0 .1-.1.2-.1.2l.1-.8.5-1.4zm-.6-14.6l-.7-1.3.3.3.4 1zm-2.8-1.4l.7 1.2-.9-.5c-.1 0-.2-.1-.3-.2-.5-.7-1.1-1.4-1.7-2.1.8.5 1.5 1 2.2 1.6zm-.1-1.6c.3.4.6.8.8 1.2l-.8-1.2zm-1.5-2.7l.2.2c-.1-.1-.1-.2-.2-.2zm-.8-2.5l.3.2.5.5.3.3c-.3-.3-.7-.7-1.1-1zm.7 4.6c-.8-.6-1.7-1.1-2.5-1.6l-.8-.8 2.2 1.1c.4.4.8.8 1.1 1.3zm-4-5.2c-1.3-.8-2.7-1.4-4.1-2-.8-.3-1.5-.6-2.3-.8-.1-.3-.2-.7-.4-1 .3.1.5.2.8.2 1.1.4 2.3.8 3.4 1.3 1.8.9 3.6 2 5.1 3.3l.4.5c-1-.6-1.9-1.1-2.9-1.5zm-.2 5.1l.7.5c-1.1-.5-2.3-.9-3.5-1.3-.1 0-.2-.1-.2-.1-.9-.6-1.9-1.1-3-1.5-.4-.2-.8-.4-1.1-.6.1-.2.2-.4.4-.7 2.4 1.1 4.6 2.3 6.7 3.7zm-6.9-5.8c-1.6-.4-3.1-.8-4.7-1 1.5 0 3 .2 4.5.5.1 0 .2 0 .2.1v.4zm-9.2 2.7c-.3 0-.7.1-1 .2l-1.5.3-.2-.4c.8-.1 1.8-.1 2.7-.1zm-2 4c-.5.4-.9.8-1.3 1.2l-1.2.3c-.2 0-.3.1-.5.2.8-.7 1.8-1.3 3-1.7zm-2.3 2.2l-.3.4c-.3 0-.6 0-.8.1h.1l1-.5zm-.8 1.3c-.6.9-1 1.8-1.4 2.7l-.7.9c-.6.2-1.1.4-1.6.7l.6-1.7c.3-.7.7-1.4 1.1-2.1l.2-.2c.6-.2 1.2-.3 1.8-.3zm-2.7-.5l-.7.2c.5-.8 1.1-1.4 1.8-2 .3-.2.5-.3.8-.4h.1c-.7.7-1.4 1.4-2 2.2zm-3.4 2.3c.3-.2.6-.4 1-.5-1 2.2-1.6 4.6-1.7 7.1-.1.5-.2.9-.2 1.4-.7-1.8-.9-3.7-.6-5.6.3-.6.7-1.2 1.1-1.8.1-.2.2-.4.4-.6zm.3 10.2l-.3-.5c-.1-1-.1-2 0-3l.1-.5c-.1 1.4-.1 2.7.2 4zm1.3 6.6c.3.8.7 1.5 1.1 2.2 1.7 2.7 4.1 5 7.3 5.7 2.9.7 5.9 0 8.6-1.4 1 0 2-.2 2.9-.3-3.4 2-7.7 2.6-11.7 1.9-.9-.2-1.8-.4-2.7-.7-2.6-1.8-4.4-4.5-5.5-7.4zm21.9 5.7l1-.3c-.3.6-.6 1.2-.9 1.7-.9.6-1.9 1.2-2.9 1.7-3.4 1-7.1 1.1-10.4.1-.2 0-.3-.1-.5-.2 4.8.9 9.9.1 13.7-3zm-2.3 3.8l.9-.3-.9 1-2.9.7c1-.4 2-.8 2.9-1.4zm-.1 5.7c1.3-.1 2.5-.2 3.8-.4l-.5.4c-1.2.2-2.4.4-3.6.4h-.7c.3-.1.6-.2 1-.4zm1.6-1.6c-.1 0-.2 0-.3.1l.6-.6.7-.7c.7-.2 1.4-.5 2.1-.8-1.1.7-2.1 1.4-3.1 2zm6-3.7c.9-.6 1.7-1.2 2.4-1.9l-1.1 1.5c-.3.4-.6.8-1 1.2-1.1.7-2.3 1.4-3.5 1.9 1.1-.8 2.2-1.7 3.2-2.7zm-1.6 2.9c-.1 0-.1.1-.2.2-.2.1-.5.2-.8.3.4-.2.7-.3 1-.5zm-.7 1.7l.7-.2c.8-.2 1.6-.5 2.4-.8-1.1.6-2.3 1-3.5 1.3.2-.1.3-.2.4-.3zm12.3-29.6c.9 2.5 1.6 5.2 1.9 7.9-.3 1.2-.8 2.2-1.5 3.2 0-1.4-.1-2.8-.2-4.2v-.6c0-1.2 0-2.4-.1-3.5 0-1-.1-1.9-.4-2.8l-.1-.6c.1.2.2.4.4.6zm.3 12.5c.7-.8 1.2-1.7 1.7-2.6v1.1c-.6 1.9-1.2 3.7-2 5.4.2-1.3.3-2.6.3-3.9zm-2.7-19.9c-.1-.1-.3-.3-.5-.4-.6-.9-1.1-1.8-1.8-2.7l1.3.9c2.5 1.8 4.8 4 6.2 6.8l.2.4c.1.5.2 1 .2 1.5 0 .4.1.8.1 1.1-1.4-2.8-3.4-5.4-5.7-7.6zm-3.6-4.9c-1.1-1.4-2.3-2.7-3.5-3.9h-.1l1.2.5c3 1.4 5.9 3.2 8.1 5.8 1.2 1.4 2.1 3.1 2.7 4.8-2.1-3-5.2-5.3-8.4-7.2zm-3.3-2.5c-1-.8-2.1-1.6-3.3-2.3 0 0 .1-.1.1-.2.3.1.6.2 1 .3.8.7 1.5 1.4 2.2 2.2zm-3.1-.7l-1-.5c-1.2-.6-2.5-1.1-3.8-1.5l-1.5-.5c-.1-.2-.3-.4-.4-.5 1 0 2 .2 3 .4l.7.3c1 .8 2.1 1.5 3 2.3zm-4.5-4.2h-.4c-2-1.1-4.1-2-6.2-2.7h.2c3.3.1 6.3 1.3 9 3.2-.9-.3-1.7-.4-2.6-.5zm-2.8-.5c-.6-.2-1.2-.3-1.7-.4-.5-.1-1-.2-1.6-.3-.9-.3-1.9-.6-2.8-.8l-1.5-.3 1.8-.3c2 .5 3.9 1.2 5.8 2.1zm-.4 1.9c-.2 0-.3-.1-.4-.1h.3l.1.1zm1.1 1.2c.2.3.4.6.5 1-1.8-.6-3.7-1-5.6-1.2l.8-.4c1.4.1 2.9.3 4.3.6zm-8.5-.4c-.7 0-1.3 0-2 .1l2.4-.3-.4.2zm-1.4 2.1h-.2c.2-.2.4-.4.6-.5h.5l-.9.5zm.8 1.1c-.4 0-.7 0-1.1.1l.3-.2h.3c.1 0 .3.1.5.1zm1.2.8c-1.2.1-2.4.3-3.6.6 0-.1 0-.2.1-.2v-.1c1.2-.3 2.4-.4 3.5-.3zm-3.1-2l-.5-.1.7-.1c-.1 0-.2.1-.2.2zm-.4 6.5c-.6.1-1.2.2-1.8.4-.6.1-1.2.3-1.8.5 1-.5 2.1-.9 3.2-1.2 0 0 .2.2.4.3zm-.9-1.8h.2c.1.2.1.4.2.5l-.4-.5zm-.5-.8c.1-.1.3-.2.5-.2v.1c-.1 0-.3.1-.5.1zm0-3.3c-1.4.4-2.6 1.1-3.7 2-1 .5-2 1.2-2.9 1.9.7-.8 1.4-1.6 2.3-2.2.2-.2.4-.3.7-.5.9-.5 1.8-.9 2.7-1.2.4 0 .8 0 1.2.1-.2-.2-.3-.2-.3-.1zm-5.4 4.5c1.4-1 2.9-1.7 4.5-2.3v.2l-.7.6c-1 .5-2 1-2.9 1.7-.9.4-1.7 1-2.5 1.6.5-.6 1-1.2 1.6-1.8zm.6 1.5l.4-.3-1.8 1.9c-.5.6-1 1.2-1.5 1.9l-.7.6c1-1.6 2.2-3 3.6-4.1zm-2.6 4.3c.2-.2.4-.4.7-.6.3-.3.7-.5 1.1-.7-.3.2-.5.5-.7.7-1 1.1-1.8 2.3-2.3 3.7-.5.4-.9.8-1.3 1.2.7-1.5 1.5-2.9 2.5-4.3zm-4.7 5.3c-.5 1.2-.9 2.4-1.2 3.7.1-1 .2-2 .5-3 .9-2.8 2.3-5.3 4.2-7.5-1.4 2.1-2.6 4.4-3.5 6.8zm-.8 8.1l.2-1.2c.1 1 .2 2.1.5 3.1v.5c-.3-.9-.5-1.7-.7-2.4zm.6 6c-.4-.9-.7-1.8-1-2.7 0-.4 0-.8.1-1.3.2.8.5 1.6.8 2.3.1.7.1 1.2.1 1.7zm1.2-18.9c-.8 1.4-1.6 2.8-2.1 4.3l-.3.9c.3-1.3.8-2.6 1.4-3.8.9-1.8 2.1-3.5 3.5-5-.9 1.2-1.7 2.4-2.5 3.6zm-.8 25.3c-.1-.2-.2-.4-.2-.6l1.3 1.2.5.5c-.6-.5-1.1-.8-1.6-1.1zm.2 2.8l-.3-.2-.3-1.2c.2.5.4 1 .6 1.4zm.4-1.1l-.1-.3c2.7 2.1 5.8 3.9 8.9 5.3-2.7-.6-5.4-1.6-7.7-3-.4-.6-.8-1.3-1.1-2zm6.2 1.2c-1.7-1.3-2.9-3.2-3.8-5.1.4.3.8.6 1.2.8.9 1.1 1.8 2.1 2.9 3 .9.9 1.9 1.7 2.9 2.4.3.2.6.4 1 .6-1.5-.4-2.9-1-4.2-1.7zm10.4 4.3c.5 0 1-.1 1.4-.1 1 .2 2 .2 3.1.2l-1.5.6c-1.3-.2-2.7-.4-4-.7h1zm.3 2.3c1 .2 2 .4 3 .5-1.8.3-3.7.5-5.6.4-1-.1-1.9-.3-2.9-.6 1.9.2 3.7.1 5.5-.3zm-5.6 3.1v-.9c1.2.4 2.4.7 3.6 1h-1.4c-.7-.1-1.5-.1-2.2-.1zm15.9.2l-.7.3h-.8l1.5-.3zm-.6-.6l.5-.5c1.7-.6 3.4-1.2 5-2.1l1.2.1-2.2 1.2c-1.4.5-2.9.9-4.5 1.3zm7.6-1.5l1.4-.6h.30000000000000004l-1.4 1.4c-1.1.4-2.3.8-3.6 1 1.1-.5 2.2-1.1 3.3-1.8zm7.1-9.9c.2-.4.4-.8.5-1.2l.5-1.3c.9-1.5 1.7-3.1 2.4-4.8-.1.5-.2.9-.4 1.4-.6 2.1-1.7 4.1-3 5.9zm3.9-3.7l.6-1.5 1.5-2.7-.1.6c-.8 2.1-1.7 4-2.9 5.9l-.3.5c.4-1 .8-1.9 1.2-2.8zm1.4-10.6c.1-.6.2-1.2.3-1.9l.1-.9.4 1.5c0 .5-.1 1-.2 1.6-.2 1.3-.5 2.6-.8 3.9.3-1.4.3-2.8.2-4.2zm.7-5.8v-.8l.2 1.2c-.1-.1-.2-.2-.2-.4zm-.2 10.9c.3-1 .5-2.1.7-3.1 0 .6 0 1.1-.1 1.7-.2.4-.4.9-.6 1.4zm-12.7-30c-1.1-.5-2.3-1-3.5-1.4-1.2-1-2.5-2-3.9-2.7 4.4 1.3 8.7 3.5 12.3 6.4-1.6-.8-3.2-1.6-4.9-2.3zm-8.2-5.1c-.3-.1-.6-.2-.9-.2.5 0 .9 0 1.4.1l2.6.3c2 .8 3.9 1.8 5.7 2.9 1 .8 1.9 1.5 2.9 2.4-3.5-2.6-7.5-4.4-11.7-5.5zm-5.1-1.1c-1.9-.2-3.9-.3-5.8-.1h-.2c.9-.2 1.8-.4 2.7-.5 2.7-.2 5.3 0 7.9.6h-4.6zm-1.2 3.3c.6.2 1.1.5 1.7.8h-.3l-2.4.1c-2.3-.4-4.7-.5-7.1-.4-1.3-.3-2.6-.2-3.9.2.1 0 .1-.1.2-.2l.5-.1c3.6-1 7.5-1.1 11.3-.4zm-8.2 1.2c.3.1.6.2 1 .3.3.1.4-.1.5-.3.9 0 1.8 0 2.7.1-1.2.2-2.3.5-3.5.9-3 .7-5.9 1.8-8.5 3.4l-.9.5c.7-.9 1.4-1.8 2.2-2.7.4-.5.9-1 1.3-1.4 1.6-.5 3.4-.7 5.2-.8zm-10.9 6.4c-.5.4-1.1.9-1.6 1.4 0-.1.1-.2.2-.2 1.1-1.7 2.6-3.5 4.3-5-1 1.2-2 2.5-2.9 3.8zm-1.4 3.8c1.5-1.5 3.1-2.8 4.9-3.9l.9-.5c-2 1.8-3.6 4-5 6.3-1.4 1.8-2.6 3.8-3.5 5.9-.5 1.3-1 2.6-1.3 4-.3.8-.6 1.6-.9 2.5-.1-.8-.1-1.6-.1-2.4 0-.2 0-.4.1-.7.7-2.3 1.6-4.5 2.6-6.7.7-1.4 1.5-3 2.3-4.5zm-5 8l.2-1.2.6-1.2c-.2.8-.5 1.6-.8 2.4zm1.9-8.2c-.5 1-1 2.1-1.4 3.2l-.6 1c-.8 1.1-1.5 2.3-2.1 3.5l.3-2 1.3-2.4c.9-1.6 1.9-3.1 3-4.6-.1.5-.3.9-.5 1.3zm-3.7 8.7l-.2.7-.8 2.1.1-.9c.4-.6.7-1.3.9-1.9zm.1 22.9l1.1 2.2c-.3-.2-.6-.4-.8-.6-.4-.6-.8-1.2-1.1-1.8v-1.7c.2.6.5 1.3.8 1.9zm.5-3.6c0-.6-.1-1.2-.1-1.9l.3.4c.6 1.3 1.3 2.5 2.2 3.7l-.1.4-.1.7c-.7-1-1.5-2.1-2.2-3.3zm2.1.1l.5.3.3.2c0 .1 0 .3-.1.4-.3-.2-.5-.5-.7-.9zm.5-4c-.1-.5-.2-1-.2-1.5l.5 1.1v.9c-.1-.1-.2-.3-.3-.5zm.2 10.3c.8.7 1.7 1.4 2.6 2v.1c-.9-.4-1.8-.8-2.7-1.3.1-.3.1-.6.1-.8zm2 2.6c.5.2 1 .4 1.5.7.4.5.7 1 1.1 1.4 0 0 0 .1.1.1l.3.5c.1.3.2.5.4.8-2.1-1-3.9-2.5-5.3-4.4.6.3 1.2.6 1.9.9zm1.7 4.6c-.3 0-.5 0-.8-.1-.6-.2-1.1-.7-1.5-1.3l-.1-.3c.7.5 1.5 1.1 2.4 1.7zm.2.8c.2 0 .5-.1.7-.2.4.3.9.5 1.3.7l.6.3.1.6c0 .6-.2 1.3-.7 1.6-.7.5-1.7.1-2.2-.5-.8-.8-1.2-2-1.6-3.1.5.5 1.1.7 1.8.6zm1.5-3.7l-.1-.3c1.2.5 2.4.9 3.6 1.3l-1.8.5c-.6-.5-1.2-1-1.7-1.5zm2.4 2.1c.8-.3 1.7-.5 2.5-.6 1.4.5 2.8 1 4.1 1.4v1.1c-1.7-.1-3.5-.4-5.2-.8-.4-.4-.9-.8-1.4-1.1zm3.9 3.1c.9.4 1.8.7 2.7.9v.3c-2.1-.5-4.2-1.1-6.2-2v-.1c1.1.4 2.3.7 3.5.9zm2.9 2.1l.1.4c-1.2-.1-2.3-.3-3.5-.7-.7-.3-1.3-.7-1.9-1.2 1.8.6 3.6 1.1 5.3 1.5zm-5.4-8.4c-1.2-.6-2.2-1.3-3-2.2 3 1.5 6.3 2.3 9.5 2.9l1 .2c.8.3 1.5.5 2.3.7-1 .1-2 .2-2.9.1-2.4-.1-4.8-.6-6.9-1.7zm9.2 8c.7.1 1.4.1 2 .1l-1.1.3c-1.4-.2-2.7-.4-4.1-.7v-.2c1 .2 2.1.4 3.2.5zm-1.8.8h-1c0-.1-.1-.2-.1-.2.4 0 .8.1 1.1.2zm1.1.6l1.5-.2h.3c-1 .2-2 .5-3.1.7-.1-.1-.2-.2-.3-.4l1.6-.1zm.2 1c1.2-.3 2.4-.5 3.6-.9l3.4.3c-.5.5-1 .9-1.6 1.2-2.1 1.2-4.5 1.2-6.3-.4.3-.1.6-.2.9-.2zm5.8-1.5l3.2-1-1 1.2c-.8-.1-1.5-.1-2.2-.2zm2-1.9c.4-.2.9-.4 1.3-.7h1l-.2.2c-.7.3-1.4.4-2.1.5zm2.6.4c1.2-.3 2.5-.7 3.7-1.1 1.7-.2 3.4-.5 5-1-1.4 1.2-2.9 2.4-4.5 3.4-1.9.3-3.8.4-5.7.3l1.5-1.6zm9.6-1.8l1-.9c1.5-.5 2.9-1.2 4.2-2 .9-.1 1.8-.3 2.7-.5-1.5 1.5-3.3 2.8-5.2 3.9-1.9 1.1-4 1.8-6.1 2.3 1.1-.9 2.3-1.8 3.4-2.8zm13.1-13.8c-1.9 3.1-4.5 5.8-7.6 7.8.5-.6.9-1.2 1.4-1.9.1-.1.2-.3.4-.4 1-1 2-2.1 2.9-3.3 1.7-2.3 3-4.9 3.8-7.7l.8-2.4c-.2 2.8-.7 5.4-1.7 7.9zm1.3-.6v-.2c.3-.6.6-1.3.9-2-.3 1.1-.6 2.2-1.1 3.2.1-.3.2-.7.2-1zm-7.1-38.4c1.6 1.1 3.1 2.3 4.4 3.5l.1.1c1.6 1.8 2.7 3.8 3.5 6.1-1.8-1.3-3.7-2.6-5.7-3.7-2.2-2.8-4.8-5.2-7.7-7.2l-2.4-1.8c2.7.6 5.4 1.6 7.8 3zm-5.3-3.1c-1.4-.4-2.8-.8-4.2-1-1.2-.8-2.5-1.4-3.8-2 2.7.7 5.4 1.7 8 3zm-25.3-3.9c3.7-1.2 7.6-1.1 11.3-.5.2 0 .4.1.7.1.4.1.8.2 1.2.4 1.9.7 3.7 1.5 5.5 2.4-3.1-1.1-6.3-1.7-9.7-1.8-2.2 0-4.4.3-6.4 1.1-2.4-.2-4.9 0-7.3.6 1.4-.9 3-1.7 4.7-2.3zm-6.7 3.8c1.7-.6 3.5-1 5.2-1.2.8-.1 1.6-.1 2.4-.1l-.6.3c-2.3.7-4.5 1.7-6.5 3-.6.3-1.1.7-1.6 1-1.2.5-2.4 1.1-3.5 1.8.9-1.1 1.9-2.2 2.9-3.3.5-.5 1.1-1 1.7-1.5zm-2.7 1.3l.3-.2c-.6.6-1.2 1.3-1.8 2-.8.9-1.6 1.9-2.3 3l-1.2.9c1.5-2.2 3.1-4 5-5.7zm-6.7 9.6s0 .1-.1.2c.1-.1.1-.2.1-.2zm.4 1.2c1.7-2.4 3.7-4.7 6-6.6.1 0 .2-.1.2-.1l.9-.4-.4.4c-2.1 1.8-3.9 3.8-5.6 6.1-.9 1.2-1.7 2.5-2.5 3.8.5-1.2.9-2.2 1.4-3.2zm-2.7 2.3c.1-.4.3-.8.5-1.1.2-.3.4-.6.7-.9l-.3 1.1-1.4 2.4c.1-.5.3-1 .5-1.5zm.1 2c-.3.8-.6 1.7-.8 2.5-.4.8-.8 1.7-1.2 2.6l.1-.5.4-1.2c.4-1.2.9-2.3 1.5-3.4zm-1.9 17.4c.1 1.4.4 2.7.8 4 0 .3 0 .6-.1.9-.4-1.2-.7-2.4-.9-3.7.1-.5.1-.8.2-1.2zm-.1-5.1c0-.3.1-.7.2-1l-.1 1.3s-.1-.1-.1-.3zm-.3-3.7v-.4l.2-.6c-.1.4-.1.7-.2 1zm.3 14c.2.6.4 1.2.6 1.7v1.8c-.4-1-.8-2-1.1-3 0-.5 0-1 .1-1.5.2.3.3.6.4 1zm.1 5l-.4-.4v-.5l.4.9zm.7 1.6c.1 1.1.1 2.1.3 3.2 0 .2 0 .4.1.6-.6-1.5-1-3-1.2-4.6.2.3.5.6.8.8zm-2.7-4c-1.4-1.9-2.5-4.1-3.1-6.6-1.3-5.3-.4-10.9 1.9-15.8.9-1.9 2-3.8 3.3-5.5-1.6 2.5-2.9 5.2-3.4 8.2-.3 2-.3 4 0 5.9 0 2.4.3 4.8.8 7.2v.1c.1 1.1.3 2.2.6 3.3-.1 1.2-.1 2.2-.1 3.2zm2.4-26.9c-.9 1.5-1.6 3-2.2 4.6.5-1.5 1.3-3.1 2.2-4.6zm-2.8 14.2l-.2-1.1c0-1.1.1-2.2.3-3.3.4-2.7 1.3-5.2 2.5-7.6-.4 1.4-.8 2.7-1 4.1-.9 2.5-1.4 5.2-1.6 7.9zm.9 3.7c0-.2-.1-.3-.2-.5v-2.1c.1-.9.3-1.8.5-2.7 0 .3 0 .5.1.8l.1.5-.3 2.5c-.1.4-.2 1-.2 1.5zm.4 11.5c.2 1.6.6 3.3 1.1 4.9.4 1.1.9 2.1 1.4 3.1.2.9.3 1.8.6 2.8-1.9-3.3-2.8-7-3.1-10.8zm2.7 2.8c1 1.7 2.3 3.1 3.8 4.3.2.7.5 1.4 1 2l1.2 3.1c.4.9.8 1.8 1.6 2.4 1.7 1.2 3.6.1 3.8-1.9v-.5l.4.2c.5.7 1.1 1.4 1.9 1.9 1.5 1 3.5 1.4 5.5 1.4.1.2.2.4.3.5-2.7.5-5.4.8-8.1 1-.3 0-.6 0-.9.1-4.1-2.2-7.6-5.5-9.9-9.6-.3-1.5-.5-3.2-.6-4.9zm3.8 13.4l-.1-.1.7.6c-.2-.2-.4-.4-.6-.5zm3.3 1.3c-2-1.2-3.8-2.8-5.3-4.6-.3-.9-.5-1.8-.7-2.7v-.2c2.1 3 4.9 5.6 8.1 7.5-.8.1-1.5.1-2.1 0zm8.9 3c-2.5-.3-5.1-1-7.4-2.2.6 0 1.2 0 1.7-.1.1 0 .2.1.3.2 1.8.9 3.6 1.6 5.4 2.1zm4.7.1c-2.5-.3-4.9-.9-7.3-1.8-.5-.2-1-.4-1.6-.7.3 0 .7 0 1-.1 2.4-.2 4.8-.6 7.2-1 1 1 2.2 1.7 3.6 1.9 2.4.3 4.6-1 6.3-2.6l.1-.1c1.6.1 3.2 0 4.8-.1-4.2 2.4-9.1 4.2-14.1 4.5zm40.9-26.6c-2 6.3-5.9 11.8-10.9 16.1-6.9 6.1-16.3 10.5-25.7 10.7 4.2-.9 8.2-2.7 11.8-5 2.3-.4 4.5-1 6.6-2 3.1-1.4 5.8-3.5 8-6 2.4-1.1 4.3-3.1 4.6-5.9l.1-1.2.2-.3c1.5-3.2 2.3-6.5 2.6-9.9.8-1.8 1.5-3.7 2-5.6.7-2.9.9-5.9.6-8.8-.1-.9-.2-1.8-.4-2.7.1.2.2.4.2.6 2.5 6.3 2.4 13.5.3 20z"/><path fill="#fff" d="M74.4 22.3c-.2.7-.5 1.4-1 1.9-.6.7-1.3 1.4-2 2.1-.4.4-.8.8-1.3 1.2-.3.2-.3.5-.3.8 0 3.6-.5 7.1-1.7 10.5-2 5.9-5.4 10.7-10.5 14.4-3.2 2.3-6.7 3.8-10.6 4.6-2.1.4-4.2.5-6.2.4-2.8-.1-5.4-.7-8-1.6-1.2-.4-2.4-.8-3.6-1.3-.9-.4-1.7-1-2.3-1.8l-.2-.3c5.1.8 9.6-.8 13.8-3.6-.6-.2-1.2-.4-1.7-.6-1.6-.6-3.2-1.4-4.4-2.6-1.2-1.2-2-2.6-2.4-4.3v-.2c1.1.1 2.2.3 3.4 0-.2-.1-.3-.2-.4-.3-1.6-.9-3.1-1.8-4.3-3.3-1.2-1.4-1.8-3-2.1-4.8l-.2-2.1c1.2.5 2.2 1.1 3.5 1.1-.3-.4-.7-.8-1-1.3-1.3-1.9-2-3.9-2.3-6.1-.2-1.9 0-3.8.9-5.5.1-.2.2-.4.4-.6.4.4.7.7 1 1.1 2 2.1 4.1 4 6.5 5.5 2.9 1.9 6 3.1 9.4 3.7l2.7.4h.3l-.1-1.8c0-4.5 2.1-7.6 6.1-9.6 1.5-.8 3.2-1.1 4.9-1 2.5.1 4.6 1 6.2 2.8.2.3.4.3.8.2l3.9-1.4c.6-.2 1-.6 1.6-.9-.1 2.5-1.6 4-3.5 5.3.7.1 1.3 0 1.9-.2.9-.3 1.7-.6 2.5-.9 0 .1.1.1.3.1z"/><path fill="#414042" d="M74.5 22.3c-.2.7-.4 1.4-.9 2l-1.5 1.6-1.5 1.6c-.3.3-.4.4-.4.7v1.1c0 3-.4 5.9-1.2 8.8-.2.7-.4 1.4-.7 2.1l-.8 2.1c-.6 1.4-1.3 2.7-2.1 3.9-1.6 2.5-3.6 4.8-5.9 6.7-1.2.9-2.4 1.8-3.7 2.6-1.3.8-2.7 1.4-4.1 1.9-2.8 1-5.8 1.6-8.8 1.6-3 0-6-.5-8.8-1.4-1.4-.5-2.8-1-4.1-1.5-.7-.3-1.4-.5-2.1-1-.6-.4-1.2-1-1.6-1.7-.1-.2-.1-.4.1-.5.1-.1.2-.1.3-.1.6.1 1.2.2 1.8.2h1.8c1.2-.1 2.4-.3 3.5-.6 1.2-.3 2.3-.8 3.3-1.3 1.1-.5 2.1-1.2 3.1-1.9l.1.6c-1-.3-1.9-.6-2.9-1s-1.9-.9-2.7-1.6l-.6-.5c-.2-.2-.4-.3-.6-.6-.4-.4-.7-.8-1-1.3-.3-.4-.5-.9-.7-1.4-.1-.2-.2-.5-.3-.8-.1-.3-.2-.5-.2-.8 0-.3.2-.5.4-.5h.1c1.2.1 2.3.3 3.2-.1l-.1 1c-1-.5-2-1-3-1.7-.5-.3-.9-.7-1.4-1.1l-.6-.6-.3-.3-.3-.4c-.7-1-1.2-2.1-1.5-3.2l-.2-.9-.1-.5v-.4l-.2-1.7c0-.4.3-.8.7-.9.1 0 .3 0 .4.1 1.1.5 2.2 1 3.1 1l-.5 1.6-.6-.7-.6-.8c-.2-.2-.4-.6-.5-.8l-.5-.9c-.6-1.2-1-2.4-1.2-3.7-.1-.6-.2-1.3-.2-1.9 0-.7 0-1.3.1-2s.2-1.3.5-2c.1-.3.2-.6.4-.9.2-.4.3-.6.5-.8.3-.5.9-.7 1.3-.4.1.1.2.1.2.2 1.3 1.4 2.7 2.7 4.1 4 .7.6 1.5 1.2 2.2 1.7l1.2.8c.4.3.8.5 1.2.7 1.6.9 3.3 1.6 5.1 2.2.4.1.9.2 1.3.4.4.1.9.2 1.4.3l1.4.2.7.1.4.1h-.1.1.2l-1.1 1.1c0-.7-.1-1.4-.1-2.2 0-.6.1-1.5.2-2.2.3-1.5.9-2.9 1.8-4.1.9-1.2 2-2.2 3.3-3 .6-.4 1.3-.7 1.9-1 .7-.3 1.4-.5 2.1-.6.7-.1 1.5-.2 2.2-.2h1.1c.4 0 .7.1 1.1.2 1.5.3 2.8 1 3.9 2 .3.2.5.5.8.8l.2.2.1.1h-.1l1.9-.6 1.9-.7c.6-.2 1.1-.6 1.7-.9.2-.1.5 0 .6.2l.1.3c0 .6-.1 1.2-.4 1.8-.2.6-.5 1.1-.9 1.6-.7.9-1.6 1.6-2.6 2.2l-.1-.5c.4.1.8.1 1.1 0l1.2-.3 1.2-.4c.4-.1.8-.3 1.2-.3.5-.3.6-.3.6-.2zm-.3.1c-.3.1-.6.2-1 .3l-1.2.4-1.2.4c-.4.1-.9.1-1.3 0-.2 0-.3-.2-.2-.3l.1-.2c.9-.7 1.7-1.4 2.3-2.2.6-.9.9-1.9.9-2.9l.7.4c-.5.3-1.1.8-1.8 1.1l-1.9.8-2 .8c-.1 0-.3.1-.5 0-.2 0-.4-.1-.5-.2-.1-.1-.2-.2-.3-.2l-.2-.2-.7-.6c-2-1.6-4.7-2-7.2-1.5-.6.1-1.2.3-1.8.6l-1.7.9c-1.1.7-2 1.6-2.7 2.6-.4.5-.6 1.1-.9 1.6-.2.6-.4 1.2-.5 1.8-.1.6-.2 1.2-.2 1.9l.1 1.9c0 .6-.4 1.1-1 1.1h-1.5l-1.4-.2-1.5-.3c-.5-.1-1-.2-1.5-.4-1.9-.6-3.8-1.4-5.6-2.4-.4-.2-.9-.5-1.3-.8-.4-.3-.8-.6-1.3-.9-.8-.6-1.6-1.2-2.4-1.9-1.5-1.3-2.9-2.8-4.2-4.2l1.6-.2c-.1.2-.3.6-.4.7l-.3.7c-.2.5-.3 1-.4 1.6-.1.5-.1 1.1-.1 1.7 0 .5.1 1.1.2 1.7.2 1.1.5 2.2 1 3.2l.4.8c.1.3.3.5.4.7.1.2.3.5.5.7l.5.7c.3.4.2.9-.2 1.2-.2.1-.4.2-.5.2-.7 0-1.5-.2-2.1-.5-.6-.2-1.2-.5-1.7-.8l1.2-.8.1 1.7v.8l.1.8c.2 1 .6 2 1.2 2.8l.2.3.2.3.5.6 1.2 1.1c.8.7 1.8 1.2 2.8 1.8.3.2.4.5.2.8l-.3.3c-.6.2-1.3.2-1.9.2-.6 0-1.2-.1-1.7-.2l.5-.6.1.7.2.7c.2.5.4.9.6 1.3.2.4.5.8.8 1.2.1.2.3.4.5.5.2.2.4.3.5.5.8.6 1.6 1.1 2.5 1.5.9.4 1.9.7 2.8 1 .2.1.3.2.2.4l-.1.2c-1 .7-2.1 1.3-3.2 1.9l-1.7.8-1.8.6c-.6.2-1.2.3-1.8.4-.6.1-1.2.2-1.8.2-.6 0-1.2.1-1.9 0-.6 0-1.2-.1-1.9-.2l1-.6c.4.6.9 1 1.5 1.4.6.4 1.2.6 1.9.8l4.1 1.3c2.7.7 5.6 1.1 8.4.9 2.8-.1 5.6-.7 8.2-1.7 2.6-1 5.1-2.4 7.3-4.2 2.2-1.8 4.1-3.9 5.7-6.2.8-1.2 1.5-2.4 2.1-3.7l.9-1.9c.3-.7.5-1.3.7-2 .9-2.7 1.4-5.6 1.5-8.4l.1-1.1c0-.2.1-.5.3-.7l.4-.4 1.6-1.5 1.6-1.5c.4-.5.7-1.1.9-1.7z"/></g></svg>